<?xml version="1.0" standalone="no"?>
<!DOCTYPE svg PUBLIC "-//W3C//DTD SVG 1.1//EN" "http://www.w3.org/Graphics/SVG/1.1/DTD/svg11.dtd" >
<svg>
<metadata>
Created by FontForge 20090622 at Sat Jan 14 14:24:47 2017
 By deploy user
Copyright (c) 2016 by @zamroni_agus . All rights reserved.
</metadata>
<defs>
<font id="Selima" horiz-adv-x="347" >
  <font-face 
    font-family="Selima"
    font-weight="400"
    font-stretch="normal"
    units-per-em="1000"
    panose-1="2 0 0 0 0 0 0 0 0 0"
    ascent="750"
    descent="-250"
    x-height="396"
    cap-height="594"
    bbox="-420.333 -306.562 826.125 836.333"
    underline-thickness="50"
    underline-position="-50"
    unicode-range="U+0020-U+2122"
  />
<missing-glyph horiz-adv-x="250" 
 />
    <glyph glyph-name="e_e" unicode="ee" horiz-adv-x="665" 
d="M151 174l-13 3q-7 3 -10 5q-18 14 -23 21q0 1 -3 2l-2 -2q-14 -23 -17 -34q-1 -1 -1 -3q-5 -16 5 -27q18 -22 33 -31q2 -2 17 -12q11 -9 28 -6q35 5 56 19l20 12t19 13q6 4 16.5 12.5t11.5 9.5l46 40q0 1 0.5 3t0.5 3q1 20 19 54q26 55 81 103q11 11 27 19q8 5 20 2
q2 -1 7.5 -2.5t7.5 -2.5q4 -2 12 -8q16 -12 24 -17q7 -5 8 -10t6 -8q2 -1 5.5 -4t4.5 -3q7 -6 15 -20q2 -6 2 -17q-4 -31 -12 -50q-4 -10 -7 -14l-7 -14l-20 -39q-2 -3 -7 -9.5t-7 -8.5q-7 -11 -29 -21q-10 -4 -20 0l-10 3q-7 0 -17 6q-5 5 -10 5l-2 -1q0 -3 -2 -10.5
t-2 -12.5q-2 -30 19 -49q17 -14 34 -10q17 3 28 7q7 2 19 10q54 36 80 55q13 8 24 23q1 1 9.5 10.5t12.5 14.5q18 21 27 41q1 1 6 14q2 0 2 -3v-6q-2 -6 -4 -22q-1 -9 -6 -18q-10 -16 -16 -24t-7 -13q-6 -15 -17 -26q-6 -6 -7 -10q0 -1 -3 -4q-22 -17 -29 -21q-4 -2 -19 -12
q-15 -12 -30 -16q-10 -3 -35 -17q-36 -21 -77 -24q-16 -1 -41 4q-3 1 -9 5q-19 9 -32 31q-13 24 -18 51q-2 8 -2 12q-1 2 -1 7v20v9t1 10l-6 -6q-6 -6 -8 -10q-12 -12 -15 -14q-2 -2 -5.5 -5l-6.5 -5.5t-6 -4.5q-8 -7 -24 -19q-23 -19 -49 -30q-23 -7 -27 -8q-1 0 -29 -3
q-3 -1 -9 -1q-8 -2 -25 0q-41 8 -69 28q-29 23 -43 52q-1 2 -3 6.5t-3 6.5q-9 21 -7 46q3 44 27 81q25 42 60 70q9 8 29 18q2 1 7 2t8 2q4 0 8 2q8 4 16 -1l20 -15q10 -5 11 -5q5 -1 10 -6l15 -15l7 -9q0 -4 5 -6q19 -20 23 -46q2 -13 -3 -33q-4 -16 -13 -36q-8 -20 -26 -27
q-2 -2 -4 -2q-6 -1 -18 -5q-9 -1 -18 0l-1 1q-4 5 -8 0zM438 175q1 0 7 -1.5t10 -1.5q12 0 17 8q16 22 18 25l7.5 15.5t8.5 18.5l6 14l9 35l5 27v9q0 6 -6 2l-2 -2q-12 -11 -17 -27q-6 -21 -16 -36q-9 -17 -23 -36q-7 -10 -23 -42q-2 -4 -1 -8zM201 310h-3q-17 -5 -27 -15
l-14 -12q-5 -3 -8 -8q-7 -8 -19 -24l-16 -24l-2 -4l4 -2q19 -3 41 2q11 3 17 13q18 24 28 63q0 9 -1 11z" />
    <glyph glyph-name="o_o" unicode="oo" horiz-adv-x="550" 
d="M562 226l-1 -12l-9 -5q-6 -4 -9 -7q-5 -6 -15 -11q-8 -3 -30 -16l-4 -5q-3 -5 -11 -7l-10 -3q-15 -6 -24 -2h-2q-11 3 -15 -7q-8 -17 -8 -21q-1 -5 -8 -14q-2 -2 -4 -4.5t-5 -5t-5 -4.5l-10 -8q-1 -2 -5 -4q-6 -2 -15 -11l-7 -3q-1 -1 -3 -1q-3 -1 -7.5 -4t-7.5 -3
q-11 0 -17 -1q-2 -1 -10 -1q-17 0 -30 4q-27 10 -43 31q-12 17 -11 37q0 28 5 45v6l-3 1l-6 -2q-16 -7 -29 -4q-6 1 -7 -5l-2 -6q-3 -6 -3 -19q1 -9 -6 -22q-5 -7 -13 -23q-7 -12 -25 -32q-12 -14 -21 -18q-31 -18 -39 -19q-1 0 -20 -3q-21 0 -37 4q-15 5 -24 16
q-12 15 -18 33q-3 9 -3 18q0 2 -0.5 5t-1.5 6.5t-1 5.5q0 3 -2 3q-3 2 -3 8q0 36 13 61q16 32 28 46q24 30 44 45l13 12l21 12q9 4 24 -3q2 -1 14 -8l7 -5q7 -4 14 -11q10 -6 15 -8q8 -3 22 -11q16 -8 14 -25q-2 -10 -2 -14q-1 -1 -1 -3q0 -3 -0.5 -9t-0.5 -8q3 -4 8 -2
l20 4q15 4 19 5q7 1 12 9q4 6 28 33q2 3 17 15q3 2 28 12q4 1 8 -2l20 -12l22 -15q4 2 9 7l5 4q5 5 10 2l21 -11q17 -9 20 -29q4 -15 1 -34v-10h7q25 4 59 18q16 7 46 25zM129 240l-5 -8l-16 -34l-13 -22q-4 -8 -7 -12l-16 -29q-12 -20 -5 -47q4 -9 9 -13q4 -4 8 -1q3 1 9 5
q18 13 28 31q4 7 23 33q17 20 25 37q5 11 3.5 13t-9.5 7q-12 8 -16 14q-13 18 -14 21q0 1 -1 2zM413 169l-7 5q-12 7 -18 17q-9 14 -11 23q-3 8 -9 3q-11 -8 -13 -9q-7 -4 -11 -11l-3 -3q-6 -4 -8 -7q-6 -4 -9 -11q-2 -2 -4 -7t-2 -6q-4 -13 -5 -16q-2 -28 0 -37
q2 -16 18 -11l2 1q32 16 45 28q9 6 16 13l15 19q4 4 4 9zM400 230q-9 -4 -7 -18q0 -3 1 -5q3 -22 24 -26q7 -2 11 4l6 14q6 11 4 25q-1 6 -5 13l-12 12q-13 11 -24 -2q-4 -3 -2 -8q2 -6 4 -9zM162 246v-9q0 -16 1 -19q3 -8 12 -11q5 -2 7 3q4 16 4 24l-4 19l-3 4
q-3 5 -8 4.5t-7 -6.5t-2 -9zM249 160l-1.5 -1.5t-0.5 -1.5q-4 -13 -4 -30v-3q2 -6 4 -14q0 -4 4 -3q0 8 -1 11q3 -2 3 -4q0 -7 6 -19l3 -4h2q1 1 1 2q0 3 -1 4q-3 4 -5 15q0 2 -2 6q-6 12 -6 25v11zM249 187q-8 -9 -9 -19q0 -6 -2 -20v-4q0 -4 3 -2l4 23q0 2 2.5 9.5
t1.5 12.5zM276 152q8 3 2 18h-1q-2 -4 -2 -5q0 -11 1 -13zM316 191l-6 -15q3 1 8 11q2 5 1 7h-1q-2 -2 -2 -3zM308 149l-2 2l-1 1q-3 0 -3 -2l1 -3q1 0 5 2zM304 159q3 1 3 5v1h-2q-2 -2 -1 -6zM326 209h-1l-3 -4l1 -1q3 0 3 3v2zM288 168q-2 -2 -2 -3l1 -1q1 0 1 0.5t1 0.5
q0 1 -1 3zM265 107q-2 0 -2 -1q-1 -1 -0.5 -2t1.5 -1h2v3zM304 199l-1 1v-1h1z" />
    <glyph glyph-name="t_t" unicode="tt" horiz-adv-x="479" 
d="M480 223q2 -1 3 4q6 6 10 -2q3 -6 -2 -16q-35 -52 -33 -57q1 -5 -2 -10q-1 -2 -6.5 -10t-7.5 -13q0 -2 -3 -5q-9 -7 -11 -14q-7 -9 -6 -14q-1 -1 -2.5 -3.5t-2.5 -3.5q-2 -2 -17.5 -18.5t-20.5 -19.5q-28 -17 -32 -20q-5 -3 -27.5 -8t-25.5 -6q-8 -3 -25 -3q-3 0 -5 1
l-29 15q0 2 -0.5 4t-0.5 4q-1 2 -5 6q-5 9 -19 25q-1 -1 -0.5 -4.5t-0.5 -5.5l-12 27q-14 -9 -23 -20q-20 -14 -22 -15q-16 -9 -21 -14q-3 -3 -5 -4q-16 -5 -41 -1q-4 0 -6 2q-1 0 -3 0.5t-4 0.5q-6 1 -30 18q-7 4 -12 13q-5 4 -4 10q0 3 -2 5l-3.5 10t-4.5 10q-8 19 -11 45
q-7 32 -8 60v15q0 1 1 28t-1 29v20q1 10 16 65q5 28 16 67l2 8t2 8.5t2 7.5h-3l-1 1q-5 1 -15 1q-4 -1 -16 2q-1 0 -12.5 3t-18.5 4q-15 4 -28 20q-4 3 -6 13q-3 14 0 29q4 -2 5 -5q2 -5 7 -5q1 0 17 -2t24 -1q10 1 56 -1h10l2 1q1 4 8 22t10 28q1 2 3 6.5t3 7.5
q20 39 45 78q16 20 28 24q4 2 29 12q9 4 24 -2q9 -4 11 -5q7 -5 8 -12q0 -3 3 -12v-5v-32l-3 -6q-4 -8 -3 -13q1 -7 -4 -14q-2 -2 -5 -8q-3 -21 -9 -42v-3q-2 -19 -9 -35v-4q3 -2 10 -2q2 0 5.5 -1t6.5 -1.5t6 -0.5q9 0 13 2q6 2 10 -2q3 -1 6 -1.5t7 -1t6 -0.5q3 0 6 5
l12 22q13 25 30 49l6 9l6 9q6 7 8 7t10 -6q2 -1 6 -4t6 -4q2 -2 5 -5.5t4 -5.5q5 -3 5 -10q0 -6 2 -16q1 -4 1 -14q-1 -5 -3.5 -16.5t-3.5 -17.5q-2 -10 -2 -11q7 -4 15 -4h12h15q8 2 16 0q33 -3 34 -3q5 0 17 -0.5t17 -0.5q8 0 23 -0.5t22 -0.5q2 0 8 -0.5t8 -0.5
q10 -2 34 -4q2 0 3 -1q2 0 2 -3q0 -2 -1 -4q-8 -5 -11 -5q-2 0 -4 -5q-2 -3 -7 -6.5t-6 -4.5q-2 -1 -9 -1q-24 0 -27 1q-7 0 -9 -1q-8 -3 -23 -3t-23 -1q-20 -5 -47 0q-5 1 -15 1q-2 1 -7 1q-9 4 -27 6t-21 2q-3 -4 -3 -5q-15 -37 -19 -49q0 -1 -1 -2.5t-1.5 -3t-0.5 -3.5
q-4 -12 -13 -29q0 -1 -1.5 -5.5t-2.5 -6t-3 -1.5q-12 2 -20 -75q-12 -33 -16 -60q-1 -3 -1 -8.5t-1 -8.5q-4 -5 -8 -20v-6q-4 -5 -4.5 -16.5t-0.5 -13.5q0 -5 1 -6q2 -1 4 -13q0 -10 1 -15q0 -7 7 -14q2 -1 7 -6t8 -6q7 -4 13 -4q21 0 33 6q4 3 9 3q11 4 39 22.5t35 28.5
q2 2 6 7t6 7q1 1 2 3t2 3q3 4 6 8.5l6.5 10l5.5 8.5q11 12 33 57v2zM197 261q-3 -1 -5 -21t-2 -27q-1 -5 -8 -31q-1 6 1 16q1 2 2.5 7t1.5 8q2 10 9.5 45l14.5 65t13 43v1q1 4 10.5 31.5t15.5 41.5q1 1 1 8q-2 0 -4 0.5t-3 0.5q-11 3 -35 -1q-3 -1 -6 -1.5t-6.5 -1
t-5.5 -0.5q-2 -1 -7 -1.5t-7 -0.5q-9 0 -14 -12q-1 -1 -2 -4t-1 -4q-12 -19 -13 -21q-2 -2 -7.5 -12t-9.5 -13q-9 -9 -13 -23q-3 -13 -8 -31q-16 -34 -19 -58q0 -28 -5 -48q-1 -4 -4 -20q-1 -5 -1 -29q-2 -20 4 -38q9 -30 14 -39q7 -15 18 -20q1 0 4.5 -1.5t5.5 -2.5
q4 -3 11 -1q13 2 20 10q19 19 24 26q8 10 10 15q0 3 -0.5 9.5t-1.5 9.5q0 10 -1 15q-2 24 1 41q2 13 8 69q1 2 1 3v1l-1 -1v-3zM161 498h2l1 2v2q3 4 7 12t7 12q3 6 4 9q3 5 7.5 17t7.5 18q1 2 2 4.5t1 3.5q2 6 5.5 20t5.5 20q1 4 1 35q0 4 -2.5 5.5t-4.5 -0.5l-6 -6
q-2 -2 -25 -49q-4 -13 -6 -27q-4 -31 -6 -64q-1 -5 -1 -14zM204 71v-1v1z" />
    <glyph glyph-name="a_a" unicode="aa" horiz-adv-x="737" 
d="M109 267q-3 5 -6 -1l-5 -5q-8 -12 -10 -14q-14 -16 -25 -40q-8 -18 -14 -25q-3 -4 -3 -9l2 -1q1 0 2 -1q-4 -11 -2 -16q2 3 4.5 9t3.5 8q2 0 1 -1q0 -11 -4 -29q3 0 10 5l25 26l46 52q11 11 12 22q1 3 3.5 14t3.5 18q2 6 1 9l2 2q3 1 4 0q26 -3 30 -5q28 -15 38 -33
q2 -5 4 -13q2 -4 2 -8q2 -3 -1 -6q0 -5 -4 -15q-2 -8 -1 -12q0 -4 -1 -6q-1 -7 -4 -13q-4 -6 -6 -19q-2 -3 -1 -4q2 -3 2 -4t-1.5 -4.5t-1.5 -4.5q-4 -24 -4 -36q0 -2 1 -4v-2q2 -2 4 -10q2 -6 7 -8q12 -4 31.5 1t32.5 14q32 19 61 55q24 30 40 53q2 2 2 3q5 16 8 22
q9 17 17 28l6 14q7 5 8 5q7 11 39 50q17 18 38 31q4 2 9 2q12 2 19 2h3q3 -2 11 -3t10 -2q4 -2 6 -2q9 -2 11 -5l2 -1q3 0 7 -2.5t7 -2.5t5 -2q16 -16 17 -18l3 -8q3 -13 -9 -20q-9 -4 -25 -16v-1q-31 -31 -33 -34l-12 -13q-4 -4 -24 -32l-10 -14q-2 -2 -4 -6
q-9 -17 -12 -33v-4l4 3q17 17 33 29q10 8 15 17l8 9q12 14 17 22l21 34q15 2 22 -7l6 -6q7 -9 9 -29q0 -1 -2 -5l-14 -28q-4 -11 -3 -21q3 -14 9 -25q3 -5 9 -5q14 2 21 5q16 8 19 10l22 13l16 14q7 6 23.5 29t22.5 30l3 2q8 -1 17 -10q-1 -6 -6.5 -19t-9.5 -16
q-2 -1 -3.5 -3t-2.5 -2l-11 -13q-6 -5 -6 -7q-3 -7 -12 -12q-4 -2 -5 -4q-3 -4 -10.5 -10.5t-9.5 -8.5q-8 -7 -19 -10q-2 -1 -11 -2t-14 -3q-4 -2 -12.5 -3t-10.5 -2h-9q-28 9 -34 14l-5 3q-17 7 -24 17q-14 -7 -21 -13l-11 -7l-2 -1q-4 -5 -22 -12q-23 -7 -41 3q-5 3 -15 7
q-38 14 -47 54l-1 -2l-1 -3q-1 -1 -13 -22q-2 -3 -6 -15.5t-8 -15.5q-1 -1 -4 -3.5t-5 -4.5t-4 -5q-3 -5 -8 -8q-7 -4 -31 -25q-2 -1 -4 -5t-3 -5q-18 -16 -24 -19q-2 0 -4 -2q-2 -3 -4.5 -4.5t-4 -1.5t-4.5 -0.5t-5 -1.5q-14 -3 -41.5 1t-38.5 11l-6 3q-6 4 -7 7q0 3 -6 12
l-1 -1q0 -4 1 -6h-2q-7 12 -7 13q-10 22 -12 38q0 5 -2 14t-2 10q-2 16 0 33q0 1 -0.5 5t-0.5 6q-1 -1 -2.5 -1.5t-2.5 -1.5l-14.5 -14l-17.5 -17q-1 0 -3 -2q-12 -19 -21 -29q-6 -7 -6 -16q0 -1 2 0t3 1q0 -6 -4 -10l-11 7q-5 2 -9 -2q-16 -13 -35 0q-7 5 -18 23q-3 3 -3 6
q-4 3 -4 9q-1 1 -1 3q-6 21 -3 50v3t-1 3q0 6 4 10q5 2 5 14l-3 -4l-4 -11q0 2 -1 3v2l6 28q1 4 3 10t2 9l5 10q20 44 47 79q23 32 75 84q7 6 22.5 17.5t22.5 18.5q6 2 10 -1q14 -14 19 -17q2 -1 4.5 -3.5t4.5 -3.5q2 -7 7 -8q1 -1 2 -3l1 -1q16 -22 22 -35q0 -6 7 -15
q2 -6 1 -11q-1 0 -4 -3q-8 -10 -17 -5q-1 1 -6 -1q-7 -4 -10 4q-19 -6 -24 -12l-5 -4q-5 -3 -27 -20l-13.5 -13.5t-15.5 -18.5l-1 -1q-1 -2 -1 -3q1 -2 3 0q6 6 8 11q10 11 18 16q3 -1 0 -4q-7 -7 -15 -19q-30 -35 -31 -37q-3 -6 -8 -11q-2 -7 -5 -10q-8 -7 -22 -35l-5 -10
q-2 -5 -3 -5q0 1 2 7q8 23 22 42q10 18 21 32q2 3 5 5zM13 262q-5 2 -8 -6v-1v-6q0 -2 -4 -14q-9 -20 -9 -29q1 -1 -1 -5q-5 -23 -5 -26t1 -3l8 31l7.5 23.5t11.5 31.5q3 4 4 9q2 11 7 15q1 1 1 3q2 8 6 14q2 2 2 4l6 9l29 40q4 4 3 6q-5 -2 -9 -7q-1 -5 -6 -9l-19 -28
l-18 -28l-3 -7q-6 -6 -7 -14zM114 274q2 5 0 5q-5 -5 -5 -10zM59 348l1 1v3q-2 0 -2 -2q0 -1 1 -2zM36 318h-1q-1 -1 -1 -2zM4 254l1 -1v2z" />
    <glyph glyph-name="s_s" unicode="ss" horiz-adv-x="536" 
d="M-40 -10q-8 -4 -11 -4q-11 -2 -18 -12q-5 -7 -12 -10q-9 -5 -13 -11q-4 -13 -6 -15q-4 -9 0 -13q3 -6 9 -16q4 -6 11 -2q1 1 13 8l8 5.5t7 4.5q16 8 27 22q4 4 5 6q10 11 17 23q4 5 7.5 14.5t5.5 12.5q2 0 2 3q4 21 -22 5q-7 -4 -20 -14q-8 -5 -10 -7zM-52 -123
q4 4 7.5 7l8 7t7.5 6q-4 1 -14 -3v3l-2 3l-3 -1q-3 -1 -4 -2q-4 -2 -17 -4q-2 -1 -7 2q1 1 3 5q-1 0 -4 -0.5t-4 -0.5q-2 -2 -5 -2q-12 -4 -15 8q-2 15 -4 18q-3 7 -3 30q2 9 6 15q8 16 24 32q30 28 63 48q30 19 35.5 33.5t-1.5 36.5q-1 22 -13 62q0 1 -1.5 5t-1.5 6
q-5 11 -7.5 52.5t0.5 55.5q1 1 2 3.5t2 3.5q2 10 9 17q6 9 4 13q2 3 5 8.5t5 7.5l2.5 2.5t2 3t2 3t2.5 3.5l7 8q0 1 5.5 6.5t7.5 9.5q4 5 18 17q1 1 4 3q5 2 7 5q5 5 8 3q10 -7 15 -15l2 -2q6 -4 11 -25.5t4 -32.5q-2 -5 0 -8q-2 -12 -5 -17q-10 -19 -13 -24q-5 -7 -9 -7
q-5 -2 -10 -8q0 -1 -3 -4t-3 -6q0 -2 -1 -3q-6 -6 -11 -14q-12 -18 -8 -35q2 -8 7 -15t11.5 -33t10.5 -32q2 -3 3 -11t2 -10q3 -6 8.5 -6.5t16 5t20 11.5t21 12t18.5 8q71 52 97 81l-2 17.5t-1.5 14.5t-0.5 14q0 4 -1 12.5t-1 12.5q-2 21 5 52q6 20 18 33q25 25 45 39
q8 5 14 6q10 0 14 -4q6 -6 20 -6h14q18 -1 30 -13t15 -28q2 -7 0 -15q-3 -11 -10 -21l-9 -13t-12 -15q-15 -18 -34 -31q-2 0 -10 -6q-5 -5 -15.5 -12.5l-14.5 -10.5q2 -14 16.5 -44.5t24.5 -42.5q5 -1 12 4q8 3 55 24l32 12q30 10 65 15q2 0 5 0.5t4 0.5l-2 -15
q-12 -1 -60 -20l-33.5 -15.5t-35.5 -15.5q-17 -10 -21 -13q-8 -1 -6 -10q4 -13 6 -15l3 -12q7 -14 9 -40q4 -35 -2 -58q-4 -17 -14 -33q-2 -4 -8 -8q-21 -13 -22 -14q-20 -11 -24 -16l-8 -4q-7 -5 -9 -8q-10 -11 -24 -16q-6 -3 -10 -4q-22 -11 -49 4q-9 5 -22 18
q-7 9 -18 15l-3 2q-12 12 -11 23q12 58 43 89q27 27 52 45q8 8 17 12q6 4 4 12q0 6 -2 10q-11 46 -17 65l-6 -12q-2 -3 -6 -10t-7 -10l-13 -12l-21 -18l-4 -4q-6 -4 -18 -13t-14 -11l-11 -9q-6 -4 -27.5 -16t-37 -23.5t-17.5 -23.5q0 -17 -10 -39q0 -1 -1 -4t-1 -4l-2 -4
q-3 -3 -5 -11t-3 -10q-2 -4 -6 -4l-3 -2l-5 -5t-6 -5.5t-5 -5.5q-8 -11 -48 -38l-10 -8q-2 -2 -21 -8l-3 -2q-10 -7 -20 -7q-1 0 -5 -2zM304 73q-8 -6 -19 -17q-23 -17 -36 -43l-4 -5q-12 -13 -14 -39q-1 -15 13 -16q4 -2 11 2q26 16 37 48q11 25 13 62q0 4 -1 8zM322 296
q2 1 3.5 1.5l3 1t2.5 0.5l33 29q10 7 19 24q7 8 3 22q-3 6 -9 4q-16 -7 -23 -20q-6 -4 -9 -11q-19 -30 -23 -51z" />
    <glyph glyph-name="b_b" unicode="bb" horiz-adv-x="786" 
d="M809 213q0 -16 -4 -16q-36 -34 -72 -43q-9 -2 -19.5 -3.5t-19 -3.5t-20.5 -7q-4 -2 -5 -6q0 -3 -2 -9q-1 -7 -3 -12.5t-5.5 -12t-5.5 -12.5l-1 -2v-2q-7 -15 -21 -28l-18 -15q-10 -5 -11 -5q-1 -2 -3 -2q-5 -4 -23 -9q-17 -2 -23 2q-2 1 -6 1q-7 1 -10 8q-12 10 -9 29
q5 25 23 42q32 28 60 41q9 8 13 18q5 12 7 37q0 16 -13 28q-5 6 -16 6q-18 -2 -31 -13q-12 -11 -26 -28q-7 -12 -12 -16q-2 -2 -8 -14q-1 -5 -4.5 -18.5t-4.5 -20.5v-4.5v-4.5v-3q2 -6 -1 -12q-1 -4 -4 -17q-3 -24 -14 -44q0 -1 -2.5 -4.5t-3.5 -6.5q-4 -4 -10 -4
q-6 -2 -10 -4q-5 -4 -10 -4q-14 -2 -16 -4h-4q-26 4 -32 8q-15 5 -22 22q-3 6 0 12v7q-6 4 -5 10q3 14 -7 32q-4 12 -5 19q-10 47 -10 83q0 -1 -5 -2t-7 -3q-3 -2 -9 -6.5t-9 -6.5q-8 -5 -12 -11q-1 -3 -8 -8q-7 -3 -19 -17q-7 -7 -17 -19.5t-16 -16.5q-10 -8 -16 -17.5
t-10.5 -25.5t-6.5 -21q-5 -13 -6 -14l-1 -2q-2 -6 -3.5 -9t-4.5 -7l-6 -8q-24 -32 -27 -35l-12 -11l-6 -6q-8 -14 -23 -21q-8 -3 -15 -9q-8 -7 -16 -8q-10 -3 -20 -1h-2q-2 2 -21 7q0 1 -0.5 3t-0.5 4q-6 1 -17 14q-10 12 -13 21q12 26 34 50q25 28 58 59l44 39q7 7 10 16
l14 41q8 26 6 59q-2 12 -5 14.5t-14 0.5q-11 -3 -20 -14l-9 -10q-7 -5 -8 -12q-3 -11 -9 -16q-5 -5 -7 -15q-2 -12 -10 -16q-4 -2 -6 -11q0 -9 -7 -19l-3 -9l-4 -11q-4 -13 -16 -13q-4 0 -14 -4l-9 -3h-7q-2 0 -8 -1t-9 -1q-2 0 -4.5 1t-5.5 2.5l-5 2.5q-17 4 -25 24
q-4 13 -5 23q-2 14 -2 22q0 5 2 17l7 40q3 17 13 54q4 7 5 14q4 22 16 50q22 51 45 95q10 18 16 27q2 5 7 13.5t7 12.5q1 2 17 32q1 2 8 14q37 49 60 75l9 11q5 5 7 5q1 0 4.5 2t5.5 3t4 0q1 -1 16 -13t17 -12l20 -16q4 -5 13.5 -22.5t13.5 -22.5q6 -11 -3 -39
q-1 -2 -5.5 3.5l-9 11t-5.5 3.5q-3 -6 -5 -6.5t-5 -7.5q0 -1 -5.5 -6.5t-11.5 -10.5l-7 -6q-7 -13 -27 -31l-12 -15q-3 -3 -8 -10.5t-8 -10.5t-7 -10t-6 -9q-18 -24 -22 -33q-1 -1 -12 -18t-13 -25q-3 -10 -8 -17q-3 -5 -7 -17l-15 -37q-3 -4 -6.5 -26t-5.5 -24q0 -1 -1 -5
q-10 -43 -1 -43q3 0 7 3l8 12.5t8 11.5q22 32 34 48q6 10 19 19q7 6 16 6h5q24 3 41 -19l12 -15q6 -10 9 -23.5t4 -22.5t3.5 -15.5t8.5 -5t18 11.5q19 17 66 46l20 11q3 51 21 102q7 27 28 65q6 14 16 32l14 22l25 33q0 1 4.5 6.5t5.5 9.5q4 9 23 33q6 8 18 14q3 1 10 6
t12 7q8 8 11 9q28 16 60 4q28 -9 35 -15q8 -5 9 -7q12 -12 17 -24q4 -7 4 -15t-2 -12q-4 -7 -3 -16q2 -16 -9 -28q-2 -2 -9.5 -11.5t-12.5 -14.5q-2 -1 -6 -5q-4 -6 -13 -11q-4 -2 -11 -11q-14 -21 -34 -40l-13 -10q-6 -3 -14 -13q-3 -2 -9 -8.5t-10 -8.5l-6 -6l-28 -21
q-5 -4 -7 -10q-12 -31 -15 -72q-3 -18 3 -67q0 -2 1 -4l3 3q2 4 5.5 14t5.5 15l6 11q20 29 43 48q16 11 30 13q24 4 42 1q17 -3 33 -17q3 -4 11 -12q9 -11 9 -13q6 -24 6 -31q3 -4 18 -3.5t23 2.5q38 7 60 24q1 3 10 11t12 8t5 1t3 1h2t2.5 -1t3.5 -4zM615 521q-6 -2 -8 -12
q0 -4 -5 -9q-4 -2 -11 -11q-12 -26 -12 -28q-3 -9 -17 -30q-5 -4 -7 -12q-4 -12 -8 -17l-5 -7q-3 -6 -9 -14t-10 -15q-9 -21 0 -17q4 1 30 25q27 30 28 31q17 21 37 60q10 19 10 39q0 4 -1 7q-6 7 -12 10zM83 -20q15 8 29 30l6 10q2 3 7 8t7 9q8 11 16 25q4 8 -2 7
q-11 -1 -18 -11q-4 -6 -12.5 -14.5t-13.5 -15.5l-5 -5l-13.5 -14t-15.5 -15l-2 -2q-15 -12 -10 -18q4 -5 27 6zM543 46q2 0 4 2l36 33q17 15 24 34q0 3 1 5q-2 0 -4.5 -0.5t-3.5 -0.5l-10 -4q-31 -14 -40 -28q0 -2 -2 -4q-11 -9 -8 -33l1 -2z" />
    <glyph glyph-name="d_d" unicode="dd" horiz-adv-x="817" 
d="M652 321l3 6l12 49l5 20l14 41q9 33 13 43l17 48l25 60q4 7 5 14q3 1 8 1q26 -7 50 -26q16 -12 21 -35q3 -11 -2 -23q-2 -6 -7.5 -17t-7.5 -17l-6 -13q-5 -9 -10 -22l-13 -40q-4 -15 -5 -20q-1 -8 -7 -22q-8 -22 -10 -34q0 -2 -1 -6q-2 -2 -2 -4q-1 -6 -4 -16t-4 -15
q-2 -11 -10 -33q-9 -23 -11 -29l-3 -9q-4 -15 -14 -34l-3 -6q-2 -8 -6.5 -22t-5.5 -22l-9 -31l-6 -30l-1 -1q0 -9 -1 -24.5t-1.5 -28t-0.5 -24.5q2 -14 -3 -24v-5q0 -10 2 -15q1 -2 -1 -4.5t-1 -4.5q2 -6 2 -9v-9q-1 -2 -2.5 -0.5t-2.5 1.5l-3 -3q-3 -4 -6 -3l-7 -7
q-3 1 -4 4q-20 32 -21 69q0 4 -1 11t-1 11q-3 32 -2 57q1 14 1 42q0 1 -1 2q-1 3 -1 5q-1 -2 -2 -3l-1 -2q-1 -2 -1 -6q-2 -15 -6 -21q-1 0 -3 -5q-2 -7 -6 -11l-13 -15l-8 -9q-5 -6 -14 -10q-20 -7 -30 -14q-9 -5 -18 -3q-20 4 -29 8q-13 4 -21 17q-11 16 -14 32l-6 31
q-1 4 -1 14q-6 -8 -8 -13v-15l-9 -11q-15 -20 -19 -41q-3 -2 -3 -3l-14 -19q-4 -4 -6 -11q-4 -12 -12 -25l-12 -17q-12 -14 -20 -19q-2 -2 -21 -16q-5 -2 -15.5 -8.5t-17.5 -9.5l-2 -2q-1 -3 -2 -4q-14 0 -27 5q-5 2 -11.5 4t-9 3.5t-7 5.5t-10.5 11q-17 12 -34 41
q-13 29 -14 35q-2 5 -3 5q-4 5 -4 14q1 4 -1.5 12.5t-2.5 10.5q-4 18 -5 28q-2 10 -1 16q0 1 -1.5 2.5t-1.5 2.5l-6 -6q-7 -8 -10 -21q-6 -28 -31 -35q-10 -4 -13 -7q-10 -10 -26 -6q-25 6 -38 14q-25 13 -38 41q-9 17 -8 35q0 3 -2 11v11q0 27 3 39q13 51 23 69
q26 44 46 64q28 31 72 45q2 1 18 4q2 0 8 -2l17 -7q22 -30 30 0q2 6 4 21q5 28 10 37l5 13q3 6 7 20q8 18 11 27q1 3 6 16l23 44q14 22 23 31q14 11 26 23l12 9q14 8 25 16q16 12 39 0q5 -3 12.5 -9.5t12.5 -9.5q2 -2 4 -8q2 -26 1 -33l-3 -22q0 -17 -5 -25q-1 -1 -1 -3v-3
q-2 -10 -6 -17q-6 -9 -13 -24q-6 -16 -10 -24q-4 -13 -5 -17q-5 -15 -12 -25q-11 -11 -16 -27q-4 -11 -15 -18q-10 -10 -13 -16q-4 -14 -23 -37q-4 -6 -5 -12.5t-3 -10.5q-4 -3 -6 -11q-4 -15 -5 -25t-6 -24q1 -3 0 -9.5t-1 -9.5q2 -3 -2 -7v-15q2 -7 0 -20v-26q0 -3 1 -4
q2 -4 2 -10v-8q1 -14 9 -40q4 -3 6 -10q4 -6 3 -9q-1 -7 5 -13q7 -14 28 -33l-8 -3q13 -8 15 -8q0 3 2 5q7 1 11.5 2.5t7 3t5.5 3.5t6 3q1 1 2.5 2t2.5 2.5t2 2.5q5 7 4 9q-1 1 4 9q6 13 13 22q5 7 11.5 26t15.5 37q17 24 40 66q3 8 11 24q13 28 16 34q9 20 14 26q1 1 2.5 5
t3.5 6l19 28q2 4 8 9.5t8 7.5q7 9 16 16l5 5q7 3 12 2q8 -3 25 -1q5 1 17 1t23 -8q2 -2 13 -9zM318 345q19 33 20 34q20 27 24 35q9 21 24 50q3 8 3 15q0 9 2 13q10 23 12 75q0 6 -2 18q-5 12 -15 6l-6 -6q-1 -4 -15 -23q0 -1 -1 -3q-2 -4 -2 -6q1 -8 -6 -19q-4 -10 -13 -19
q-7 -4 -7 -11q1 -7 -2 -17q-6 -14 -7 -21q-2 -9 -10.5 -31.5t-10.5 -35.5q-1 -6 -5 -19q-12 -50 -3 -50q6 0 20 15zM551 65q1 1 3 1l6 8q32 47 42 65q10 17 26 53q1 2 2 8t3 9q1 1 1 4q0 1 1.5 14.5t1.5 20.5q-1 2 1 7q2 7 3 20.5t2 17.5q0 1 -1 2l-1 1h-2q-8 4 -12 -4
q-4 -5 -10 -15l-7 -14q-3 -6 -5 -18t-3 -14q-4 -21 -12 -29q-2 -4 -2 -6q-2 -4 -7 -20q-2 -7 -8 -19q-5 -13 -6 -14q-12 -28 -16 -50q-3 -13 0 -28zM127 205q-3 -3 -23 -41l-5 -9l-14 -28q-8 -34 4 -56q0 -1 3 -4q6 2 18 14q4 4 8.5 9l10 11.5t8.5 9.5q9 9 15 21q0 1 0.5 3
t0.5 3l2 20q-1 10 0 21q16 51 1 55q-10 3 -29 -29zM227 -42h-9v4l-3 3l-2 -1q0 -2 3 -3l1 -2l4 -8q19 -22 39 -28q1 -1 8 -1l-7 7l-37 28l1 1h2zM306 -12v4l-8 8q-4 11 -15 22q-2 2 -5 1l10.5 -14l11.5 -15q0 -2 6 -6zM287 42q-2 8 -7 19q-8 17 -10 18q3 -15 15 -34
q0 -3 2 -3zM314 -3q0 3 -4 0q5 -3 7 -7l-1 3q0 3 -2 4zM270 12h2l-1 1q-1 1 -1 2l-1 -1q1 -1 1 -2zM289 39l-2 3q1 -2 0 -3h2zM253 -59v1q-1 0 -1 -1h1zM264 28l-1 1h-2q2 -1 3 -1zM266 22l-1 -1h1v1z" />
    <glyph glyph-name=".notdef" horiz-adv-x="250" 
 />
    <glyph glyph-name=".null" horiz-adv-x="0" 
 />
    <glyph glyph-name="nonmarkingreturn" horiz-adv-x="333" 
 />
    <glyph glyph-name="space" unicode=" " horiz-adv-x="250" 
 />
    <glyph glyph-name="exclam" unicode="!" horiz-adv-x="341" 
d="M82 59q-1 3 -3 7.5t-3 7.5q-16 72 -15 123q1 7 2.5 22t1.5 22q0 9 3.5 26.5t3.5 26.5v21v7l40 149l9 33l9 33l31 92q3 7 10 7l20.5 -3t18.5 -2q4 -1 23 -10q21 -12 32 -27q9 -12 5 -24q-2 -4 -9.5 -30t-13.5 -39q-8 -18 -26 -66q-7 -14 -16 -29q-1 -6 -5 -11
q-4 -16 -10 -21q-2 -1 -4 -5t-3 -5l-9 -18t-10 -22l-6.5 -13t-6.5 -12l-1 -3q-5 -23 -15 -37q-2 -11 -10 -36.5t-9 -40.5q-1 -9 -3.5 -25.5t-3.5 -20.5q-1 -1 -2 -5t-1 -5q-2 -3 -4 -11q-3 -12 -12 -20q-7 -3 -7 -14q1 -3 1.5 -10.5t0.5 -10.5h-1zM68 -20q5 37 5 42
q2 13 11 17q6 3 8 1q2 -1 18 -1q3 0 7.5 -1t6.5 -1q11 -1 15 -16q4 -22 -12 -51q-13 -19 -35 -25q-2 0 -5 -3q-10 -6 -12 5q-2 8 -7 33z" />
    <glyph glyph-name="quotedbl" unicode="&#x22;" horiz-adv-x="221" 
d="M55 501q-3 -4 -9 -10q0 4 3 6q8 16 11 19q2 4 5 7q6 6 7 12q1 5 8 12t10 0q4 -3 28 -13q12 -7 23 -19q7 -8 5 -22q0 -7 -2 -8q-7 -11 -38 -42q-4 -3 -11.5 -9.5t-10.5 -10.5q-7 -3 -7 -4q-1 -1 -4 -1q-2 -6 -14 -8q-10 -4 -13 -8q-11 -10 -23 -7q-2 0 -10 -2q-7 2 -4 12
q0 3 1.5 9t1.5 8q4 -4 6 -4q1 3 17 43q8 13 21 39q-1 0 -1 1zM262 486q0 -9 -6 -12q0 -3 -2 -3q-3 -5 -11 -12t-10 -10q-2 -2 -6 -8q-3 -4 -11 -12q-10 -8 -11 -11q-4 -6 -10 -8l-38 -23q-9 -4 -14 -3q-5 2 -13 2q-6 0 -6 4q-2 6 2 9q2 0 2 6q1 3 4 11t4 12q3 6 8 7
q6 2 6 11q0 6 4 10l15 27l14 25l4 8t5 8q6 7 13 3q2 0 2 -3q4 -5 17 -5q2 0 17 -6q3 -2 8 -7t7 -6q6 -5 6 -14z" />
    <glyph glyph-name="numbersign" unicode="#" horiz-adv-x="523" 
d="M251 119l-5.5 -16.5t-4.5 -14.5q-1 -2 -3.5 -12t-3.5 -15q1 0 2 -1q13 34 14 38q16 42 22 63l-1 1q-1 0 -2.5 -2t-3.5 -3l-1 1q2 5 6.5 15t7.5 15q-4 1 -12 2.5t-11 1.5l-69 3q-12 0 -18 -13l-29 -60q-13 -28 -27 -37l-10.5 -5t-8.5 -4q-4 -2 -13 -5q1 1 -4 5
q-3 -3 -5 -4q-9 0 -9 26q1 0 3 -2q1 15 5 29.5t11.5 35t9.5 28.5q-4 2 -6 2q-15 0 -23 -1q-13 -2 -20 5q-11 11 -12 22q4 5 12 2q13 -3 50 -1q11 0 17 14q4 11 12 31l11 28l2 6q-1 5 -8 5l-40 -3l-52 -3q-3 0 -15 3q0 9 6 9q56 9 87 16q10 1 28 3q11 0 17 14l24 49
q6 9 16 28.5l15 29.5q4 12 16 7q8 -6 11 -7q15 -6 31 -31q3 -6 3 -9q2 -45 -10 -66q0 -1 -1.5 -3t-2.5 -3q0 -1 1 -4q1 0 3 -0.5t3 -0.5q11 0 34 1.5t35 2.5q14 0 19 18q0 3 11 22q3 5 15 30q14 38 36 77q5 8 9 2q3 -3 8.5 -8t6.5 -6q3 -4 9 -10q6 -8 3 -18
q-1 -7 -3.5 -22.5t-4.5 -23.5q-8 -30 -15 -43q-1 -1 -5 -10q3 0 7 -0.5t6 -0.5q26 2 38 2q22 2 40 -5l-9 -6t-7 -5q2 -1 3.5 -1.5l3 -1t2.5 -0.5q-10 -10 -22 -12q-7 -1 -20 -1.5t-20 -0.5q-22 -2 -32 -3q-5 0 -6 -2q-3 -3 -9 -1q-1 -1 -1 -3t-1 -3q-3 -4 -6 -12t-5 -11
q-4 -8 -4 -16q-3 -15 -8 -23q-4 -5 -3.5 -9.5t5.5 -5.5h6.5t6.5 -1q4 0 8.5 -1t10 -2.5t8.5 -2.5q-4 -11 -5 -12q-1 -7 -6 -7q-9 -2 -31 -4h-20q-1 -4 -3 -10q-7 -8 -10 -7q-2 0 -5 -5q4 -6 3 -7q0 -3 -4 -9q-2 -2 -5 -4t-5.5 -4.5t-3.5 -6.5q0 -1 -5 -8q-2 -2 -2 -4
q-1 -2 -1.5 -6t-0.5 -6q-2 -4 -5 -3q-5 -7 -10 -16l-17 -44q-1 -8 -8 -15q-4 -2 -8 -9q-20 -25 -36 -19q-2 1 -5 0t-5 -1q-5 5 -5.5 7.5t3.5 10.5q1 3 2 5.5t1.5 6t1.5 6.5l2 2q9 7 11 25q2 7 7 21t7 21q1 2 3 4v2zM311 262l1 -1q-1 8 4 22.5t5 16.5q-1 0 -4 0.5t-5 0.5
l-66 -3q-11 0 -15 -13q0 -1 -1.5 -2.5t-2.5 -3.5l-28 -45q0 -1 -1 -2t-2.5 -3.5t-2.5 -4.5q5 -1 10 -1l52 -3q15 0 23 -1q12 0 14 12q2 3 6 7l1 -1q-1 -1 -3.5 -5.5t-3.5 -7.5q0 -1 1 -2l6 6q0 -6 -2 -10q3 3 17 28q8 15 13 30q-7 -7 -9 -12q-1 -3 -3 -4t-4 2zM343 183l2 -2
q2 2 2 3v5q0 -1 -1.5 -3t-2.5 -3z" />
    <glyph glyph-name="dollar" unicode="$" horiz-adv-x="459" 
d="M193 0q-3 0 -7.5 1t-6.5 1q-7 -2 -10 -8q-2 -4 -4.5 -8.5t-5 -9.5t-3.5 -8q-7 -11 -10 -13q-3 -1 -6 -9q-10 -20 -16 -29q-7 -15 -20 -12h-13q-3 4 -1 22q7 28 20 63q6 16 7 24q1 9 -7 11q-7 3 -13 7.5t-13 11t-11 9.5q-1 1 -5 4.5t-6 5.5q-6 6 -3 10l-1 2q-7 6 -9 25
q-3 5 0 10q3 9 8 19q8 2 11 -3q1 -3 13 -5q1 0 3 -1q2 0 2 -1q48 -29 55 -34l47 -30q5 0 6 1q-2 1 -4 4t-3 4h5q34 -16 76 -10q22 2 41 14q8 5 10 9t0 13q-6 36 -24 66q-1 2 -4.5 8.5l-5.5 10.5q-14 24 -35 35q-1 0 -6.5 5.5t-9.5 7.5v1h-1q-20 11 -66 48q-24 19 -35 50
q-10 22 -4 46q2 6 2 17q2 30 19 53q24 35 63 58q3 2 16 6q33 14 42 16q7 1 9 11q9 28 25 86q1 2 1.5 6t0.5 6l8 4q8 -5 22 -15q7 -5 9 -23v-8q3 -9 -6 -25q-5 -8 -14 -30q-3 -7 2 -8q11 -2 24 -27q8 -14 20 -44q1 -1 3 -5q14 -9 6 -40q-1 -7 -8 -7q-18 -2 -25 -2
q-1 12 -19 12q-6 0 -17 -1t-17 -1q-3 0 -9 -2t-9 -1q-5 0 -21 -7q-3 -1 -9.5 -4t-9.5 -4q-21 -8 -51 -36q-10 -10 -2 -16q22 -18 34 -26l69 -52q31 -24 57 -72q12 -24 16 -38q1 -4 4 -12t5 -14.5t3 -12.5q0 -2 2 -11.5t2 -14.5q-1 -6 -8 -20q-3 -8 -7 -13q-4 -6 -5 -8
q-2 -1 -3 -2q-15 -24 -59 -40q-17 -6 -51 -4q-21 0 -42 6q-1 0 -7 -3zM61 109q-5 0 -9 -6zM57 118q2 -2 2 -3l2 2v3z" />
    <glyph glyph-name="percent" unicode="%" horiz-adv-x="543" 
d="M285 196q-2 2 -4 2q1 4 2 7.5t4 6t4 3.5t6 3l5 3q1 1 5 -1q4 -3 21.5 -12t26.5 -17q2 -1 6 -5q3 -5 1 -10l-9 -18q16 -19 10 -42q-2 -12 -4 -14q-1 -2 -1 -8.5t-3 -8.5q-2 -2 -2 -7.5t-1 -9.5q-5 -8 -5 -17q-2 -20 -24 -50l-9 -15q-6 -13 -18 -14q-2 0 -6 -2
q-24 -13 -48 -1q-7 4 -18 13.5t-15 12.5q7 3 12 4q-2 18 -2 26q-1 3 1 7v10q-1 -1 -3 -4l-4 -6q1 8 4 26t5 29q-7 -3 -9 -5q-5 -3 -44 -29l-45 -33q-26 -17 -46 -26q-4 -1 -10.5 -6.5t-7.5 -6.5q-4 -3 -10 -9l-18 12q-1 0 -3.5 -1t-3.5 -2q-4 9 1 24t15 26q1 -3 1 -8
q7 0 10 8l29 62q1 2 8 14q10 16 14 26q1 3 5 9t5 8l18.5 33t21.5 40q9 17 16 27q16 24 25 35q2 3 6.5 7t6.5 6q7 6 5 14q-3 10 6 15q4 3 6.5 7.5t5 10.5t4.5 9q-6 -2 -12 -12q-2 -2 -5.5 -7l-5.5 -8l-2 2q1 1 2 3.5t1 3.5q3 3 7.5 10.5t6.5 11.5q3 5 9.5 13.5l9.5 12.5
q10 13 28 39l41 55l40 48q3 4 4 10l-18 -3l-60 -12q-5 -1 -28 -8v-32q0 -2 -0.5 -4t-0.5 -3v-8l3 -15q0 -2 -1.5 -4.5t-1.5 -3.5l-9 -18q-3 -6 -9 -16q-16 -29 -19 -34q-14 -22 -24 -30q-5 -3 -12 -5q-18 -5 -49 3q-2 0 -8 3q-16 12 -24 17q-16 9 -23 33q-7 20 -3 62
q6 50 42 107q12 19 23 30q13 13 20 15q13 4 21 -1q14 -11 42 -31q11 -8 23 -6q92 10 139 8h4q4 1 4 0q9 0 15 9l16 22q6 10 6 16q0 8 8 5q7 -3 13 -8q18 -18 25 -29q12 -16 8 -34q-4 -14 -20 -41q-4 -5 -18.5 -25t-23.5 -30q-4 -5 -12.5 -12.5t-11.5 -10.5q-5 -3 -5 -7
q2 -4 -3 -6q-3 -3 -8 -9t-8 -10q-3 -3 -8.5 -11t-8.5 -12l-43 -55q-2 -2 -5.5 -6t-5.5 -6q-4 -6 -3 -11q0 -8 -8 -10q-5 -3 -6 -5q-5 -8 -14 -24t-12 -20q-2 -4 -8 -12l-12 -18l-1 -1q-3 -5 -19 -29q-3 -4 -7 -12q-8 -19 -22 -36q-5 -5 -14 -21l-23 -45q2 1 4.5 2t3.5 1
l65 44l11 7.5t12 8.5q14 10 20 16t6 11q0 11 8 22q1 1 2.5 4t2.5 4zM323 126l-9 -9l-26 -30q-2 -3 -4 -7q0 -1 -1 -3.5t-2 -3.5q-14 -20 -16 -21q-4 -2 -4 -6q1 -4 -4 -13q-8 -14 -3 -28q7 -2 17 6q1 1 5 5.5t6 6.5q14 11 25 36q10 26 14 39q5 12 2 28zM157 427q1 -1 1 0
q15 18 20 43q-12 -15 -21 -43zM201 212q-4 -1 -8.5 -6.5t-6.5 -6.5l4 -6q8 8 11 19zM170 163q2 0 6.5 5.5t3.5 7.5q0 2 -4 2q-8 -2 -8 -11q0 -2 2 -4zM147 125l6 3q-2 3 4 7q1 1 1 2q1 2 1 3q-11 0 -12 -15zM198 216q2 1 7.5 3.5t7.5 5t3 7.5q-2 -2 -6 -4t-7 -4.5t-5 -7.5z
M110 56q1 1 4.5 4t5 6t1.5 7q-10 -10 -11 -17zM128 91q2 -2 3 -2q3 9 7 17q-5 -2 -10 -15zM251 376q-1 0 -1 0.5t-1 0.5q-9 -8 -8 -15q6 8 10 14zM229 252q-8 1 -8 -4q0 -1 1 -2q1 0 3 2zM247 285q0 -2 2 -2q1 1 2 2.5t2 2.5q0 1 -1 1q-3 -3 -5 -4zM293 342q-2 2 -3 2
q-1 -1 -1 -2l1 -2q1 0 3 2z" />
    <glyph glyph-name="ampersand" unicode="&#x26;" horiz-adv-x="578" 
d="M366 297q0 1 1 -0.5t5.5 -7t13.5 -9.5q39 -21 63 -16q28 7 39 28q1 4 12 -4.5t20.5 -21t8.5 -19.5q-2 -13 -31 -33t-49 -17q-14 1 -38 16q-1 -6 -18 -47t-16 -62q10 -13 24 -45t14 -45l-10 -52q-50 -54 -61 -26q-7 16 3 31q4 6 8 3q9 -6 16.5 1t10.5 15.5t3 10.5
q0 1 -1 10.5t-4.5 19.5t-11.5 20q-3 4 -5.5 6t-4.5 2.5t-5.5 -1t-6 -3.5l-8.5 -7t-12 -9l-40 -40q-1 -3 -20.5 -16t-22.5 -14q-20 -11 -83 -19l-13 -2q-25 -3 -60 15q-45 26 -57 88q-10 67 16 115q17 37 43 64q28 28 54 35q13 4 21 10.5t8 12t-3 9.5q-19 25 -27.5 64
t-2.5 69q10 53 39.5 89t69.5 50q37 14 62 4q6 -2 19.5 -6t19.5 -7q24 -10 34 -38q1 -2 6 -16l6.5 -18t4.5 -16t2.5 -19t-1.5 -17t-5 -19q-15 -36 -29 -56t-24 -24t-20 -5t-17.5 1.5t-15.5 -4.5q-8 -6 -27.5 9t-29 34t0.5 33q24 -20 35.5 -18.5t42.5 26.5q21 18 19 54t-23 51
q-19 12 -39 -1q-2 -2 -17.5 -14.5t-20.5 -18l-15 -16.5t-15 -21.5t-6 -21.5q-5 -30 2 -61q10 -27 40.5 -67.5t39.5 -55.5q2 -1 12 -20q33 -60 51 -59q16 1 27 41q1 5 1.5 23t3.5 26q-3 4 -7 12q-8 24 1 37zM287 143l-12.5 13t-14.5 14.5t-14.5 12t-16 9t-15 2.5t-16.5 -4.5
t-15 -15.5q-29 -44 -41 -77q-15 -42 47 -89l53 1q6 1 30.5 18.5t29.5 20.5q12 11 18 20t2.5 20t-5.5 15.5t-14.5 20t-15.5 19.5z" />
    <glyph glyph-name="quotesingle" unicode="'" horiz-adv-x="174" 
d="M77 364q0 1 -1 3v2q-2 30 12 72q5 19 27 62l9 18q2 5 8 3q15 -3 16 -3q3 0 3 -2q5 0 11 -4q13 -5 17.5 -18.5t-2.5 -23.5l-5.5 -8l-6.5 -9t-6 -7q-11 -12 -23 -19q-2 -2 -7 -5t-7 -5q-5 -5 -11 -13q-2 -6 -14 -25q-4 -6 -9 -7q-7 -3 -8 -9q0 -1 -1 -1z" />
    <glyph glyph-name="parenleft" unicode="(" horiz-adv-x="313" 
d="M130 102q0 -2 -0.5 -7t-0.5 -7q-2 -9 -6 -25q0 -1 -0.5 -3t0.5 -4q1 -5 1.5 -15.5t0.5 -13.5q1 -9 1 -29q1 -6 1.5 -16.5t0.5 -16.5v-11q-1 -3 1 -5q3 -2 3.5 -6.5t0.5 -10.5t1 -9q3 -26 8 -62q5 -32 8 -41q0 -15 -4 -23q0 -1 -5 -17q-11 -5 -19 3q-35 33 -45 86
q-13 58 -18 124q-1 18 0 36q0 17 2 45q3 43 4 51q13 77 16 91q11 71 45 146q39 89 73 146q13 22 61 95q9 11 9 17q0 2 3 5l2 3q19 29 46 56q5 8 12 4q2 -1 4 -3t3 -2q1 -1 10 -3q7 -2 7 -3q16 -25 19 -50q0 -19 -1 -29q0 -2 -8 -18l-36 -49q-26 -33 -48 -66
q-9 -13 -30.5 -46.5l-33.5 -51.5q-2 -7 -7 -12l-3 -6t-4 -6q-8 -6 -12 -20l-11.5 -25.5t-11.5 -24.5l-12 -36q-3 -6 -4 -9q-3 -10 3 -12q-16 -21 -18 -52q0 -5 -2 -14l-2 -8q-2 -18 -5 -27q-2 -3 0 -7q1 0 1 -2v-4q-5 -1 -5 -8q5 2 5 8z" />
    <glyph glyph-name="parenright" unicode=")" horiz-adv-x="327" 
d="M168 122q0 -2 3 -4q-10 -3 -12 -15q-2 -8 -9 -17l-6 -6q-5 -6 -7 -10q-22 -41 -46 -69q-30 -37 -43 -45q2 0 7 -3l-17 -16.5t-25 -18.5q0 -4 1 -7q-6 -5 -32 -22q3 -1 5 -3q0 -1 1 -3q-17 -13 -30 -16t-23 -13q-14 -18 -29 -28q-5 -3 -8 -8q-22 -18 -26 -21
q-1 0 -3.5 -0.5t-3.5 -1.5q-1 6 4 11.5t5 8.5q-5 5 -11 -1q1 2 1 5v5q-2 1 -10 -3l-6 -3q-1 3 -1 8q5 17 15 21q5 2 8.5 6t8 10.5l6.5 9.5q8 14 22 24q11 11 19 24q5 6 15 20q10 11 27.5 34.5t19.5 25.5q3 3 6.5 10t5.5 9l10 13.5t10 14.5q31 47 62 106q26 58 31 72
q3 10 9 21q4 10 1 12q1 3 3 7.5t3 7.5q9 22 7 33l1 3q1 2 1 3q20 66 26 125v3l3 122v8q-3 9 -7.5 25.5l-8.5 30t-8 25.5q-3 7 -8 14q-10 15 -8 25q3 4 11 2q22 -11 30 -29q3 -5 18 -28.5t22 -36.5q35 -56 41 -136q5 -43 -3 -103q-1 -7 -20 -103q-6 -23 -19 -55
q-1 -2 -4 -13.5t-7 -16.5l-6.5 -13t-7.5 -13q-2 -5 -7 -13z" />
    <glyph glyph-name="asterisk" unicode="*" horiz-adv-x="214" 
d="M205 573q2 -1 5.5 -4t4.5 -3q21 -11 34 -27q5 -5 11.5 -15.5t9.5 -13.5q1 -1 1 -6h-5q-4 1 -12 9q-11 10 -26 18q-26 14 -40 19l-4 2q-1 -2 -2 -6.5t-2 -6.5l-4.5 -13l-5.5 -16q-7 -28 -11 -47q-1 -4 -9 -8q-7 -2 -9 5q-2 2 -4 7t-2 6q-2 7 -3 15.5t-1.5 18.5t-1.5 15
q0 6 -1 11q-12 -3 -18 -7q-9 -4 -11 -5q-4 -4 -7 -2q-16 2 -27 -4l-2 1q1 1 2.5 3.5t2.5 3.5q17 25 52 51q1 1 3 2t2.5 2.5t0.5 3.5q0 5 -6 7q-3 2 -13 6.5t-15 7.5q-18 10 -31 23q-7 7 -5 18q5 1 9 -3q1 0 2.5 -1.5t3.5 -2.5l25.5 -11.5l23.5 -10.5q1 0 7 -2q0 2 0.5 5.5
t0.5 4.5q1 10 1 29q2 8 -2 14q-1 3 1 13q12 2 19 -3q2 -2 6 -4.5t6 -3.5q18 -14 26 -28q1 -4 3 -14v-4t1 -5q1 0 3.5 1.5t3.5 1.5l37 16q7 3 8 -4q1 -2 2 -7t1 -7q3 -14 -7 -21q-4 -4 -12.5 -10l-12.5 -9q-1 -1 -3.5 -2.5t-3.5 -2.5z" />
    <glyph glyph-name="plus" unicode="+" horiz-adv-x="461" 
d="M163 280q-2 66 17 105h5q20 -8 29 -13q13 -8 15 -27q2 -21 4 -59q1 -7 7 -8q13 -2 35 -4l82 -12q11 -2 33 -4q1 0 7 -2v-2q-2 0 -5 -0.5t-4 -0.5q-3 -1 -14 -5q-12 -7 -21 -8t-24.5 -1.5t-20.5 -0.5q-22 -2 -34 -2q-2 0 -7.5 -1t-8.5 -2q-5 0 -7 -1q-8 -2 -10 -4.5
t-1 -12.5q5 -37 4 -48q-4 -21 -11 -30q-10 -16 -12 -27q-1 -4 -7 -19q-1 1 -3 2l-2 1q-7 5 -9 4q-1 -1 -6 2q-21 14 -23 45q-1 13 -1 39q-1 9 -1 27q-2 1 -6 1q-22 -3 -66 1q-6 1 -13 0q-2 0 -4 1t-4.5 2.5t-3.5 2.5t-4 3.5t-5 3.5q0 1 -5 13q0 1 -1 4.5t0 5.5q0 3 0.5 8.5
t0.5 9.5q11 -2 30.5 2.5t22.5 4.5q12 1 46 5l2 1h4z" />
    <glyph glyph-name="comma" unicode="," horiz-adv-x="194" 
d="M18 119q8 -1 12 5q8 8 15 4q10 -4 21 -10q7 -4 14 -9q23 -15 10 -51q-1 -2 -3 -5.5t-3.5 -6.5t-2.5 -6l-5 -8q-4 -11 -16 -29q-13 -18 -28 -26q-14 -8 -22 -9h-2q-10 -2 -13 3q-1 3 7 13q4 7 12.5 20t11.5 18q3 2 5 9q1 2 1 7q-1 3 -7 0q-1 -1 -3 -1q-2 2 -6 6.5t-6 6.5
l-6 6q-16 18 -2 37q2 2 5.5 6.5t5.5 6.5q7 6 5 13z" />
    <glyph glyph-name="hyphen" unicode="-" horiz-adv-x="472" 
d="M365 262l1 -3q-2 -17 -25 -21q-55 -6 -59 -6q-15 0 -43 -1t-43 -1q-10 0 -21.5 -0.5t-26 -1.5t-22.5 -1q-2 0 -8 0.5t-9 0.5q-18 1 -39 24q-2 2 -6.5 6t-6.5 6q-7 5 -3 12q3 -1 9.5 -1.5t9.5 -0.5q8 -2 14 -1q52 6 78 7q83 3 181 -12q2 -1 9 -3t10 -3z" />
    <glyph glyph-name="period" unicode="." horiz-adv-x="167" 
d="M95 85q0 -4 -1 -6q-2 -6 -5.5 -18t-7 -21t-8.5 -16t-10 -8q-20 -6 -29 1l-2 1q-12 0 -20 13t-8 28q1 31 24 59q4 4 5 2q40 -8 55 -21q8 -8 7 -14z" />
    <glyph glyph-name="slash" unicode="/" horiz-adv-x="475" 
d="M227 455v-1l3 6l1 3q3 4 26 36.5l36 49.5q42 57 72 82q10 8 46 35q3 4 11 6q12 5 12 -9q1 -9 0 -17q-13 -44 -28 -64l-43 -57l-56 -79l-31 -40q-29 -37 -39 -53q-2 -2 -7.5 -9t-7.5 -11q-36 -54 -46 -66q-13 -15 -29 -42q-4 -6 -14 -17t-14 -15q-3 -4 -8.5 -12l-7.5 -11
q-28 -40 -41 -61l-3 -3q-14 -28 -34 -48q-8 -7 -26 -41q-6 -9 -11 -22q-9 -13 -16 0q-8 11 -13 15q-9 4 -6 14q8 22 10 26q-3 -7 -5 -21q3 1 3 3q21 55 43 77q0 3 2 5q12 18 34 56l6 9t7.5 10t8.5 7q5 2 5 8q-2 9 7 12q2 9 4 11q11 20 25 38h-1q6 8 16 24q7 3 7 11q0 1 1 1
q12 9 19 27q1 2 8 9q12 20 28 44q6 10 8 15l4 -1q1 1 3.5 6.5t4.5 7.5q5 3 11.5 11t9.5 10l-5 5l6 6q10 10 9 15h-2q-2 -1 -3 -1z" />
    <glyph glyph-name="zero" unicode="0" horiz-adv-x="355" 
d="M104 0q-47 0 -74 36q-25 30 -28 78q-2 82 5 113q4 17 18 59t20 56q1 8 4 13q13 49 50 109q15 23 44 49q3 6 12 13q14 14 27 9q6 -1 11 4q1 1 3 2.5t4.5 2.5t3.5 2q2 3 5 3t19.5 2.5t18.5 -2.5h3h4h3q38 7 58 -21q14 -19 22 -36q2 -2 4 -14q0 -5 0.5 -14.5t1 -17.5
t1.5 -15v-3q1 -9 0.5 -13.5t-2 -13.5t-1.5 -14q-2 -7 -4 -33q0 -13 -2 -19q-11 -55 -20 -80q-20 -64 -28 -78q-1 -2 -2 -7t-2 -7l-12 -31q-20 -41 -25 -47q-2 -2 -13 -17.5t-18 -22.5q-3 -2 -7 -7t-6 -6q-17 -19 -49 -26q-8 -2 -24.5 -3.5t-24.5 -2.5zM246 512q1 -1 4 -3
q12 -11 -3 -22q-9 -9 -13 -19q-3 -12 -22 -46q-10 -15 -18 -30q-6 -7 -10 -21q-5 -9 -12 -25t-9 -21q-14 -47 -32 -89q-20 -53 -19 -90q2 -14 2 -43q0 -19 10 -32q1 -1 5.5 -7l6.5 -8.5t7 -6t10 -4.5q12 -4 21 4q17 17 24 29q21 29 32 55q4 12 12 34q1 3 15.5 39t18.5 50
q15 45 20 83q10 50 8 73q0 18 -1 26q-2 32 -8 42q-5 7 -7 13q-10 16 -24 24q-9 6 -18 -5z" />
    <glyph glyph-name="one" unicode="1" horiz-adv-x="281" 
d="M141 382q-1 0 -23 3q-21 1 -37 19q-2 3 -7.5 7t-7.5 6l-7 7q12 10 31 21q48 32 63 44q35 25 96 44q14 6 20 13q1 0 3 2l2 2q10 7 13 -1q3 -9 12 -15q7 -4 4 -18l-9 -21q-20 -42 -24 -58q0 -1 -1 -3.5t-2 -4.5t-1 -4q-21 -34 -18 -61q0 -13 -5 -26q-5 -11 -6 -20
q-10 -34 -13 -39q-6 -12 -19.5 -44.5t-14.5 -40.5q-8 -29 -28 -70q-3 -5 -6.5 -15.5l-4.5 -13.5q-4 -12 -7 -18q-3 -9 -13 -29q8 -3 27 -5t28 -1q2 -1 2.5 -3t0 -5t-0.5 -5q1 -2 3 -5t3 -5q-8 -7 -21 -5q-16 1 -40 -4q-5 -1 -16 -2.5t-16 -2.5q-7 0 -33 -5t-34 -6
q-10 -3 -23 -3q-17 -1 -29 11q-18 18 -24 20q-1 1 -2.5 3t-1.5 3q2 0 6 2.5t6 2.5q24 0 29 -1q12 -2 24 2q0 9 1 13q5 51 7 58q16 70 76 206q4 9 9.5 19l12 22.5t10.5 19.5q2 2 3.5 5.5t2.5 4.5z" />
    <glyph glyph-name="two" unicode="2" horiz-adv-x="323" 
d="M182 11q1 -3 3 -7q-11 0 -41.5 2t-46.5 2q-26 2 -41 1q-15 0 -29 12l-4 4l-5.5 5.5l-4.5 4.5q-9 8 -13 29q0 6 2 9q4 6 14 38l3 6q15 21 30 39l22 25.5l25.5 30l21.5 25.5q25 28 108 158q40 67 40 81q0 16 -35 -7q-25 -15 -53 -59l-8 -16.5t-8 -15.5l-3 -6t-3 -5
q-14 -24 -29 -14q-2 1 -14.5 8.5l-23.5 14.5t-13 9q-6 5 -13.5 18t-6.5 19q8 39 36 80q10 12 26 24q33 24 67 35q21 5 57 -7.5t53 -26.5q21 -17 12 -51q-9 -36 -27 -69q-1 -2 -3.5 -8t-3.5 -8q-5 -11 -34 -49l-77 -115q-2 -11 -38 -49q-32 -32 -18 -39q8 -4 32 -1
q17 1 53 -5q24 -5 41 -17q23 -17 25 -19q-1 -3 -11.5 -17t-12.5 -16q-10 -12 -10 -13q-2 -9 -13 -11q-6 0 -7 -1q-2 -3 -6.5 -9t-6.5 -9l2 -3l-1 -2q-1 -3 -2 -5h-7z" />
    <glyph glyph-name="three" unicode="3" horiz-adv-x="313" 
d="M170 249l12 -5l12.5 -5.5t10.5 -5.5q56 -24 65 -43q4 -4 4 -13q1 -9 -1 -25q0 -2 -2.5 -7t-2.5 -7q-2 -8 -6 -16.5t-8 -14l-10.5 -15t-9.5 -13.5q-1 -1 -13 -11q-6 -6 -22 -20q-8 -10 -18 -14q-5 -3 -13.5 -10t-12.5 -9t-19 -11t-25 -11q-17 -3 -29 7l-11.5 6l-19 10
t-11.5 7q-2 1 -4 3t-3 2q-12 2 -27 21q-4 3 -4 11l6 78q1 18 18 35q3 -1 14 -4q10 -5 10 -14q0 -7 0.5 -20t0.5 -20q1 -19 4 -30.5t9 -14t11 -1.5t14.5 10t15.5 15.5l18 20.5q3 3 4 4.5t3.5 4.5t4.5 5q28 28 27 55q0 30 -47 4q-1 0 -2 -1l-12 15q-3 3 -7 9l-6 9q-7 9 3 16
q57 39 134 171q11 19 18 39q13 30 0 29q-10 -1 -19 -23q-8 -9 -19.5 -27.5t-13.5 -22.5q-6 -9 -25 -27.5t-24 -24.5q-9 -11 -64 13q-20 12 -29 17q-2 1 -4.5 2.5t-4.5 2.5q-12 5 -7 16q2 7 7.5 20.5t6.5 17.5q27 59 81 100q29 23 60 23q23 0 51.5 -18t36.5 -36
q2 -3 3.5 -7.5t2.5 -5.5q12 -17 5 -42q-4 -24 -20 -62q-16 -31 -57 -99q-5 -8 -31 -32q-6 -6 -9 -11z" />
    <glyph glyph-name="four" unicode="4" horiz-adv-x="323" 
d="M188 265q6 -1 10 9l29 66q18 42 28 62q3 10 14 26t32 11q-3 -9 -3 -20q-2 -12 -2 -19q0 -3 -1 -8.5t-1.5 -10t-0.5 -8.5l-3 -29q-1 -6 -13 -41.5t-14 -42.5q17 -9 34 -29q5 -5 4 -14q-10 -5 -27 -5h-9q-6 0 -8.5 -1t-3 -2.5t-1 -7t-1.5 -10.5q-8 -36 -16 -66
q-1 -7 -3 -18q-7 -38 -25 -91q-3 -8 -3 -16q-4 -11 -37 -6.5t-43 11.5q-4 4 -6 5q-9 7 -12 8q-13 3 -11 15q2 21 6 32q8 30 54 131q2 2 4 6.5t3 6.5q-2 0 -4.5 0.5t-3.5 0.5h-26q-25 -1 -25 0q-40 4 -54 21q-1 1 -6 13l-10 23.5t-7 11.5q-12 8 -12.5 33.5t6.5 40.5
q4 11 21 32l60 63q19 23 100 109q11 12 26 5q9 -6 11 -7q14 -10 29 -33t15 -39q0 -21 -13 -38q-7 -12 -17.5 -14t-18.5 -12q-20 -8 -58 -47q-70 -73 -23 -98q13 -7 36 -9z" />
    <glyph glyph-name="five" unicode="5" horiz-adv-x="375" 
d="M16 265q6 5 24.5 19l28.5 21q10 8 12 12t1 14q-2 7 3 15q37 104 54 136q9 18 10 21t-1 20q-1 3 -1 11.5t-3 11.5q-2 2 4 8q8 2 14 -4q7 -7 30 -7q58 3 102 -3q5 -1 21 -2t25 -3q9 0 11 -1q25 -18 31 -39v-3q-2 -22 -13 -58q-2 -13 -16 -13q-10 0 -15 2q-25 2 -35 0h-21
h-52q-19 -2 -55 6q-37 -61 -37 -68q0 -10 35 -5q2 1 4 1q11 0 44 -6.5t40 -11.5q12 -9 22 -19q13 -14 16 -26q11 -37 11 -62q0 -5 0.5 -10t0.5 -7.5t-0.5 -6.5t-2 -8t-5.5 -10q-3 -6 -1.5 -7.5t-0.5 -6.5q-1 -5 -9 -16q-5 -3 -12 -14q-3 -5 -7 -17q-8 -14 -7 -19
q0 -15 -9 -22q-4 -4 -5 -6q-1 -1 -2 -3t-2 -3.5t-2 -2.5q-8 -7 -20 -25q-2 -9 -15 -20l-9 -9q-5 -8 -11.5 -14.5t-16.5 -14.5t-13 -11q-2 -1 -8 -5.5t-10 -5.5q-10 -8 -53 15t-51 36l-22 46q-1 3 -2 8t-2.5 8.5t-4.5 5.5v3q2 24 4 35q0 4 0.5 13t1.5 13q2 11 14.5 18t20.5 2
q4 -4 4 -5q2 -14 2 -23q0 -41 1 -49q3 -11 13 -15q18 -4 32 4q46 22 83 67q8 9 37 47q1 2 2.5 6t2.5 6q5 10 8 19q2 3 6.5 10.5t6.5 10.5q4 10 4 15q1 9 -3 12.5t-14 2.5q-6 0 -16.5 -6.5t-12.5 -7.5q-6 -2 -15.5 -10.5t-14.5 -10.5l-18.5 -11t-22.5 -11q-8 -4 -17 -7
l-11 -3.5t-13 -3.5q-11 -3 -27.5 4.5t-23.5 17.5q-2 4 -7 11l-8 11q-1 1 -4.5 5.5t-6.5 7.5z" />
    <glyph glyph-name="six" unicode="6" horiz-adv-x="344" 
d="M173 304q-5 -19 -6 -27.5t6 -13t14.5 -5.5t20 -4.5t21.5 -10.5q1 -1 3 -2t2 -2q14 -24 21 -41q16 -33 8 -67q-1 -5 -5 -17l-15 -44q-8 -23 -23 -35l-34 -29q-1 0 -3 -2q-38 -13 -60 -10q-8 2 -11 2q-21 1 -45.5 10.5t-35.5 23.5q-6 6 -10.5 21t-7 27.5t-5.5 32.5t-4 25
q-1 11 -1 33q0 27 9 57q11 39 20 66q0 1 1 3.5t1 3.5q4 7 20 39.5l30 59.5t22 39q25 38 53 61q6 7 26.5 15.5t25.5 13.5l1 1q2 1 4 1.5t2 1.5q12 11 18 13t22 0q28 -4 51 -21q22 -12 25 -30q12 -39 6 -71v-8q-2 -13 -11.5 -18.5t-21.5 -1.5q-20 8 -29 12q-13 5 -11 17
q-14 123 -82 -82l-6 -20q-5 -15 -6 -17zM214 121q6 71 -18 103q-26 21 -44 8t-24 -43q-8 -21 -7 -82t15 -73q19 -16 40 2q9 7 15 24q2 6 6.5 17l6.5 16l4.5 13.5t5.5 14.5z" />
    <glyph glyph-name="seven" unicode="7" horiz-adv-x="354" 
d="M210 433q-3 1 -41.5 9t-44.5 13q0 1 -7 4q-1 -2 2 -16q3 -7 3 -15q0 -5 -4 -7.5t-8 0.5l-2 1q-3 4 -14 15.5t-15 18.5q-3 9 -4 11q-1 9 -9 36t-9 32v8q0 8 10 11q4 0 11.5 -1.5t9.5 -1.5q4 0 13.5 -0.5t14.5 -0.5q149 4 177 10q1 1 3 1q23 9 44 -7l4 -4q11 -24 33 -46
q2 -2 5 -6t5 -6q3 -6 -3 -14q-2 -3 -6 -10.5t-7 -10.5l-31 -36q-3 -3 -31 -40t-36 -45q-2 -3 -6 -7q-12 -10 -28 -34q-2 -1 -5 -5.5t-6 -6.5q-11 -10 -33 -38q-2 -3 -7.5 -9t-8.5 -9q-10 -11 -15 -21q-3 -7 -13 -19l-14 -22q-13 -24 -35 -70q-14 -34 -26 -79q-3 -19 -24 -26
q-1 0 -6.5 -2.5t-8.5 -1.5t-8 6q-11 14 -8 37q12 51 29 87q13 26 25 44q14 25 39 64q29 44 42 60q4 13 51 68q52 60 38 74q-8 9 -35 7z" />
    <glyph glyph-name="eight" unicode="8" horiz-adv-x="344" 
d="M256 223q4 -8 14 -33q0 -1 1 -4.5t1 -4.5q5 -7 8 -17.5t3.5 -15.5t0 -21t-0.5 -18q0 -3 -2 -7q-24 -47 -68 -76q-3 -2 -8 -6.5t-7 -6.5q-4 -4 -10 -6q-28 -11 -67 -9h-11q-28 -1 -55 19q-43 31 -52 86q-9 52 22 106q18 34 46 58q4 4 12 7l13.5 5t11 6t5 8t-5.5 11
q-11 13 -21 47q-4 34 5 71q8 45 43 77t75 41q32 8 56 -3q10 -6 35 -15q23 -13 31 -39q19 -47 12 -95q-7 -31 -36 -71q-9 -12 -25.5 -21.5t-25 -14t-12.5 -19.5t12 -39zM133 132q-21 -52 16 -83l10 -7q14 -12 32 -1q28 15 41 44t6 55q-2 54 -23 68t-45 -9t-37 -67zM199 353
q22 38 25 46q19 44 19 84q0 17 -16 7q-10 -5 -38 -26q-26 -19 -30 -46q-6 -27 4 -62q11 -41 36 -3z" />
    <glyph glyph-name="nine" unicode="9" horiz-adv-x="365" 
d="M302 542q2 1 3 1q17 9 27 -6q3 -3 19.5 -11t19.5 -13q8 -13 5 -32q-11 -55 -51 -158q-3 -9 -12 -29.5t-12 -31.5q-20 -58 -65.5 -135.5t-85.5 -119.5q-4 -2 -18 -14q-11 -8 -23 -6q-3 1 -7 0q-4 0 -14.5 4t-21.5 9.5t-14 6.5q-9 4 -27 13q-33 17 -22 52q0 2 2 5t2 4
q7 7 11 2q31 -27 44 -27t31 21q5 7 16.5 32.5t21.5 50.5l22 55.5l14 35.5q3 9 4.5 15.5t2 10.5t-0.5 6.5t-2 3.5t-4.5 0t-4.5 -1.5t-5.5 -2.5t-5.5 -2q-19 -5 -46.5 -0.5t-43.5 13.5q-32 22 -26 56q10 71 50 120q14 17 47 42q15 11 43 29q6 3 14 3q9 2 26 2q23 0 39 -14
l4 -3l4 -4t5 -3t5.5 -2.5t5 -1t6 1.5t6 4t6.5 7t6 11zM187 333q12 14 30.5 54t21.5 45l14 28q9 23 -3.5 23t-21.5 -11q-24 -27 -41 -51q-25 -25 -35 -75q-7 -36 7 -34q10 1 28 21z" />
    <glyph glyph-name="colon" unicode=":" horiz-adv-x="289" 
d="M204 282v-2q-7 -33 -42 -50q-19 -8 -36 -13q-6 -3 -9 0q-7 7 -8 12q-8 27 -2 58q4 19 18 28q4 3 25 13q14 4 24 9l9 6q5 5 11 2q6 -4 10 -17q7 -24 0 -46zM90 48q-4 0 -27 10q-2 1 -5.5 2t-6 3t-3.5 5q-2 6 -1 10q3 8 2 14q-1 28 24 43q5 3 15.5 7t12.5 5q6 2 8 3
q9 3 12 3.5t5 -1.5t5 -9q6 -13 8 -51q0 -8 1 -9q1 -9 -8 -19t-17 -12q-4 0 -12.5 -1.5t-12.5 -2.5z" />
    <glyph glyph-name="semicolon" unicode=";" horiz-adv-x="306" 
d="M44 32l46 41q-9 9 -13 17q-1 1 -1 3q-1 1 -1 2v31l-3 18q-3 17 14 25l16 8q8 3 16 8q7 5 8.5 4.5t4.5 -5.5q3 -3 7.5 -10.5t7.5 -10.5q14 -14 11 -43q-2 -29 -8 -52q-6 -31 -37 -44q-2 -1 -10 -5.5t-13 -6.5q-1 -1 -26 -6q-3 0 -3 3q-3 4 -16 23zM211 310q0 -7 -10 -19
q-13 -18 -33 -27q-13 -5 -31 -15q-14 -9 -22 7q-7 15 -5 38q0 2 -1 7t-1 8q0 14 1 22q4 16 22 23q7 4 40 19l9 3l10 5q7 -3 10 -9q5 -8 11 -26q5 -14 0 -36z" />
    <glyph glyph-name="less" unicode="&#x3c;" horiz-adv-x="393" 
d="M92 262q8 6 12 10l7 7v2q2 0 5.5 0.5t5.5 0.5l3 1q1 4 3.5 5.5t5.5 2t4 1.5q12 9 13 11l16 16q1 2 5 5t6 5q5 5 42 34q7 5 7 4q1 2 0 5q2 2 4 3l5 5q4 0 9 6q-3 0 -5 1q11 8 12 11q0 2 6 5q3 3 9 7t9 7q17 10 20 18q0 1 2 1t2 1q2 0 2 -1q3 -16 4 -18q9 -7 11 -14
q10 -24 4 -40q-2 -4 -4 -16q-2 -8 -18 -26q-3 -4 -9 -6q-9 -2 -16 -7q-11 -9 -19 -12l-4 -2q-16 -11 -32 -14l-1 -1l-4 -2q2 0 5 0.5t4 0.5v-2q-6 -3 -7 -3q-14 -4 -21 -11q-1 -1 -2 -1t-2 -1q-4 0 -5 -1t-17 -14q-5 -4 -14 -12.5l-12 -11.5q-10 -10 -12 -11q-5 -2 -28 -23
l-1 -1q-1 -1 -2 -3q9 2 23 4q-3 -3 -9.5 -5t-9.5 -6q-13 -15 1 -25t45.5 -18t38.5 -12q14 -3 59 -17q8 0 12 -1q8 0 9 -3q4 -6 11 -22q-7 -9 -28 -9q-2 0 -5 0.5t-4 0.5q-19 3 -94 24q-22 5 -48 19q-2 1 -6 2t-7 2t-5 2l-36 18q-18 10 -24 34q-9 28 11 52q0 -2 -1 -5
q-2 -4 -2 -6q5 4 10 9q10 8 28 24q8 6 11 10q5 6 12 6l-2 -5q3 -3 9 5h-7zM131 200q5 8 22 8v-2l-21 -9q0 2 -1 3zM202 254q-7 -9 -14 -7q6 5 13 8zM215 369l-18 -12q6 9 18 12zM34 224q1 7 8 10q-2 -7 -8 -10zM160 215v3.5t-1 2.5h8q-3 -2 -7 -6zM236 380q-4 -1 -10 -3
l-1 1q10 6 15 8q-2 -2 -4 -6z" />
    <glyph glyph-name="equal" unicode="=" horiz-adv-x="416" 
d="M76 317h4q6 -5 28 -5h103q5 0 21.5 -0.5t25.5 -1.5q12 -1 34 -9q11 -5 10 -19q0 -4 2 -12q2 -11 -3.5 -19.5t-15.5 -8.5q-7 0 -21.5 -0.5t-21.5 -0.5q-6 0 -18 0.5t-19 0.5h-56h-53q-5 0 -14 11v1q-1 2 -1 3q-11 35 -5 60zM87 191q3 9 11 11l35 6q1 0 10.5 1t14.5 2
q30 3 57 -1h31q22 3 50 -8q9 -3 9 -11q-3 -18 -12 -18q-15 -2 -24 5q-5 4 -15 4q-3 0 -9.5 -1t-11.5 -1.5t-9 -0.5q-6 0 -17 0.5t-16 0.5h-45q-11 -2 -45 3q-1 0 -14 8z" />
    <glyph glyph-name="greater" unicode="&#x3e;" horiz-adv-x="472" 
d="M159 419q6 3 11 6l6 -12q-1 -14 14 -27l12 -9l53 -44q36 -28 53 -43l17 -13l22 -19q1 -1 4.5 -3.5t4.5 -4.5q5 -5 5 -7.5t-5 -11.5q-6 -14 -7 -21q-3 -11 -9 -15q-10 -6 -22 -8q-8 -2 -31 -11l-75 -33q-8 -2 -13 -6q-13 -10 -43 -22l-40 -18l-47 -21q-1 0 -4 -2t-4 -2
q-8 -5 -19 -3q0 6 1 10q2 4 -1 9q-8 10 4 20q9 9 17 13q33 22 96 51q5 3 10 3q6 3 63 21q41 12 41 25q0 12 -35 28l-29 24q-3 2 -12 7l-14 8q-10 6 -19 19q-13 23 -15 44q-1 5 1 16q2 10 8 38q1 4 1 14z" />
    <glyph glyph-name="question" unicode="?" horiz-adv-x="430" 
d="M133 107q-4 -6 -16 -28q-17 0 -29 13q-12 14 -18 25q-6 13 -5 30q1 15 1 44q-1 33 17 76q17 46 56 89q8 10 17 19.5t20 19.5t18 15.5l21.5 17.5l19.5 16q42 38 65 61q18 18 29 39q7 14 7 29q-2 20 -16 20q-17 2 -34 0q-29 -3 -78 -46q-2 -1 -4.5 -3.5l-3.5 -3.5
q-11 -20 -27 -12q-5 2 -13 4q-8 1 -11 9t1 18q11 26 35 47q56 51 111 50q39 0 59 -21q28 -32 35 -60q8 -37 -4 -75q-8 -23 -27 -57q-4 -9 -10 -13l-30 -33q-2 -1 -3.5 -5t-4.5 -5q-1 -1 -4 -5t-5 -6q-22 -19 -27 -22q-8 -5 -20.5 -16.5t-15.5 -14.5l-5 -5q-5 -2 -16 -13
q-3 -5 -12 -12.5t-10 -8.5q-33 -25 -46 -36q-4 -3 -7.5 -7.5l-8 -10t-7.5 -8.5q-2 0 -2 -2q-1 -8 -9.5 -26.5t-9.5 -29.5l-3 -9q-6 -15 1 -24q12 -18 23 -21zM69 206q1 0 1 -0.5t1 -0.5q1 2 3 6.5t3 7.5t6 17t8 21q6 13 16 41q5 11 11 12q5 0 5 4l51 60q2 4 3 5l-2 2
q-2 -1 -5.5 -4t-4.5 -5l-45 -50q-17 -17 -29 -44q-3 -8 -9.5 -23.5t-9.5 -24.5q-5 -16 -3 -24zM82 -53q-4 3 -10.5 9t-9.5 8q-4 5 -4 15q1 12 12 36q11 20 34 43q7 8 17 3q4 -3 20 -16q3 -3 1 -14q-6 -20 -15 -27q-14 -14 -30 -39l-7 -7q-6 -7 -8 -11z" />
    <glyph glyph-name="at" unicode="@" horiz-adv-x="666" 
d="M406 64q1 -3 -4 -15t-5 -15q-52 -56 -198 -32q0 1 1 2q-10 5 -15 6h-1l-2 -1q-2 -1 -5 -1q-6 5 -24.5 12t-26.5 16q-4 3 -12.5 8t-12.5 11q-41 72 -47 86q-21 44 -7 110q13 56 35 99q31 57 54 90q25 33 60 62q24 20 86 61q6 13 59 23t91 14q103 -16 154 -82t24 -172
l-20.5 -45t-13 -26t-9.5 -16.5l-13.5 -17t-20.5 -27.5q-5 -8 -23 -27t-22 -24q-18 -21 -40 -35q-5 -3 -7 -6q-10 -10 -25 -14q-2 0 -14 -2.5t-13 -3.5q-28 -1 -44 5q-4 0 -8 1t-9 3t-7 3q-20 9 -35 31q-9 14 -10 28q-1 2 -1 6q-1 3 -1 5q-11 -11 -17 -16q-5 -5 -7 -8
q-20 -18 -35 -17q-27 0 -30 1q-14 5 -22 16q-17 21 -21 50q-8 58 30 126q24 42 73 84q26 22 41 32q17 13 37 22q16 8 29 2q14 -7 21 -18q12 -22 24 -52q7 -17 4 -35q-4 -17 -20 -23q-10 -2 -17 -3l-8 -2q-8 -2 -11 -4q-9 -5 -41 -27q-10 -7 -43 -40q-38 -39 -29 -52
q9 -14 47 21q8 7 17 16l2 3l3 3q8 16 41 51q2 3 9 5q20 3 37 -8q12 -8 17 -16q12 -25 -3 -59q-3 -7 -10.5 -19t-9.5 -17q-12 -17 -11 -39t18 -25q23 3 35.5 12t34.5 36q4 4 9 12t6 10q3 8 9 14q80 166 51 283q-1 6 -10 14.5t-18 14.5l-22 14t-14 9q-11 11 -59.5 12.5
t-63.5 -5.5q-43 -21 -55 -29q-9 -7 -47 -33.5t-59 -47.5t-39 -50q-10 -15 -32.5 -74.5t-24.5 -71.5q-3 -7 -1.5 -27.5t1.5 -26.5q6 -62 44 -112q2 -2 4 -5t4 -4q12 -23 42 -38.5t56 -13.5q12 2 39.5 9.5t35.5 12.5q34 18 46 26q1 0 22 -7t23 -6z" />
    <glyph glyph-name="A" unicode="A" horiz-adv-x="480" 
d="M374 330q14 6 20 9q20 11 40 12q6 1 13 -2q3 -1 9 -4.5t9 -4.5q-2 -6 -13 -10q-17 -8 -46.5 -26.5t-33.5 -21.5q-8 -5 -8 -13q0 -5 -1 -14t-1 -14q-2 -13 -9 -16q-5 -2 -5 -14q2 2 4 5t3 4q3 0 3.5 -3.5t-1.5 -7.5t-5 -6l-2 -2q-1 0 -4 -3q0 -52 -1 -78q0 -6 -2 -20
q-6 -22 0 -60q3 -16 5 -47q0 -6 0.5 -16.5t0.5 -16.5q0 -7 -2 -25l-9 9q-1 -2 -3 -4q-1 -1 -1 -5h-6t-6 -0.5t-4.5 -2.5t-1.5 -6q-8 -2 -17 4q-13 11 -16 15q-19 30 -29 71q0 10 4 12q1 0 1 9l-6 24q-13 42 -19 129q-2 10 -3 16q-2 -1 -5.5 -2.5t-5.5 -2.5q-13 -10 -60 -28
q-26 -8 -51 -14q-20 -7 -37 -35q-9 -16 -29 -44t-27 -40q-6 -6 -13 -7q-8 -1 -9.5 -4.5t1 -6.5t1.5 -5t-8 1q-23 -4 -30 2.5t-9 22t-8 24.5q23 31 50 62q9 10 27 28q4 4 6 7q1 2 5 8q-1 2 -4 4.5t-5 3.5l-20 15q-8 8 -5 17q8 3 19 -4q9 -5 29 -13q5 -2 9 2l15.5 18.5
t16.5 18.5q1 1 2.5 4t2.5 4q12 13 23 29t25 38.5l20 31.5l77 121q17 24 18 50q2 22 10 64q11 44 40 104q7 13 20 9l23 -5.5t22 -5.5q9 -2 14 -7q16 -16 23 -25q4 -7 6 -16q6 -27 -1 -66q-7 -53 -13 -86q0 -1 -0.5 -5t-0.5 -6q0 -28 -12 -64q-2 -6 -10 -50q-1 -7 -1 -21z
M182 306q-44 -57 -30 -71.5t71 23.5q9 4 10 14q0 17 2 49q4 59 -5 60q-7 0 -39 -58q-6 -11 -9 -17z" />
    <glyph glyph-name="B" unicode="B" horiz-adv-x="547" 
d="M198 -25q-7 -5 -11 -1q-4 8 -21 3q-5 -2 -31 -5q-5 -1 -13.5 -1t-15.5 -1t-14 -4q-6 -3 -16.5 -6t-11.5 -3q-8 -2 -10 -3.5t-5 -9.5v-6q-4 -7 -11.5 -12.5t-13.5 -4.5q-1 0 -6.5 1t-9.5 0q-9 2 -9 11q1 4 -2 6t-8 1q-3 0 -10.5 2t-12.5 2l-23 -3t-19 -3q-17 -5 -31 -5
q-2 0 -8 -1t-9 -1q-8 -2 -12 1t-2 11q1 4 4.5 12.5t5.5 14.5q10 22 15 38q7 22 15 33q9 8 15 22q7 12 20 16q10 5 22 3q19 -3 39 -3q26 -5 40 6t24.5 38t11.5 29q11 28 13 37q4 7 -1 7q-1 1 -3.5 2.5t-3.5 2.5q-18 7 -13 29q-2 15 2 26q0 17 12 29q6 1 18 1h18q7 0 9.5 2
t7.5 10l14.5 31l16.5 36t11 31q6 19 0 26.5t-32 8.5q-7 -2 -25 1q-5 0 -7 8q-8 49 13 87q2 3 7.5 10t6.5 9q8 7 15 8q24 1 51 4.5t60.5 9t51.5 7.5q21 2 94 2q38 0 60 -5q71 -20 56 -108q-3 -20 -21 -43q-2 -3 -5.5 -9t-5.5 -9q-13 -20 -30 -30q-10 -6 -13 -8l-23 -14
l-48 -24q-8 -2 -12 -4q-6 -2 -16 -6q0 -2 -1 -3h7t6 -1q-2 0 -7 -1.5t-7 -1.5l-1 -1q1 -1 5 -3q-2 -2 -8 -4q1 -2 1 -3q2 -1 8.5 -2t10.5 -3q7 -2 23 -6t24 -7q1 -1 4 -3t4 -2q3 -1 8.5 -1.5t7.5 -1.5l6 -12q3 -5 12.5 -19t13.5 -22q14 -34 5 -60q-1 -3 -9 -19
q-11 -20 -12 -22q-13 -15 -16 -28q-1 -2 -6 -7q-5 -8 -39 -34h-4q-5 -3 -20 -8q4 -3 3 -5l-1 -1q-1 0 -3.5 -1.5t-3.5 -2.5q-10 -12 -32 -17q-7 -3 -26.5 -8.5t-30.5 -10.5q-5 -2 -15 -3t-13 -2q-4 0 -12 -2q-7 -2 -27 -7q-5 -2 -11 -4l-2 -2h2q2 -1 3 -1h-1zM161 81
q1 0 14 1t20 2q9 1 26.5 2.5t26.5 2.5q24 1 61 13l90 24q19 7 16 21q-2 28 -10 34q0 1 -1 3q-1 13 -22 30q0 1 -2 1t-4.5 -0.5t-5.5 0.5h-7q-25 -2 -41 1t-32 3q-7 -1 -20 -2t-20 -2q-7 0 -29 -4q-24 -5 -32 -7q-22 -2 -35.5 -10.5t-17.5 -18t-10 -28t-12 -29.5
q-13 -35 1 -40t46 3zM221 312q66 20 159 55q56 24 89 47q12 8 15 18t-5 14q-1 1 -2 2.5t-2 2.5q-18 10 -24 11q-18 7 -51 0q-2 0 -4 -0.5t-3 -0.5q-11 8 -32 -1q-2 -3 -4 -1q-1 1 -6 0t-5 2q-2 2 -13 -4q-2 0 -5 1t-5 0q-10 -2 -28 -5t-23 -4q-22 -4 -55 -63
q-34 -62 -23 -78q7 -8 27 4zM469 558q-3 6 -11 6q-23 3 -94 3q-5 -2 -14 -2v-1zM425 192q-6 -9 0 -34l3 -3q3 -2 4 -3q3 10 1 22t-8 18zM239 2q-8 0 -20 -6q12 -3 20 6zM269 1q8 -2 16 5q-13 -4 -16 -5zM285 14q-1 -1 -1 -3l5 1q5 1 7 2q1 1 1 3zM407 571q-2 -1 -5 -1
q3 0 5 1z" />
    <glyph glyph-name="C" unicode="C" horiz-adv-x="395" 
d="M6 329q35 78 51 109q11 31 64 102t73 91q11 12 25 11q74 40 123 -42q39 -67 37 -157q-2 -63 -27 -88q-23 -26 -62 -21q-10 3 -30 7q-7 1 -7 8q1 12 2 37.5t2 38.5q1 6 2 19t1 19q2 21 4 71v8q5 35 -8.5 39t-29.5 -10t-17 -23q-4 -14 -14 -26q-15 -14 -28 -42
q-4 -10 -14 -31t-14 -32q-18 -43 -24 -84q-6 -34 -9 -65q-1 -10 -5 -31.5t-5 -32.5q0 -8 2 -49q0 -3 1 -10.5t2 -12.5q6 -39 15.5 -54t19.5 -8t18.5 21t15.5 31q3 8 5.5 17t5 19t4.5 16q4 11 -1 22q-13 26 20 40q15 6 61 13q29 4 33 -27q0 -16 -5 -28q-7 -16 -26 -66
t-34.5 -82t-31.5 -49q-2 -1 -10 -12q-10 -18 -28 -15q-19 3 -40 0t-47 8q-7 1 -19 1q-7 -1 -15 2q-27 8 -51 37q-13 13 -14 25l-7 21q-10 29 -8 70q0 12 6 44l18 72q22 62 22 63l6.5 17t7.5 18h-4q0 -1 -2 -4t-3 -5t-4 -5.5t-3 -4.5z" />
    <glyph glyph-name="D" unicode="D" horiz-adv-x="549" 
d="M136 -10q9 3 24 6q-20 -19 -38 -15q-18 -4 -27 -19q-8 -8 -14 -5q-3 2 -20 -1q-6 -2 -9.5 -3t-5 -1.5t-2 -1.5t-1 -1t-2 -0.5t-5 -1t-9.5 -1.5q-43 -5 -46 -6q-5 3 -7 1q-14 -5 -38 6q-6 2 -8 13q2 14 -2 23q-6 0 -2 7q12 33 14 37q6 11 15 13q22 13 34 15q9 3 54 16l9 4
h-2q-5 -1 0 1q2 1 5 2q12 3 16 15q3 8 4.5 12.5l2 6t2 6.5t4.5 12l41 122q9 24 21 67l14.5 45t13.5 40q1 4 10 32q-10 -2 -12 -2q-29 -11 -49 -14q-12 0 -19 2q-17 3 -17 28v20q-2 11 3 54q1 7 11 29q3 9 11 9q6 -1 14 0.5t18 5.5t14 5l33 6q10 3 34 6.5t36 7.5q54 11 120 8
q64 -5 101 -22q32 -15 49 -45q16 -27 7 -83q-2 -19 -22 -74q-4 -8 -16.5 -37t-21.5 -45q-2 -4 -6.5 -10.5l-8 -12l-6.5 -10.5q-33 -48 -48 -64q-23 -28 -42 -46q-39 -40 -72 -66q-66 -47 -129 -79l-27 -14q0 -2 -1 -3zM253 158q52 35 92 76q53 55 80 99q29 54 33 90
q4 11 -5 13q-24 7 -41 11q-75 13 -152 -5q-11 -3 -15 -5q-2 0 -3.5 -2.5t-0.5 -3.5q-8 -11 -13 -25q-8 -29 -28 -85q-5 -17 -26 -77q-1 -3 -4.5 -21t-7.5 -29q-43 -92 -1 -90q31 2 92 54z" />
    <glyph glyph-name="E" unicode="E" horiz-adv-x="421" 
d="M116 360q-11 7 -23 23q-26 42 -17 80q10 40 36 62q33 30 79 46q73 22 140 15q13 -1 35 -9q15 -8 20 -32l5 -21t4 -17q0 -1 5 -18q3 -19 -11 -33q-23 -25 -51 -19q-17 4 -37 4q-7 15 -89 -9q-81 -23 -88 -43q-5 -15 48 -18q39 -5 71 -1q16 4 38 -1q8 -3 11 -13v-2
q-13 -6 -24 -21q-8 -9 -22 -16q-54 -25 -128 -84t-89 -106q-3 -7 -1 -22t8 -21q10 -9 31 -13q27 -4 65 -2q10 1 40 4.5t46 6.5q7 1 19.5 2t22.5 2t18 2q28 5 50 18q9 7 14 -2q12 -15 16 -34q-7 -1 -13 -6q-16 -18 -30 -25q-37 -20 -58 -26q-11 -3 -32 -5q-35 -5 -38 -5
q-7 -1 -19 -2t-19 -2q-2 0 -7.5 -2t-8.5 0q-6 3 -15 -1q-35 -3 -64 7q-38 14 -61 47q-1 3 -2.5 6l-3 6t-2.5 4q-31 53 -9 118q18 55 60 89q3 3 56 35q59 36 32 50q-3 2 -8 4z" />
    <glyph glyph-name="F" unicode="F" horiz-adv-x="459" 
d="M387 499h14q-11 -6 -47 -11h-5q-11 0 -29 -2q-60 -7 -65 -10q-5 -4 -15 -29l-8 -18q-9 -20 3 -31t51 -5q38 6 58 6q-14 -2 -23 -3l4 -2t3 -1q13 3 38 4t36 3h-46q18 5 49 4.5t46 -5.5q0 -8 -4 -10q-2 -2 -2 -3q-1 -5 -4 -8.5t-6 -5.5t-8.5 -5t-7.5 -4q-10 -8 -12 -10
q-1 -2 -11 -7q-29 -6 -56 -16l-39 -9q-1 -1 -4 -1.5t-4 -0.5q-11 -4 -35 -12q-56 -21 -65 -30q-8 -7 -27 -54q-3 -9 -7 -18q-7 -14 -28.5 -72t-27.5 -73q-8 -19 -10 -31q-5 -19 -13 -57q0 -3 -2 -9q-19 -4 -31 -7q-9 -3 -26 -1q-3 1 -9 3.5t-9 3.5q-3 2 -9.5 4.5t-9.5 3.5
q-12 5 -15 7q-17 12 -6 34q1 3 6 19l9 43q0 3 2 7t3 7q4 14 5 22q0 2 6.5 37t9.5 60.5t2 36.5q-4 18 -7 27q0 3 -2 4q-1 1 -4 2t-4 3q-4 6 -8 7q-5 0 -3 7q2 4 0 12q-7 19 0 44q1 2 3 4.5t2 3.5h2q9 -8 12.5 -7.5t9.5 13.5q4 6 5 9l2 2q2 1 3 2q1 -1 3 -5l3 -6
q4 -10 7 -11.5t15 0.5q20 2 32 4q9 -11 18 2q5 4 6 9l14 30.5l11.5 25t6 18t0 15.5t-10 10.5t-21.5 10.5q-4 1 -12 11q-4 5 -10 17l-3 6q-1 3 -2 4q-7 11 -5 19q2 2 0 5q-2 10 -2 14.5t2.5 15.5t3.5 15q0 7 10 9q2 0 2 -1q6 -9 22 -9q11 -1 32 -2t32 -2q0 -3 -1 -6
q-5 -1 -16 -1q-5 0 -15 -1t-15 -1q-1 0 -2 -0.5l-3 -1.5l-4 -2q16 -4 19 -4q24 -2 37 -2q8 0 10.5 2t2.5 10v7q7 5 15 -1q7 -5 12 -2l-2 -9q2 -2 7 -2q17 1 50 2.5t50 2.5q3 0 8 0.5t9 0.5t7 -1q10 -2 51 0q3 0 10.5 2t10.5 2h-1q1 0 3.5 -1t4.5 -1.5t4 -0.5q26 0 39 1
q34 2 50 2q12 0 18 9q-2 4 -4 6q1 2 7.5 4.5t8.5 0.5q1 -1 3 -3.5t3 -3.5q2 -4 4 -4q3 0 5 -2t3.5 -5.5t2.5 -4.5q6 -8 -1 -20q-4 -5 -1 -13q-3 -2 -9.5 -6t-10.5 -6h9q-1 -6 -2.5 -8.5t-4 -3t-7.5 0.5q-8 1 -16 -5q-16 -12 -29 -10q4 2 22 10q-11 -1 -19 -3q-7 -1 -3 -7
q-5 0 -5 10q1 0 3.5 0.5t3.5 0.5l-1 2q-25 2 -42 -4q-4 -2 -26 -4q-3 -1 -11.5 -1.5t-14 -1.5t-10.5 -5q-8 -2 -10 -2q5 -4 9 2zM367 495q0 1 -0.5 1t-0.5 1q-1 -1 -2.5 -1t-2.5 -1v-2q1 1 3 1t3 1z" />
    <glyph glyph-name="G" unicode="G" horiz-adv-x="463" 
d="M113 497q8 6 13 14q3 4 19 18q1 1 5 2.5t6 3.5q1 1 3.5 5.5t4.5 5.5q15 11 45 31q3 2 24 13q14 5 31 20q10 9 25 7q22 -1 53 -14q8 -3 12 -9q42 -33 46 -38q18 -16 23 -29q1 -2 3 -4q10 -6 8 -27q0 -10 2 -32q2 -24 -10 -64q-2 -6 -17 -42q-3 -7 -11 -15q-5 -5 -16 -13.5
t-13 -9.5q-12 -9 -26 -3q-20 5 -37 13q-16 5 -13 23q7 39 11 64q6 36 9 56l1 9q1 8 2 12q-1 30 -20.5 39.5t-45 0t-47.5 -31.5q-11 -11 -17 -24q-1 -4 -5.5 -9.5t-4.5 -6.5q-36 -54 -40 -61q-1 -1 -12 -29q-10 -25 -11 -28q-6 -18 -21 -52t-21 -50q-9 -22 -17 -45
q-2 -5 -13 -45q-8 -37 -3 -64q4 -11 9 -15q12 -9 24 -14q-4 -1 -9 -5q11 -11 19 -12q1 -1 3 1q1 2 2 2q1 -1 3 -5q12 1 23 11q3 3 6 5.5l6.5 5.5t6.5 5q0 -1 0.5 -1t0.5 -1q-2 -2 -5.5 -7.5t-5.5 -7.5v-2q1 0 3.5 0.5t3.5 1.5q3 2 9.5 7.5t9.5 7.5l56 54q2 2 6 4
q-1 -4 -18 -21q-8 -6 -12 -15q24 19 58 60q-2 0 -6 -2l-22 -22q6 9 13 16l7.5 7.5t6.5 7.5q8 6 4 12q-2 -1 -12 -7q1 5 7 11t7 8q-10 2 -24 4l4 6q-4 5 -11 5q-16 2 -19 20h-6l-7 24q2 0 5 1t4 1q-6 14 -9 22q7 5 8 5q0 1 0.5 4.5t0.5 5.5h2l2 1q15 -7 22 -11q10 -7 15 -6
q8 0 12 -2q5 -3 23 -3q50 -2 79 -2h26q-1 5 -6 4.5t-9 0.5q4 0 10.5 0.5t10.5 1.5q7 0 10 1q14 4 19 -6q3 -6 13 -13.5t11 -8.5q6 -8 7 -9q0 -2 -5.5 -10t1.5 -10q-3 -6 -10 -8t-9 -3q3 -2 9 -8q-1 0 -2.5 -1t-2.5 -2t-2 -1q-4 0 -11 -0.5t-11 -1.5q-8 0 -13 -5q-3 -2 -4 -1
q-6 1 -15 -4t-11 -5q-5 -2 -7 -9q-8 -13 -12 -27q-1 -1 -1 -2q-1 -2 -1 -3q-8 -33 -8 -38q-3 -29 -1 -34q1 -1 1 -4q1 -8 1.5 -24.5t0.5 -25.5q-3 4 -4 9q-4 -2 -4 -5q-2 -9 -8 -9l-1 -2q-1 -1 -2.5 -4t-3.5 -5q-28 5 -47 25l-4 3l-5 5h7q-1 6 -2.5 19t-2.5 20
q-9 -13 -3 -38q-7 10 -6 25q1 5 -1 18q-6 0 -15 -9q-4 -6 -8.5 -10.5t-12 -10t-10.5 -7.5q-16 -14 -28 -19q-5 -2 -15.5 -7t-16.5 -7q-23 -10 -48 2q-34 15 -94 53q-11 4 -9 11q-2 2 -4 3q-7 2 -8 4q2 -1 5 -1q3 8 0 8q-1 1 -4 1q-1 0 -3 2l-2 3q-2 4 -4 6q3 0 16 -5l-15 55
q-1 0 -7 -2q-1 2 -6 11t-7 14q-3 3 -6 3l-9 3q3 2 7 2q5 29 29 81q3 5 7.5 17t6.5 18l18 30q24 42 33 55q18 27 27 45q3 6 3 7q-2 5 0.5 9t7 8t5.5 6q4 0 6 1.5t4.5 5.5t3.5 5q2 1 3.5 3t3.5 5t3 5q-2 1 -6 1q16 23 28 34q0 -1 -2 -4t-3 -5t0 -7q3 5 6 11zM77 34l2 4
q-1 0 -3.5 1t-3.5 1q-1 -1 -1 -2q2 -2 6 -4zM-50 190h1q2 4 2 6q0 1 -2 1q0 -2 -0.5 -4t-0.5 -3zM-56 173q0 1 0.5 4t0.5 5q-7 -5 -1 -9z" />
    <glyph glyph-name="H" unicode="H" horiz-adv-x="504" 
d="M196 -93q-7 -3 -10 -3.5t-4.5 1t-3.5 6.5q-1 2 -4 5.5t-4 4.5q1 2 3 4.5t3 4.5v14t1 14v11q7 19 3 38q0 1 1.5 5t1.5 6q3 6 2 7q-4 5 4 16q2 3 3 8t2 7q3 11 7.5 32.5t7.5 32.5q-3 13 19 80q21 64 2 70q-7 2 -19 -1q-5 -4 -15 -6q-54 -25 -63 -35.5t-24 -63.5
q-1 -8 -5 -29q0 -1 -0.5 -5.5t-1.5 -7.5q-2 -6 -12 -43t-22 -57q-1 -1 -3 -4q-14 -18 -18.5 -20.5t-22.5 -1.5h-11q-16 -3 -18 11q-2 16 1 31q11 59 36 141q7 24 1 26t-17.5 7.5t-12.5 20.5q-2 15 -1 19q1 6 2.5 17t3.5 17q3 13 -1 17l20 42q12 -2 14.5 -2.5t16 2.5t18.5 4
q9 2 17.5 12.5t10.5 20.5q8 26 44 107q2 5 44 83q5 10 16 8q4 -1 11 -2t11 -1q13 -4 8 -18q-2 -6 -9 -21t-9 -23l-6 -14.5l-6.5 -16.5l-5.5 -14q-21 -34 -23 -53t13 -23t36.5 0.5t52.5 15.5q1 2 3 5.5t3 5.5q5 16 29 76q1 2 4.5 11.5t3.5 14.5q0 6 15 36q7 14 8 26q0 4 8 25
l14 24.5l17 30.5h41q31 0 56 -14q24 -13 19 -39q-1 -2 -5 -15t-9 -20q-22 -42 -47 -115q-10 -27 12 -30t44 6q3 1 5 1q11 2 13 -4q-18 -3 -57 -12q-12 -2 -25 -9q-14 -8 -19 -28q2 0 9 -0.5t10 -0.5q7 0 11 3q32 3 36 2q9 -2 23 2q8 1 24 1q-7 12 -8 14q0 2 4 19h7l2 2
q-1 1 -5 5.5t-5 6.5q23 -8 29 -28v2q-3 -3 -8 -3q-5 -11 0 -13.5t18 -2.5q-6 -5 -12 -6t-12.5 0t-9.5 1l17 -11q-1 0 -5 -1l-6 -1.5t-4.5 -3t-3.5 -6.5q3 -1 9.5 -1.5t9.5 -0.5q-4 -1 -9 -3.5t-7 -2.5q-9 -2 -13 -8q2 0 6.5 -1.5t6.5 -1.5q-48 -14 -72 -24q-49 -15 -51 -16
q-20 -6 -26 -25q-8 -18 -14 -54q-7 -33 -10 -39q-4 -12 -7.5 -33.5t-6.5 -31.5q-8 -40 -14 -60q0 -1 -1 -2t-2 -2.5t-2 -2.5q0 -1 -1 -3t0 -3q4 -10 -5 -46q0 -2 -0.5 -4.5t-0.5 -3.5q2 -9 -10 -40q0 -3 -2.5 -6t-7 -7t-6.5 -6q-7 0 -13 -2q-6 0 -8 -1q-6 -6 -20.5 -10.5
t-20.5 -10.5q-3 -2 -4 0.5t-3 1.5l-6 -6q-2 0 -5.5 1.5t-4.5 1.5zM222 379l-20 -5.5t-19 -5.5q-11 -2 -11 -9h6l21 10t23 10q7 1 20 1l1 2l1 2l-11.5 -3t-10.5 -2zM93 345q-13 -3 -28 -5q-14 -3 -20 -20q2 0 8 -1t9 -1q6 -1 9 -9q-2 -1 -8 -3t-10 -4t-8 -7q17 3 31 7
q7 16 17 43zM266 347l-5 5q-11 1 -34 -6q-12 -5 -22 -5q-11 0 -19 -7q37 1 80 13zM235 331q6 1 9.5 0.5t7.5 0.5t8 4q-1 0 -5 1t-6 1t-6 -1.5t-8 -5.5zM178 342q11 -4 18 6q-9 -2 -18 -6z" />
    <glyph glyph-name="I" unicode="I" 
d="M111 514q3 4 -4 5q-7 2 -7 4q2 1 3.5 3.5t2.5 3.5q12 8 14 20q9 8 48 18q24 8 90 25q32 8 52 1q30 -7 24 -37q-2 -12 4 -16q6 -2 -2 -29q-9 -3 -32.5 -6.5t-38.5 -10.5t-21 -21q-3 -11 -6.5 -22.5l-6.5 -21.5l-28 -111q-1 -4 -3.5 -17t-4.5 -20l-22 -67q-2 -4 -5 -12
t-5.5 -14t-5.5 -14.5t-4 -14t-2 -13t0.5 -11.5t4.5 -8t9.5 -4t15.5 1t36 -2v-4q-1 -11 7 -9q-4 -8 -3 -11q2 -5 -6 -31q-1 -2 -2.5 -6.5t-2.5 -6.5q-12 -15 -9 -25q3 -6 -7 -11q-15 -6 -18 -1q-7 8 -27 5l-64 -9l-78 -12q-12 -2 -34 -3t-29 -2q-8 0 -16 5q-18 8 -4 32
q14 21 17 25q4 7 9 9q17 9 40 18q4 2 38 12q7 2 17 9q4 4 6 8l16 50q6 33 18 63q1 1 2.5 4t3.5 5q13 18 21 54q9 33 13 40q2 5 3.5 14.5t1.5 11.5q1 4 1.5 14t2.5 16q2 9 3.5 16.5t4.5 17.5q5 20 6 30.5t-4 15t-11 5.5t-19.5 2.5t-25.5 4.5q-1 0 -1 5.5t0.5 10.5t-0.5 6
q1 0 2 1t4.5 2.5t6 3t5.5 3.5t5 3h1zM-29 10q1 0 1 -1l2 -1q5 0 14.5 -0.5t14.5 -0.5l53 6q22 2 31 4q2 1 12.5 3.5t16.5 5.5l23 3q21 7 24 9q-4 0 -9.5 0.5t-7.5 0.5q-5 1 -17 -1h-15q12 2 27 3q-3 5 -15 3q-3 -1 -37 -6q-7 -2 -8 -3q-7 -4 -27 -8q-13 -1 -36 -4l-31 -4
q-11 -2 -16 -9zM284 521q-3 1 -8 2.5t-7.5 2t-7.5 -0.5t-10 -5q-2 -3 -2 -4.5t2 -2t5 -0.5q4 1 13.5 4t14.5 4zM144 499v2q-3 0 -5 -1q-4 0 -6 -1q0 -1 -1 -2q2 1 6 1.5t6 0.5z" />
    <glyph glyph-name="J" unicode="J" horiz-adv-x="375" 
d="M50 -47q-9 -5 -24 1q-22 7 -25 10q-18 15 -25 33q-13 36 -14 70q-2 38 -4 57q-1 13 -5 44q-2 8 -3 11q-3 7 -7 21q17 10 50 8q11 -14 11 -34v-1q5 -17 -3 -32q-1 -2 -1 -4q-2 -18 -3 -26q4 -113 29 -107q23 7 44 94q5 22 9 44q5 17 16 50l16 49q4 13 5 17l35 126
q10 37 19 65q1 9 -5 12q-1 1 -3.5 2.5t-3.5 1.5q-13 5 -29 17q-27 19 -32 20q-6 2 -15 11q-2 2 -7 5.5t-7.5 6t-5.5 6.5t-5 9q4 7 0 15q-5 8 4 13q22 12 28 14q53 12 93 12q19 0 29 -1q17 -1 71 3q41 4 59 5h25q14 0 19 6q4 -4 4 -6q4 -30 4 -46q-1 -28 -12.5 -44.5
t-39.5 -29.5q-3 -1 -21 -1q-22 0 -33 -1q-7 0 -7 -6q0 -1 -0.5 -4t-0.5 -4q0 -8 0.5 -26t0.5 -27q2 -32 2 -47q0 -7 -4 -23q-1 -5 -2.5 -14.5t-3.5 -17t-6 -14.5q-1 -2 -1.5 -5.5t-0.5 -4.5l-29 -80q-1 -5 -3.5 -15t-4.5 -15q-7 -26 -23 -78q-2 -6 -2 -9q-3 -25 -24 -52
q-14 -18 -26 -22q-3 -1 -7 -5q-14 -11 -40 -35q-6 -4 -9 -7q-7 -5 -21 -17q-2 -2 -6 -4q-9 -5 -19 6z" />
    <glyph glyph-name="K" unicode="K" horiz-adv-x="462" 
d="M178 200q10 -4 11.5 -6t10.5 -5q5 -2 14.5 -6.5t14.5 -6.5l20 -9l23.5 -11t19.5 -10q20 -9 36 -21q23 -18 27 -38q-1 -1 -6.5 -8.5t-9.5 -10.5q-19 -17 -24 -20q-2 -1 -8 -1q-24 4 -36 5q-19 2 -53 18q-5 3 -37 18q-10 4 -15 8q-6 5 -19 10t-16 7q-9 5 -19.5 12.5
l-15.5 11t-11.5 5.5t-10.5 -2.5t-9.5 -14.5t-11.5 -28q-16 -40 -23 -60q-3 -7 -7.5 -19.5t-6.5 -19.5q-8 -20 -21 -23q-2 0 -4.5 -2.5l-3.5 -3.5q-2 4 -3.5 5t-3.5 0.5t-8 -4.5q-2 -2 -5 -2q-6 -1 -12 3.5t-6 10.5q-2 9 1 17q3 21 10 62t10 62q1 8 3 22t3.5 25.5t2.5 21.5
q1 5 -3 11q-12 8 -6 25q12 39 19 52q0 1 3 4q6 -5 11 -11q65 203 139 378q6 4 24 6q30 4 56 -14q4 -2 12 -8t12 -8q12 -8 19 -25q3 -7 -4 -22q-1 -2 -4 -9.5l-5 -12.5q-2 -10 -4 -13q-8 -14 -35 -86t-35 -95q-14 -37 40 -13q41 19 186 116q22 15 30 20q28 15 34 18
q5 3 25 10q5 1 7 -1t1 -6q-3 -5 -6.5 -16.5t-6.5 -17.5q-5 -9 -13 -14q-4 -5 -13 -9q-20 -10 -38 -36l-9 -9l-78 -64q-17 -14 -125 -64q-8 -4 -13.5 -7t-18.5 -11.5t-19 -15.5t-10.5 -15.5t2.5 -16t25 -12.5zM280 136q4 -1 11 -3.5l10 -3.5q1 -1 10 -8l2 2q-5 7 -13 6
q1 3 -7 8q-1 1 -5.5 4t-6.5 5q-3 6 -16 10q-13 1 -24 7q-2 3 -10 7q-3 1 -14 6.5t-18 5.5q-1 0 -2 1q-4 4 -22 9q-6 2 -13 5l-37 19q-2 0 -3 1q-3 1 -8.5 2.5t-7.5 1.5q-1 1 -3.5 1t-4.5 1q0 -1 -1 -2q2 -1 5.5 -3t4.5 -3q6 -4 7 -7q4 -13 19 -13q18 1 32 -13q10 -10 21 -7
q4 2 4 -1q1 -1 17 -6q5 -1 23 -10q1 0 2 -1q0 -9 18 -11q14 -1 30 -10q-2 0 -10 2q7 -7 13 -6q-1 0 -2 2z" />
    <glyph glyph-name="L" unicode="L" horiz-adv-x="325" 
d="M249 73q27 0 51 -3q10 -2 36 -14l5 -5l-6 -2q-13 0 -21 -10q0 -2 -4 -2q-16 1 -34 -6q-11 -5 -23 -5q-27 -3 -56 -18q-9 -5 -59 -27q-4 -2 -12 -5.5t-11 -5.5q-8 -5 -9 -7q-15 -15 -56 -41l-5 -4l1 1q5 1 2 -1q-1 -1 -4 -3q-27 -15 -32 -17q-10 -4 -32 -10q-2 0 -3 1
q-16 11 -20 14q-3 2 -7 13q0 3 -2 9t-3 10v17q2 14 1 18q-2 11 10 13q13 10 17.5 15.5t11 22t14.5 51.5l13.5 49.5t15.5 54.5q29 99 43 140q9 26 31 103.5t31 103.5q3 6 8.5 19t7.5 20q7 12 17 12q6 0 22 15.5t22 15.5q27 -3 32 -30q3 -11 -1 -29q-1 -7 -39 -170l-40 -163
q-3 -11 -10.5 -34.5t-10.5 -36.5q-8 -26 -8 -42.5t4.5 -23.5t17.5 -8.5t25.5 0t33 3.5t35.5 2z" />
    <glyph glyph-name="M" unicode="M" horiz-adv-x="621" 
d="M184 447q5 7 15.5 19.5t14.5 18.5q5 6 15 20q18 28 53 38q9 3 20 -4q16 -7 29 -4q19 3 23 -7q0 -2 -0.5 -5t-0.5 -4.5v-3.5q2 -12 -5 -22q-1 -1 -1 -5q0 -10 1 -13l-1 -2q-2 -5 -5 -11t-5.5 -16t-4.5 -14q-31 -77 -14 -70q13 5 56 62q5 14 20 29q6 9 22 28.5t23 30.5
q36 47 80 78q2 2 9.5 7.5t12 7.5t9.5 1q16 -2 27 -11q11 -10 17 -21l4 -2q14 -3 14 -30q0 -1 -1.5 -4t-1.5 -4q-26 -59 -30 -83q-4 -27 -5 -42q-1 -4 -2.5 -19t-3.5 -24q-4 -29 -13 -39v-4q2 -4 2 -6t-3.5 -7t-4.5 -7q-3 -8 -1 -10q5 -17 -7 -34l-1 -2v-4q-3 -9 -7 -25l1 1
l4 2q-1 -5 -9.5 -18.5t-5.5 -20.5q8 0 4 -16q-14 -54 -16 -60q1 0 1 -1v-2q3 -5 -1 -18t-3 -19q0 -2 -1.5 -13t1.5 -15q0 -9 -11 -20l-11 -11q-5 -11 -7.5 -13t-12.5 -3h-2.5t-2.5 -0.5t-3 -1t-4 -0.5q-12 -2 -15 4q-1 2 -8 4q-22 5 -11 28q9 31 19 102q1 4 7 26
q0 1 4.5 16.5t8.5 23.5q0 -2 -1 -6.5t-1 -7.5q3 2 4 2q6 20 6 22q0 3 5.5 23.5t4.5 30.5q-2 2 0 4q5 5 5 15t4 15q2 2 2 5l1 4q-3 15 9 33v5l-1 1q-7 -15 -19 -45h-3q12 68 7 70.5t-27 -27.5l-29 -39q-2 2 -2 3l-3 -1q0 -2 -2 -6q-1 -2 -1 -3q-6 -16 -23 -26q-5 -2 -5 -6
q-5 -4 -9 -12q-5 -14 -23.5 -44t-42.5 -65.5t-29 -44.5q-4 -7 -34 -35q0 11 2 14h-2q-1 -2 -14 -20l-2 2q-7 -15 -27 -21q-29 -10 -52 -3q-28 8 -31 11q-7 5 -5 8q0 2 4 8q24 38 30 46q18 27 16 43q3 16 36 137q10 36 6 37.5t-22 -22.5l-18 -28q-24 -38 -34 -49
q-5 -10 -60.5 -105.5t-62.5 -139.5q-2 -12 -7 -22q-8 -12 -16 -6l-5 2q-5 12 -28 16q-1 0 -19 9q-2 2 1 8q19 35 35 99q1 4 3 17t5 21q2 8 16 45.5t16 43.5l12 48q3 10 7.5 29l8.5 34.5t8 29.5q0 1 2 8.5t2 11.5q1 25 18 70l3.5 11t4.5 12q3 10 8 22q5 11 12 8q3 -2 9 -6.5
t8 -7.5q0 -1 3 -16q-4 -27 -14 -60q-12 -57 12 -42q21 13 63 76zM289 274q4 3 7 7q5 7 15 25q11 26 29 40q6 8 6 15q-11 -10 -30 -39t-27 -48zM379 403q12 4 15 13q0 4 4 8q9 9 18.5 27t13.5 23q-9 -7 -27.5 -33.5t-23.5 -37.5zM157 86h2q2 4 5 9v5q-1 -2 -6 -7q0 -5 -1 -7z
" />
    <glyph glyph-name="N" unicode="N" horiz-adv-x="586" 
d="M23 315q1 1 1 4v5l49 135q5 15 17 45q5 13 17 12q6 -2 24.5 -0.5t24.5 1.5q49 -4 63 -31q5 -8 11 -28q2 -7 -1 -12q-5 -8 -15 -54q-3 -14 -9 -39q-12 -47 -7 -48q6 -1 32 29q58 83 61 88q82 106 128 135q3 2 11 8q12 10 23 9q2 0 14 3q55 7 65 6q23 -4 28 -27
q5 -35 -10 -88q-4 -13 -28.5 -62t-29.5 -63q-11 -29 -14 -35q-2 -4 -3 -12t-2 -12q-2 -5 -13 -50q-1 -5 -3.5 -14t-3.5 -12q-2 -8 -1 -11q5 -15 -1 -31q-13 -39 -9 -45q2 -4 2 -6q1 -2 3 -6.5t3 -7.5q13 8 29.5 26.5t24.5 24.5q0 -15 5 -21q3 -1 0 -7q-5 -9 -17 -27l-24 -33
q-9 -12 -21 -18q-30 -16 -45 -22q-24 -11 -48 -5.5t-29 29.5q-3 15 -10 54q0 4 2 14q1 4 5 17t5.5 20.5t-0.5 15.5q-5 11 2 27q4 10 6 22q1 2 -2 5q-2 2 -3 4q7 7 10.5 21.5t6.5 19.5q4 8 5.5 21t4.5 20q-1 -1 -4 -1q-5 -19 -14 -43h-2q7 21 19 65q2 11 31 89q23 63 4 63h-4
l-83 -119q-10 -15 -19 -21q-19 -18 -31 -40q-10 -21 -29 -41q-16 -17 -29 -42q-16 -33 -40 -60q-13 -14 -24 -40l-6 -15l-7.5 -18t-7.5 -15q-10 -20 -18 -50q-5 -24 -19 -36q-4 -6 -7 -6q-5 -1 -22 -13q-21 -13 -39 -17q-26 -3 -41 -1q-4 1 -8.5 8t-3.5 12q5 21 7 78
q4 89 49 207l40 102q4 14 5 21q-7 -9 -12 -19t-10.5 -23t-8.5 -19z" />
    <glyph glyph-name="O" unicode="O" horiz-adv-x="468" 
d="M-12 178q-5 54 23 131l51 132q9 24 15 31q12 26 24 48q10 22 35 51q13 13 35 11q10 -4 15 5q24 17 32 24q37 28 98 30q25 -2 36 -13q25 -25 37 -40q14 -19 28 -67q10 -29 8 -78q-3 -33 -17 -61q-1 -2 -1.5 -6.5t-1.5 -5.5q0 -6 -0.5 -17t-0.5 -16q-1 -9 -6 -32.5
t-6 -35.5q-1 -13 -19 -80q-1 -8 -4 -16t-7.5 -18t-6.5 -16q-2 -8 -6 -16.5t-7.5 -14.5t-9.5 -15.5l-9 -14.5q0 -2 -2 -5t-4.5 -6t-3.5 -5q-5 -6 -22.5 -24t-28.5 -28q-29 -29 -65 -37l-18 -6q-15 -8 -30 -3l-21 3q-25 1 -46 16q-51 33 -74 86q-19 41 -19 100q-1 1 -1 4v5z
M83 295q-2 -7 -2 -18q-4 -12 -6 -37q0 -5 -2 -16t-2 -17q1 -4 4.5 -21.5t4.5 -26.5q12 -49 17 -80q5 -30 23 -42q12 -8 20 -2q30 14 38 21q65 58 98 120q41 76 58 168q10 62 13 117q1 24 -14 39q-13 15 -33 9q-1 -1 -8.5 -3.5t-11.5 -5.5q-7 -2 -13 -11l-15 -25t-16 -26
l-21 -36q-5 -17 -15 -38q-4 -3 -4 -7q-4 -10 -14.5 -33t-15.5 -35q0 -9 -11 -9q-19 0 -22 2q-8 5 -50 13z" />
    <glyph glyph-name="P" unicode="P" horiz-adv-x="522" 
d="M441 668q38 -1 74 -16l14.5 -6l16.5 -6.5l14 -5.5q2 -1 5 -3.5t4 -3.5l3 -3q4 -4 9 -2q1 0 1 -1q3 -3 12 -10t11 -13q1 -3 5.5 -12.5t6.5 -15.5q8 -30 -17 -74q-4 -6 -13 -17t-12 -17q-8 -14 -11 -16q-25 -22 -35 -28q-1 0 -3 -2t-3 -2v-3l10 5q1 -1 1 -2q-7 -3 -21 -11
l-23 -10q2 -2 10.5 0t11.5 1q-4 -3 -7.5 -4.5t-7.5 -2.5t-6 -2q-3 -1 -8.5 -2.5t-7.5 -2.5t-11.5 -4.5t-15.5 -5.5v-10q-1 0 -10.5 -2t-14.5 -4q-5 -1 -14 -5t-11 -5v-3q12 4 21 6q-34 -15 -54 -20q-11 -2 -32 -8l-28 -8q-1 0 -3 -2l3 -6l-30.5 -8.5t-27.5 -7.5
q-13 -4 -18 -1q-7 2 -12 -2q-2 -2 -7 -2q-6 2 -36 -5q-3 -1 -8 -2t-10 -2.5t-10 -2.5q2 0 3.5 -0.5t3 -1.5t2.5 -1q-2 -1 -7.5 -5t-8.5 -6q4 -4 24 -1v1q-3 -5 -10 -5q-6 -1 -17 -1q-4 -8 3 -6q9 3 19 3q-4 -2 -5 -3q-16 -4 -23 -18l-1 -2q2 -4 -9 -23v-2q-1 -4 -3 -14
q0 -1 -3 -6.5t-2 -8.5q0 -3 -1 -4q-1 -2 -10 -28q-4 -16 -11 -37q-11 -35 -11 -38q-1 -11 -6.5 -30.5t-6.5 -23.5v-8.5t-1 -7.5q-2 -10 -10 -12h-1q-7 -8 -15 -12t-19.5 -6t-14.5 -3q-6 -2 -25 -7q-6 -2 -25 -7q-3 0 -4 1q-3 0 -4 1q-24 9 -15 39q17 65 42 143l22 67
q7 20 12 41q3 16 17 48q0 3 2 3q8 5 15 25l47 102q7 15 16.5 31.5l14.5 25t8 17t1 11t-10 4t-22 -1.5t-38 -9q-10 -2 -13 6q-7 19 -2 46q4 26 12 44q2 8 2 12q2 9 8 14q6 -2 27 4q38 12 57 17q0 -2 -7 -4q-8 -3 -11 -5h13q-5 -3 -20 -8.5t-23 -12.5q2 0 6.5 -1t6.5 0l74 15
q6 2 8 4q7 6 29 10l80 12q17 2 51 8q3 1 9 0t7 -1h23q15 0 23 2q15 2 51 -2q4 0 13 -2t14 -2q4 0 8 2l-7 2q-7 3 -11 4q-29 4 -40 7zM317 326q4 1 10 1q15 0 27 9q5 1 13 5q-10 0 -13 -6q-16 4 -37 -9q-5 5 -18 -3zM357 407q5 2 27 9t34 12q30 11 64 26q29 13 51 41
q13 19 9 27q-8 20 -27 24l-1 1l2 1l3 3q-2 1 -6.5 1.5t-6.5 0.5q2 1 4.5 2.5t3.5 2.5q-6 2 -21.5 -0.5t-20.5 0.5q17 0 27 7q-20 2 -26 2h-28q-15 1 -33 -3q-16 -4 -62 -13q-17 -3 -26.5 -4.5t-18.5 -5t-12.5 -5t-9.5 -8.5t-8 -10.5t-9.5 -15.5l-12.5 -20l-12 -23.5
l-14 -26.5q-42 -53 -41 -86q2 -38 76 2q31 10 36 15q3 3 8 3l33 9q8 2 14 9q-2 -1 -6 -2l-6 -1.5t-5 0t-5 2.5q4 2 10.5 4.5t7.5 2.5q12 3 36 11q9 2 11 9q-6 -1 -16 -3q-20 -5 -23 0zM158 283q0 1 1 1l1 2q3 -1 42 5q37 5 46 8q-15 6 -27 3q-44 -9 -59 -13q-7 -1 -10 -13
q6 1 16 3l1 2q-2 1 -5.5 1t-5.5 1zM257 308l1 1v1l-12 -3v-1q3 0 11 2z" />
    <glyph glyph-name="Q" unicode="Q" horiz-adv-x="601" 
d="M526 590q-9 -14 -11 -20q-2 -11 4 -16l4 6q8 -22 9 -28l2 6v1q-1 3 -1 9t-1.5 10.5t-4.5 7.5q-5 3 -3 13h4q23 -20 28 -23q3 -1 5 -9l9 -27q2 -6 2 -12.5t-1 -15t-1 -13.5v-1q-5 -3 -4.5 -21t0.5 -21q-5 -25 -11 -34q-1 -1 -2 -3t-1.5 -4.5t-1.5 -3.5q-2 -5 -5 -10
q4 19 -4 23q0 -1 -1 -3.5t-0.5 -4.5t2.5 -3q0 -8 -3 -8q-3 -1 -5 -6t-3 -6q-8 -14 -13 -21l-2.5 -5t-1.5 -5t-7 -14q-26 -34 -30 -40q-15 -23 -20 -38q-1 -3 -4 -9l-5 -10q0 3 -0.5 6t-0.5 4q-4 -3 -4 -10q2 -9 -8 -14q-2 -1 -6 -5l-6 -6q-1 -1 -2.5 -3t-2.5 -3
q-18 -18 -26 -29q-4 -6 -15 -17q5 -5 18 -17q-6 -3 -13.5 0.5t-11.5 2.5q7 -19 22 -28q7 -3 13 -9q20 -15 25 -20l33 -33q1 -1 2 -3l1 -1q8 -12 17 -14q4 -1 10.5 -4t9.5 -4q-2 2 -4 4.5t-5 5t-5 4.5q7 2 9 1.5t7 -3.5t7 -4q-5 13 -28 13q2 2 3.5 4.5t2.5 3.5q18 -6 35 -28
l-3 -3q-9 -5 -9 -19q0 -4 -2 -12l-6 -6q2 -8 4 -14l-6 -2v-28q-2 -2 -4 -2q0 -2 -0.5 -4t-0.5 -4l-1 -2q-3 -2 -2.5 -5t-0.5 -5q-1 1 -4 3q-21 18 -25 24q-4 5 -16 26l-4 4q-1 1 -3 2t-3.5 2t-2.5 2q-6 9 -17 9q2 4 2 5q2 9 -5 12q-9 2 -12 7q-8 12 -20 15q-4 1 -4 7
q0 4 -4 6q-8 2 -11 6h11q0 1 1 1q-29 21 -32 23q-7 3 -13 2q-13 0 -19 4h-2q-10 3 -13 2t-12 -10q-11 -11 -19 -13q-4 0 -4 -3q0 -4 -1.5 -6t-5 -4t-4.5 -3q-2 -2 -14 -12l-9 3l-13 -10q-4 -4 -4 -6q0 -5 -9 -9q0 1 -0.5 2.5t-0.5 2.5q-3 -2 -10.5 -6.5l-12.5 -7.5
q4 -1 6 -1l-10 -7q-19 -7 -22 -8l-21 -9q-12 -5 -27 -7q-8 0 -22 -2q-40 -5 -77 23q-8 6 -13 12q-3 4 -9 14q-1 2 -3 7.5t-4 7.5q-14 23 -21 67q0 7 1 10q3 17 -2 31q-1 3 -1 9q1 66 36 137q31 65 51 92q58 83 109 146q44 50 111 94q47 29 110 56q6 3 28 10q5 2 7 1
q22 -6 30 -13q1 -1 3 -2.5t4.5 -3t3.5 -2.5q4 -2 5 -4q6 -12 25 -21q27 -17 40 -39q1 -2 4.5 -4t4.5 -3zM228 200h-12v3l12 3q-6 2 -33 -3q16 -7 35 -13q20 -8 30 -13q3 -1 8.5 -4.5t7.5 -4.5q5 -3 9 4q3 5 -2 8q-18 12 -28 17q-5 3 -17 7q-7 2 -11 -5zM408 87q0 1 -2 1
t-2 1l-26 17q-1 1 -2 1q-2 1 -3 1q-1 -4 5 -10q33 -25 79 -73q5 -5 17 -15q9 -3 13 -1q-4 2 -8 8.5t-8 8.5q-3 1 -6 9q-4 15 -16 19q-15 3 -23 16q4 -2 7 -4q-10 20 -26 25q0 -1 1 -3v-1zM444 366q-12 -24 -19 -36q-3 -6 -9.5 -17.5t-7.5 -13.5q4 -1 11 9q3 7 8 13
q19 24 35 63q7 20 6 35q-7 -21 -11 -30q-7 -18 -14 -23q6 12 8 18q14 27 14 62q0 7 -4.5 24.5t-3.5 27.5q0 5 -4 7q-5 2 -7 10t-4 10q-1 17 -23 17.5t-29 -9.5q-8 -5 -24.5 -13l-20.5 -10q-34 -22 -51 -34q-45 -34 -69 -61q-24 -28 -37 -40q-29 -27 -37 -37q-3 -3 -7 -9
q-4 -11 -15 -20q-12 -13 -28 -45q12 -2 15 -2q0 -3 -1 -4q-5 -2 -17 -6q2 -10 10.5 -16t18.5 -5q18 2 37 0q3 0 43 -9q31 -7 40 -11q68 -21 114 37q13 14 25 31q34 47 52 80q1 1 3 3.5t3 3.5zM245 140h-3l-2 1q-9 -6 -12 2q-4 6 -10 1q-3 -3 -5 -1q-8 1 -16 6q-29 14 -64 11
q-23 -2 -34 -1q-28 11 -41.5 3t-16 -27t1.5 -39.5t12 -35.5q14 -23 42 -16q23 4 45 17q43 24 92 63q8 7 11 16zM378 82l-1 -1l94 -93h5q-1 1 -2 4t-2 4l-16 16q-3 3 -8.5 9.5t-7.5 10.5q-5 8 -12 11q-3 1 -7 5l-40 33q-1 0 -3 1zM397 33q-8 5 -12 4q5 -8 12 -4zM388 107
q-1 -1 -1 -2l10 -7l2 2q-3 3 -11 7zM557 426q6 4 3 12zM460 496q2 -2 8 -6q0 7 -8 6zM456 513l2 1q0 1 -1 3.5t-2 3.5l-2 -2z" />
    <glyph glyph-name="R" unicode="R" horiz-adv-x="531" 
d="M244 161q1 -1 3 -13q-1 0 -1 -0.5t-1 -0.5q-6 5 -8 15q-10 36 -16 54q-6 15 -26 4q-9 -4 -10 -11l-8 -22t-8 -21q-7 -24 -22 -54l-16.5 -40l-13.5 -33q-3 -6 -6.5 -17.5t-6.5 -17.5q-6 -18 -24 -24q-3 -1 -8.5 -3l-10 -3.5t-8.5 -2.5q-1 -1 -2 -1q-8 -7 -34 -17
q-12 -7 -17 -7l-3 -1q-3 -1 -4 -2q-5 -7 -14 -7h-10q-12 0 -7 15l3 12q-1 15 7 38q10 28 19 57q3 7 2 11q-2 11 4 22q14 40 27 70q3 6 3 8q5 13 2 14q-2 1 -9 2q-8 2 -8 9q0 1 -2.5 2.5t-2.5 2.5q-5 3 -6 5q9 3 11 4l27 9q8 2 14 11l12 30q29 80 67 158q23 32 2 40.5
t-46 -6.5q-23 -9 -31 6q-2 2 -7 12q-2 3 -4 9q0 38 3 48q2 5 6.5 14.5l5.5 11.5q2 6 4 8q12 19 23 34q3 6 20 13l72 18q40 11 143 24q59 5 98 0q28 -2 39 -4q45 -3 70 -30q20 -24 23 -67q3 -44 -27 -99q-9 -18 -36 -50q-54 -56 -101 -88q-11 -7 -16.5 -10t-8 -9t-2 -8.5
l2.5 -13t3 -18.5q1 -9 5 -27q4 -16 7 -24q0 -4 2 -12t3 -13q5 -20 5 -23q1 -5 1 -16q-4 -38 -5 -57q-2 -4 -2 -6q5 -5 3 -25v-2q4 -36 7 -54q4 -9 -7 -18l-18 -18q-14 -11 -21 -3q-8 11 -24 31q-2 2 -4 7t-3 8q-7 14 -17 29q-5 5 -10 15l-1 1q-1 1 0 3q3 11 -8 28
q-10 26 -18 38q-1 2 -2.5 6.5t-2.5 8t-1 6.5q-1 9 -12 29q1 -1 -1 -2zM373 358q3 2 9.5 7t9.5 7q21 17 62 67q25 28 4 39q-27 16 -53 15h-27q-26 2 -86 -4q-78 -22 -92 -34t-14 -59l3 -21q2 -10 6 -15q7 -13 5 -28q2 -31 14.5 -42.5t33.5 -4t40.5 18.5t45.5 29t39 25z" />
    <glyph glyph-name="S" unicode="S" horiz-adv-x="402" 
d="M137 331q21 -13 47 -34q6 -4 9 -5q20 -11 60 -44q41 -37 56 -93q10 -42 -15 -85q-10 -20 -19 -30q-7 -9 -13 -14q-26 -24 -63 -39q-14 -8 -34 -6q-15 0 -26 -6q-6 -3 -24 -9q-31 -7 -57 -3q-48 7 -70 30q-23 25 -10 65q12 28 29 51q19 28 40 46q2 1 7 9q6 11 11 14t16 2
q1 0 7 5t11 3l-6 -3t-7 -4l10 -2q0 -9 1 -14q1 -4 -3 -10l-8 -11.5t-10 -13.5q-17 -21 -19 -40q-1 -2 -3 -27q-2 -11 9 -14q13 -5 28 -2q34 6 55 15q4 2 24 10.5l31 13.5q24 11 39 25q14 11 9 21q-12 40 -35 58q-35 29 -103 68q-33 20 -61 43q-30 23 -50 62q-32 53 30 129
q33 41 108 82q5 2 17 6t18 7q75 27 173 20q9 -1 25 -3.5t25 -3.5q32 -4 48 -16q8 -7 5 -16q-1 -2 -1 -7q0 -2 -0.5 -5t-1 -5.5t-1.5 -4.5q-14 -29 -15 -51q-1 -10 -11 -25q-2 -4 -7 -11l-7 -10q-6 -10 -16 -16q-25 -11 -31 -13q-10 -5 -16 0q-19 7 -47 11q-71 9 -99 8
q-22 -2 -31 -5q-6 -1 -17.5 -3.5t-16.5 -3.5q-25 -6 -34.5 -18.5t-3.5 -26.5t17.5 -27t26.5 -24z" />
    <glyph glyph-name="T" unicode="T" horiz-adv-x="356" 
d="M29 572q17 13 36 21q28 11 59 19q16 3 58 16q27 9 67 14q17 2 48.5 6.5l45.5 6.5q43 5 129 13q19 2 30 9q2 -3 4 -9q6 -25 -2 -60q-4 -11 -13 -15q-20 -12 -31 -18l-20 -9t-18 -8q-1 0 -44 -9q-22 -1 -37.5 -20t-22 -42t-16.5 -50t-22 -40q-11 -22 -12 -25
q-24 -62 -39 -93q-4 -9 -14 -50q-1 -3 -2.5 -7t-1.5 -6l-15 -47q-1 -4 -4 -12t-4 -12q-5 -20 -5 -34q0 -8 -6 -22q-10 -26 -13 -39q-3 -14 -15 -28q-8 -8 -14 -17q-11 -16 -30 -26q-10 -6 -14 -9q-15 -15 -25 -5q-7 7 -10 14q-14 44 -12 70q4 41 12 86q21 97 52 184
q2 6 15.5 35t24 56t18 56.5t-0.5 47t-33 17.5q-1 0 -3 0.5t-3.5 0.5t-3 0.5t-2.5 1.5q-10 5 -33 7q-3 0 -8 0.5t-9 1t-7 1.5q-11 4 -13 10q-2 11 -21 18z" />
    <glyph glyph-name="U" unicode="U" horiz-adv-x="520" 
d="M278 195q7 7 18.5 21t16.5 19q4 4 14.5 27.5l22 51t14.5 32.5q2 5 6 13.5t7 15.5t5 13q32 82 56 127q1 3 15 23.5t15 24.5q2 0 7.5 1t7.5 0q34 -2 53 -4q3 -3 0.5 -9t-8.5 -18t-7 -15l-20 -60q-6 -26 -28 -59q-10 -17 -14 -30q-6 -21 -28.5 -78t-27.5 -88q-1 -8 -6.5 -25
l-10.5 -32t-8 -29.5t-0.5 -23.5t12.5 -9q12 -15 13 -21q2 -23 -33 -49q-3 -2 -9.5 -5.5t-9.5 -5.5q-25 -13 -48 -8l-21 3q-21 2 -22 15q-3 22 -1 39q6 23 6.5 36t-4 17t-14 0t-18.5 -10t-23 -17q-31 -26 -66 -46q-58 -33 -113 -22q-37 6 -51 49q-11 42 5 100q4 16 10.5 47.5
t10.5 47.5l14 52t16 55t19 52q5 12 12 32.5t9 25.5q5 19 10 36q4 5 15 7q4 1 9.5 2t12.5 2t11 2q24 2 38 -3q7 -3 23 -8t23 -9q36 -17 21 -67q-6 -16 -14 -33t-14 -36q-3 -9 -7.5 -24.5t-6.5 -20.5l-13 -41.5t-13 -43.5q-5 -16 -8 -28q-2 -12 -27 -80q-32 -94 64 -10l77 74z
" />
    <glyph glyph-name="V" unicode="V" horiz-adv-x="460" 
d="M192 3q-6 1 -16 3q-8 -15 -20 -16q-11 -2 -17 -6q-20 -13 -37 -6q-20 5 -38 20q-13 12 -15 43q0 13 -1.5 39.5t-2.5 40.5q-1 23 -1 69q0 48 1 72v17q0 8 2 34.5t2 40.5t-0.5 29t-1.5 34t-1 29q0 8 -8 13q-9 3 -12 8q-5 5 -3 11q2 7 -3 12q-8 6 -10 8q-1 1 -1.5 2l-1.5 3
l-2 4q3 0 7.5 0.5t5.5 0.5l59 -9q3 0 4 -1q2 -1 52 -15q24 -6 42 -24q11 -11 12 -25q3 -16 3 -51q-2 -11 -8 -20q-8 -11 -8 -24q0 -19 -2 -29q-4 -20 -9 -28q-2 -4 -5 -31q-2 -20 6 -33q6 4 8 18q0 8 0.5 25t0.5 26l3 6l10 15q0 -1 1.5 -5t1.5 -6q-1 -7 3 -22q7 -23 -7 -48
q0 -1 -1 -3t-1 -3q1 0 4 -0.5t5 -0.5q3 -7 -2.5 -16.5t-14.5 -14.5q0 1 -1 8t-2 11q-1 2 -4.5 4t-5.5 4q-4 -10 -2.5 -30.5t0.5 -28.5q2 2 6 5l2 2q-1 13 13 19l7 7v-7q6 -2 4 -16q-1 -3 -1 -17q8 -82 80 66l6 12q3 4 12 18t15 22q9 14 69 100q3 5 41 56l42 61l60 89l20 29
q4 7 12 9q20 5 25 5q8 1 10 -2.5t-1 -11.5l-3 -11.5t-4 -11.5q-2 -5 -8 -15q-2 -3 -8 -13.5l-9 -15.5q-4 -8 -7 -11q-5 -9 -17.5 -25.5t-17.5 -24.5q-2 -3 -6.5 -11.5t-7.5 -12.5l-62 -93l-1 -2q-1 -2 -2 -2q-12 -12 -28.5 -38t-23.5 -35q0 -1 -2 -3q-9 -18 -31 -50
l-14 -23.5l-14 -23.5q-7 -11 -22.5 -32l-20.5 -28q-1 -3 -5 -7.5t-5 -6.5q-11 -22 -42 -55q-18 -22 -21 -35q-1 -2 -4 -7t-4 -7zM159 144q-5 -2 -5 -3q0 -13 4 -15q0 3 0.5 9t0.5 9q1 1 3 1q3 1 4 4q-1 1 -1 2q-3 -1 -4 -4l-1 -1q0 -2 -1 -2zM53 55q1 -12 2.5 -14t6.5 -3v-5
q-2 -8 4 -10q5 18 -4 43q0 -5 -1 -8q-2 -1 -8 -3z" />
    <glyph glyph-name="W" unicode="W" horiz-adv-x="587" 
d="M176 206q8 11 13 14q3 2 7 8q3 7 9 18t8 16q30 60 39 83q22 50 26 70q4 16 18 35q3 6 19 10q9 2 12 1.5t10.5 -2t10.5 -1.5q5 -1 14 -3.5t11 -3.5q18 -4 18 -15q-1 -7 6 -16q3 -3 0 -14q0 -10 1 -11q2 -1 0 -6q-15 -43 -16 -44q-9 -15 -12 -28q-5 -22 -25 -74
q-19 -55 -23 -87q-23 -100 0 -90q26 11 81 116q13 26 22 46l18 40q22 55 26 69q22 70 25 94q10 63 10 110q0 9 -0.5 26t-1.5 25q0 8 -3 17q-6 8 -15 6q-12 -2 -16 10q-7 16 -8 20q-1 2 1 9l5 10q4 2 13 5l19 -6.5t20 -6.5q17 -4 25 -12q4 -2 7 -3q6 -3 8 -12q0 -3 9 -17
q7 -10 15 -15q2 -1 4 -8q4 -13 10 -17q10 -5 5 -20q-1 -7 3 -11q6 -7 6 -17q0 -3 2 -9.5t1 -10.5q-1 -2 -1.5 -6t-1.5 -6q-2 -7 0 -10q2 -4 1 -6q-2 -3 -2.5 -5.5t0.5 -5t1 -4.5q1 -3 1 -20q0 -12 -1 -17q0 -17 -2 -25q-1 -4 -5 -15.5t-5 -17.5q-2 -4 -3 -7q-4 -6 -6 -12.5
l-4.5 -15t-4.5 -14.5q-1 3 -2.5 9l-2.5 10q-1 -1 -2 -2.5t-2 -2.5t-1 -2q-1 -11 -21 -66q0 -3 -3 -6q-9 -5 -14 -24q-3 -12 -12 -20q-13 -13 -15 -23l-6 -15q-11 -17 -19 -32l-40 -63q-22 -31 -57 -73q-20 -27 -48 -24q-6 0 -9 -1q-15 -2 -26 3q-33 15 -42 27q-6 6 -10 18
q-3 70 -6 77q-7 14 -39 -23l-30 -36q-3 -2 -9 -7.5t-9 -7.5q-25 -21 -72 -35h-8q-8 -1 -24.5 -1.5t-24.5 -0.5q-22 -2 -34 8q-8 5 -10 15q-8 47 3 90l12.5 43t12.5 44q40 139 46 156q4 12 7 26t6 30.5t5 25.5q9 42 8 66q0 3 1 5q20 4 30 4q13 1 15 -11q0 -6 3 -11
q6 -16 1 -49q-6 -27 -16 -81q-1 -3 -12 -71q0 -1 -3 -38q0 -15 -1 -24q-10 -71 -2.5 -93.5t28.5 -2t50 77.5zM507 438q-4 -8 -7 -22t-4 -17q-2 -5 -4 -11.5l-4.5 -15t-3.5 -12.5q-2 -7 -5 -19t-5 -19h4q18 44 29 116zM514 491q1 1 4 1q3 4 3 16q0 2 0.5 8t0.5 8t-0.5 7
t-0.5 8h-1zM588 361h2q0 2 0.5 8.5t0.5 9.5q-5 -4 -3 -18z" />
    <glyph glyph-name="X" unicode="X" horiz-adv-x="398" 
d="M-29 176l-38 -48q19 35 42 62l76 93q7 9 19 26t16 22q11 16 14.5 21.5t5 14t0 10.5t-7.5 14t-10 23q-29 63 -38 86q-2 4 -7 45q-1 1 1 5q12 7 18 -3q1 -2 7 -11t9 -14q10 -9 23.5 -42.5t27.5 -52t31 -4.5q38 43 87 85l94 84q20 18 38 8q2 -1 6.5 -3t6.5 -3q4 -2 10 -6
q14 -11 32 -41q11 -19 8 -42q-1 -13 -14 -22l-53 -40q-35 -27 -67 -44l-9 -7l-11.5 -9t-9.5 -8l-3 -3q0 -5 -2 -8t-7.5 -7.5t-6.5 -5.5q-11 -11 -25.5 -22.5t-18 -14.5t-6 -12t0.5 -18t12 -29l25 -62q2 -4 11.5 -29.5t15.5 -37.5q21 -44 43 -78q11 -16 38 -45q2 -3 8 -6.5
t8 -4.5q-3 -9 -17 -18t-17 -14q-25 -4 -36 11q-29 41 -50 78q-19 14 -43 95q-23 76 -39.5 86t-38.5 -19l-1 -1h-2q-4 -9 -11 -17q-6 -7 -14 -14q2 0 5 -0.5t4 -1.5q0 -2 -1 -2q-33 -31 -77 -82q-7 -8 -17.5 -26t-12.5 -20l-14 -19.5t-11 -14.5q-6 -9 -13 -16
q-12 -16 -34 -27q-6 -3 -35 -8q-4 -1 -11 -1q-8 -1 -9.5 0.5t-1.5 7.5q0 21 1 25q9 59 48 122q2 2 5 4q-6 -13 -8 -17l-3 -9q1 -10 -11 -20q0 -2 0.5 -6t0.5 -7l33 58q10 19 32 55v1z" />
    <glyph glyph-name="Y" unicode="Y" horiz-adv-x="521" 
d="M427 390q1 0 3 -0.5t3 -0.5q-6 -48 -8 -52q-7 -19 -6 -23t-6 -22h4.5t4.5 -1q0 -2 -8 -28q-6 -16 -5 -23q0 -4 -6 -12t-7 -10q-3 -4 -7.5 -12t-6.5 -12q-2 -5 -4 -14q5 -2 5.5 -15.5t-2.5 -20.5q16 1 52 -9l-29 -19q-23 -15 -26 -18q-9 -8 -13 -23q-1 -1 -1 -4v-4
q-6 -6 -8 -18t-7 -18q-1 -1 -1 -4q-2 -16 -3 -27l8 -2q-5 -3 -13 -9q-6 -12 -8 -18q-2 -7 -21 -36l-6 -6q-26 -17 -44 -20q-5 -1 -27 -11q-44 -16 -59 -23q-6 -3 -31 -13q-18 -5 -37 -4q1 1 2.5 2t3.5 3.5t3 3.5q-3 0 -8 -0.5t-8 -1.5q-22 -6 -40 -5q-9 1 -24.5 1.5
t-20.5 0.5q-1 0 -19 3q-1 0 -3.5 1.5t-4.5 1.5q-15 -1 -30 18q-11 15 -26 39q-2 3 0.5 10.5t8.5 12.5q17 15 33 19q26 8 38 9q24 4 77 27l118 51q11 5 14 8.5t5 13.5q2 13 8 41v2q0 13 6.5 29.5t8.5 25.5l12 71q0 3 -2 4q-1 -3 -2.5 -10t-1.5 -10q-1 12 11 54q-2 0 -2 1
q-7 -10 -8 -12q-4 -11 -16 -22.5t-17 -18.5q-12 -19 -7 -31q2 -2 0 -7q-3 -5 -11 -15q-12 -21 -55 -37q-9 -3 -27 -7q-72 -18 -93 35q-5 11 -11.5 17.5t-8.5 12.5t0 23q3 20 4.5 38t4 30t10.5 39q1 2 2 6q4 11 5.5 16.5l3.5 13t0.5 10t-4.5 4t-10.5 -2t-18.5 -10.5
q-6 -2 -24 -17q-5 -6 -11 -11q-2 -1 -8 -1q-2 2 1 7q6 7 13 21.5l9 18.5q37 60 53 78q3 3 9 11.5t9 11.5t9 8t9 8q8 6 12 13q8 9 18 12q71 16 110 -27q19 -21 7 -67q-4 -12 -9 -35t-6 -26l-2.5 -10.5t-3 -12t-3.5 -10.5q-8 -18 -5.5 -20t-2.5 -21q-26 -87 4 -63
q40 33 137 199q29 50 37 69q6 17 15 34l25 51q11 22 12 25q3 6 11 8q11 0 12.5 3t9.5 -4q7 -3 8.5 -5t2 -5.5t4.5 -8.5q5 -11 1.5 -20.5t-13.5 -27.5t-12 -27q-10 -51 -12 -70q-1 -9 -2.5 -31.5t-3.5 -33.5zM266 209q-12 -27 -5 -40q1 5 2.5 18.5t2.5 20.5q9 37 16 61l15 60
q-4 -1 -4 -4l-27 -99q-2 -15 0 -17zM45 -109q16 -8 45 5q14 6 40 22q35 14 60 56q21 35 2 38q-15 2 -53 -25q-55 -25 -94 -31q-3 -1 -9 -2.5t-9 -2.5q-19 -5 -13 -19l15 -26q4 -7 11 -6q2 0 4.5 -1t5.5 -2l6 -2q-3 -1 -6.5 -2.5t-4.5 -1.5zM259 158q-17 -80 -17 -87
q1 5 6 21t6.5 24t3.5 20t1 22zM219 17h-2q-2 -6 -4 -10q2 2 3.5 5.5t2.5 4.5z" />
    <glyph glyph-name="Z" unicode="Z" horiz-adv-x="489" 
d="M145 230q-2 0 -4 0.5t-3 1t-2.5 0.5h-2.5q-18 0 -26 1q-7 0 -19 4q-7 3 -4 14q15 3 16 3q6 0 17.5 1t21 1.5t17.5 0.5q12 0 27 13q42 48 65 71q23 16 15 30t-40 13q-60 -3 -101 12q-45 18 -55 60q-2 7 -7 18.5t-6 14.5q-3 11 8 12h11q23 -8 74 -2q13 1 57 8q84 13 196 28
l99 15q13 2 24 -1l-14 -11q-9 -6 -9 -14q1 -7 -7 -14q-16 -12 -50 -51q-32 -34 -45 -43q-5 -4 -15 -16q-17 -19 -32 -38q-28 -23 -39.5 -49t3.5 -38t64 3q-5 -9 0 -23q3 -11 -10 -15q-37 -14 -68 -9q-20 2 -33 -4q-10 -5 -11 -8q-4 -9 -15.5 -23.5t-13.5 -18.5
q-96 -100 -84 -120t138 42q22 8 41 18q35 16 68 34q1 0 5 2l3 -20q-1 -1 -1 -3.5t-1 -3.5l-5 -13l-5 -13q-11 -31 -17 -42q-14 -30 -45 -43q-4 -2 -18 -7.5t-21 -9.5q-3 -2 -46 -19q-50 -20 -83 -18q-9 0 -27.5 -0.5t-27.5 -0.5q-25 0 -37 2q-13 2 -44 8.5t-48 8.5
q-24 3 -24 22q0 9 -12 18q-12 7 -10 20.5t17 22.5q3 3 9 3q14 4 19 4q20 2 53 31q5 5 13 14.5t12 13.5l87 92z" />
    <glyph glyph-name="bracketleft" unicode="[" horiz-adv-x="250" 
d="M205 560q-7 -24 -11 -34q-4 -14 -6 -20q-10 -18 -12 -48l-3 -20l-9 -64q-6 -26 -8 -39q-3 -11 -7.5 -34.5l-6.5 -34.5l-12 -52q0 -2 -1 -6t-1 -6q-2 -20 -5 -30q-1 -8 -4 -24t-4 -24q-5 -26 -13 -76l-3 -12q-11 -39 -16 -82q-1 -9 -5 -25t-5 -19q-1 -5 -4 -15t-4 -15
q-2 -8 -1 -9.5t8 -2.5q39 0 59 -1q21 0 33 -18q0 -2 1 -5.5t2 -4.5q-2 -14 -13 -14q-19 0 -59 2h-31q-2 0 -5.5 1t-5.5 1q-13 1 -18 15q-1 2 -4 6t-4 6q-8 11 -5 26q4 15 9.5 43.5t9.5 42.5q5 30 6 32q2 14 7 43t7 43q3 13 7 37t6 37q2 18 10 54l8 46q16 72 25 108l34 149
q3 11 8 25q6 20 10 30q4 11 -2 15q-8 6 -6.5 20t13.5 24q2 3 9 5q14 4 41 6q17 0 22 2q31 12 53 -12q3 -3 27 -32q2 -3 4 -11q4 -10 -6 -20q-13 -12 -27 -13q-3 0 -48 -3q-17 -2 -30 4z" />
    <glyph glyph-name="backslash" unicode="\" horiz-adv-x="549" 
d="M251 454v1q-1 0 -3 1h-2q-1 -5 9 -15l6 -6l-5 -5q3 -2 9.5 -10t11.5 -11q1 -1 2.5 -3.5t3 -5.5l2.5 -5q2 0 4 1q2 -5 8 -15q16 -24 28 -44q7 -7 8 -9q7 -18 19 -27l1 -1q0 -8 7 -11q10 -16 16 -24h-1q14 -18 25 -38q2 -2 4 -11q9 -3 7 -12q0 -6 5 -8q5 -3 8.5 -7t7.5 -10
l6 -9q22 -38 34 -56q2 -2 2 -5q22 -22 43 -77q0 -2 3 -3q-2 14 -5 21q2 -4 10 -26q3 -10 -6 -14q-5 -4 -13 -15q-7 -13 -16 0q-5 13 -11 22q-18 34 -26 41q-20 20 -34 48l-3 3q-13 21 -41 61l-7.5 11t-8.5 12q-4 4 -14 15t-14 17q-16 27 -29 42q-10 12 -46 66q-2 4 -7.5 11
t-7.5 9q-10 16 -39 53l-31 40l-56 79l-43 57q-15 20 -28 64q-1 8 0 17q0 14 12 9q8 -2 11 -6q36 -27 46 -35q30 -25 72 -82q10 -12 20 -26.5l22.5 -32l19.5 -27.5l1 -3z" />
    <glyph glyph-name="bracketright" unicode="]" horiz-adv-x="319" 
d="M263 606q0 -1 -10 -27l-18 -44q-2 -4 -4 -12.5t-2 -9.5q-1 -2 -2 -6.5t-1 -6.5q-2 -9 -9 -33.5t-10 -37.5q-1 -3 -4 -19q0 -2 -2 -8q-4 -18 -14 -56q-13 -42 -16 -53q-9 -26 -25 -78q-2 -8 -4 -11q-1 -10 -14 -73q0 -2 -1 -6t-1 -6q-3 -18 -10 -35q-2 -8 -4 -22
q-2 -5 -4 -14t-3 -14q-5 -19 -10 -47q-3 -9 -6.5 -24.5t-4.5 -20.5q-6 -20 -8 -35q-3 -9 -8 -19q-1 -3 1 -10q3 -21 3 -22l-3 -7q-6 -4 -19 -22q-2 -3 -13 -13t-14 -11q-1 -1 -2.5 -1t-2.5 1q-3 4 -7.5 6.5t-10 4t-8.5 3.5q-6 4 -23.5 10.5t-24.5 12.5q-5 2 -13 8
q10 26 -5 30q2 1 6 1q1 0 9.5 -1t12.5 -2q19 -3 60 1q2 4 3.5 14.5t5.5 14.5q1 2 2 6.5t2 6.5q7 18 6 23q-2 4 2 8q1 4 2.5 12t2.5 12l6 24q1 5 2.5 13.5t3 15.5t3.5 13q3 15 13 45q1 3 1.5 7.5t0.5 6.5q12 48 22 140q16 109 54 234q15 56 31 85q2 4 7 31q2 4 -4 6
q-10 2 -14 4q-22 6 -31 3q-4 -1 -9 4q-2 3 -8 9q-3 5 -2 7q2 3 7 6q28 6 39 8q7 1 21 2t21 2q8 0 24 4q10 1 12 -6q1 -4 9 -12l7 -10zM171 531q-8 -14 -7 -21q7 8 7 21z" />
    <glyph glyph-name="asciicircum" unicode="^" horiz-adv-x="241" 
d="M249 458q-9 0 -12 7q-2 3 -5 9l-5.5 11t-4.5 10q-2 4 -10 32q0 1 -2 9q-2 -2 -6 -5t-5 -4l-47 -38q-10 -7 -24 -12q-25 -6 -37 -17q-7 3 -17 9q-7 2 -3 9q3 12 10 21q6 10 16 23q48 53 68 70q1 0 1 1l2.5 2.5t2.5 3t2.5 2.5t2.5 1q3 1 8.5 -0.5t7.5 -1.5t4 -2
q16 -2 30 -22q13 -21 19 -48q3 -13 13 -39q0 -1 0.5 -3.5t1 -4.5t1.5 -4q0 -4 -3 -7q-2 -2 -5 -6t-4 -6z" />
    <glyph glyph-name="underscore" unicode="_" horiz-adv-x="583" 
d="M586 -84q-3 -1 -10 -3t-9 -3q-40 -6 -266 -8t-266 0q-10 0 -30 -1t-30 1q-6 1 -14 -1q-3 0 -9.5 -0.5t-9.5 -1.5q-4 7 3 12q2 2 6.5 6t6.5 6q6 6 4 10t-1.5 6.5t7.5 2.5q3 0 9 0.5t8 0.5q8 0 22.5 -1t26 -1.5t21.5 -0.5h219t219 -1q4 0 59 -6q1 0 12 -0.5t16.5 -3.5
t6.5 -10q0 -1 -1 -3z" />
    <glyph glyph-name="grave" unicode="`" horiz-adv-x="119" 
d="M144 506q-2 1 -4 1q-22 12 -46 34q-16 15 -35 37q-5 8 -10 12q-1 4 1 5l3.5 3.5t3.5 4.5q1 1 2 1q4 4 6 5q8 5 18 3t15 -10q4 -7 12 -19q5 -11 6 -20q3 -10 3 -11q5 -10 6 -11q5 -5 12 -17q4 -4 3 -8q0 -5 3 -8q1 0 1 -2z" />
    <glyph glyph-name="a" unicode="a" 
d="M358 235q8 -1 17 -10q-1 -6 -6.5 -19t-9.5 -16q-2 -1 -3.5 -3t-2.5 -2q-8 -10 -11 -13q-6 -5 -6 -7q-3 -7 -12 -12q-4 -2 -5 -4q-3 -4 -10.5 -10.5t-9.5 -8.5q-8 -7 -19 -10q-2 -1 -11 -2t-14 -3q-4 -2 -12.5 -3t-10.5 -2h-9q-28 9 -34 14q-1 1 -5 3q-17 7 -24 17
q-14 -7 -21 -13q-5 -3 -11 -7l-2 -1q-4 -5 -22 -12q-23 -7 -41 3q-5 3 -15 7q-43 18 -48 65q-3 23 8 45q14 26 24 37q0 1 2 3q12 19 44 57q17 18 38 31q4 2 9 2q12 2 19 2h3q3 -2 11 -3t10 -2q4 -2 6 -2q9 -2 11 -5l2 -1q3 0 7 -2.5t7 -2.5t5 -2q16 -16 17 -18q1 -1 2 -4
t1 -4q3 -13 -9 -20q-9 -4 -25 -16v-1q-31 -31 -33 -34q-4 -5 -12 -13q-4 -4 -24 -32q-2 -3 -10 -14q-2 -2 -4 -6q-9 -17 -12 -33v-4q2 1 4 3q17 17 33 29q10 8 15 17q2 3 8 9q12 14 17 22q14 22 21 34q15 2 22 -7l6 -6q7 -9 9 -29q0 -1 -2 -5q-6 -14 -14 -28q-4 -11 -3 -21
q3 -14 9 -25q3 -5 9 -5q14 2 21 5q16 8 19 10q14 8 22 13q3 3 8.5 7.5t7.5 6.5q7 6 23 29t23 30l1 1q2 0 2 1z" />
    <glyph glyph-name="b" unicode="b" horiz-adv-x="356" 
d="M31 -28q12 26 34 50q25 28 58 59l44 39q7 7 10 16l14 41q8 26 6 59q-2 12 -5 14.5t-14 0.5q-11 -3 -20 -14q-3 -4 -9 -10q-7 -5 -8 -12q-3 -11 -9 -16q-5 -5 -7 -15q-2 -12 -10 -16q-4 -2 -6 -11q0 -9 -7 -19l-3 -9q-1 -2 -2.5 -6t-1.5 -5q-4 -13 -16 -13q-4 0 -14 -4
l-9 -3h-7q-2 0 -8 -1t-9 -1q-2 0 -4.5 1t-5.5 2.5l-5 2.5q-17 4 -25 24q-4 13 -5 23q-2 14 -2 22q0 5 2 17l3.5 20l3.5 20q3 17 13 54q4 7 5 14q4 22 16 50q22 51 45 95q10 18 16 27q2 5 7 13.5t7 12.5q1 2 17 32q1 2 8 14q37 49 60 75q6 8 9 11q5 5 7 5q1 0 4.5 2t5.5 3
t4 0q1 -1 16 -13t17 -12l20 -16q4 -5 13.5 -22.5t13.5 -22.5q6 -11 -3 -39q-1 -2 -5.5 3.5l-9 11t-5.5 3.5q-3 -6 -5 -6.5t-5 -7.5q0 -1 -5.5 -6.5t-11.5 -10.5l-7 -6q-7 -13 -27 -31l-12 -15q-3 -3 -8 -10.5t-8 -10.5t-7 -10t-6 -9q-18 -24 -22 -33q-1 -1 -12 -18t-13 -25
q-3 -10 -8 -17q-3 -5 -7 -17l-15 -37q-3 -4 -6.5 -26t-5.5 -24q0 -1 -1 -5q-10 -43 -1 -43q3 0 7 3l8 12.5t8 11.5q22 32 34 48q6 10 19 19q7 6 16 6h5q24 3 41 -19l12 -15q11 -20 8.5 -43.5t-0.5 -36t19 -2.5l85 52q9 5 13 8t13 8l1 -8q-1 -14 2 -15l-5 -5l-6 -3t-2.5 -2
t-2.5 -2.5t-5 -4.5t-9 -6.5t-9 -6.5q-23 -14 -24 -15t-9 -7q-9 -2 -21 -14q-9 -7 -17 -14.5t-13 -10.5q-10 -8 -14 -13.5t-6 -15t-5 -16.5q-5 -13 -6 -14l-1 -2q-2 -6 -3.5 -9t-4.5 -7l-6 -8q-24 -32 -27 -35q-2 -2 -6 -5.5t-6 -5.5l-6 -6q-8 -14 -23 -21q-8 -3 -15 -9
q-8 -7 -16 -8q-10 -3 -20 -1h-2q-2 2 -21 7q0 1 -0.5 3t-0.5 4q-6 1 -17 14q-10 12 -13 21zM83 -20q15 8 29 30q1 1 3 5t3 5q2 3 7 8t7 9q8 11 16 25q4 8 -2 7q-11 -1 -18 -11q-4 -6 -12.5 -14.5t-13.5 -15.5l-5 -5l-13.5 -14t-15.5 -15l-2 -2q-15 -12 -10 -18q4 -5 27 6z
" />
    <glyph glyph-name="c" unicode="c" horiz-adv-x="319" 
d="M353 240q-4 -19 -22 -40l-18 -25q-11 -16 -18 -31q0 -3 -1 -3q-18 -26 -20 -28q-22 -24 -32 -34q-16 -14 -34 -25q-40 -23 -51 -23q-3 0 -25.5 1t-25.5 -1q-12 -2 -57 15q-23 10 -39 22q-28 22 -32 65q-3 25 0 51q2 15 6 30q1 4 4 11t4 10q3 10 29 59q2 2 4.5 6t3.5 6
q15 22 26 31q4 3 11 9.5t13 11.5t12 9q10 7 21 7q3 0 9 2q13 6 23 5q1 -1 1 0q17 1 33 -10l1 -1h2q2 0 3 1q5 3 8 1q5 -5 4 -11q-2 -6 1 -13q1 0 1 -2v-2l-6 -9q2 -12 4 -18q3 -13 3 -28q0 -10 -1 -15q-5 -25 -17 -51q-5 -11 -13 -12q-1 0 -3 -0.5t-3 -0.5q-4 0 -6 2
q-4 4 -18 11q0 1 -1 1t-2 1q-5 4 -4 10q2 10 3 14q13 45 19 58q0 3 1 6l-2 -2l-2 -1q-1 -3 -24 -34q-12 -16 -21 -36l-24 -50q-8 -15 -18 -49q-1 -1 -3 -16q-2 -11 3 -21q3 -6 9 -20q2 -4 8 -12q5 -2 10 -1.5t15 3.5t12 3q17 2 45.5 15t42.5 25l17.5 14l22.5 18.5t16 15.5
l15 18q4 6 22.5 22t23.5 23q2 4 13 12t13 11q1 2 2 -2q1 -9 3 -9z" />
    <glyph glyph-name="d" unicode="d" horiz-adv-x="487" 
d="M333 -13q9 1 14 3t9.5 5t7.5 4q1 1 2.5 2t2.5 2.5t2 2.5q5 7 4 9q-1 1 4 9q6 13 13 22q5 7 11.5 26t15.5 37q11 15 21 32t21 38t18 32q3 6 6.5 14t4.5 10.5t5 2.5t11 -5q5 -5 4 -5.5t-4.5 -5t-3.5 -11.5q6 0 -10 -16q6 -9 -2 -19q-4 -2 -4 -9.5t-1.5 -12t-8.5 -2.5
q-5 -8 -17.5 -21t-17.5 -24v-15l-9 -11q-15 -20 -19 -41q-3 -2 -3 -3l-14 -19q-4 -4 -6 -11q-4 -12 -12 -25q-8 -12 -12 -17q-12 -14 -20 -19q-2 -2 -21 -16q-5 -2 -15.5 -8.5t-17.5 -9.5l-2 -2q-1 -3 -2 -4q-14 0 -27 5q-5 2 -11.5 4t-9 3.5t-7 5.5t-10.5 11q-17 12 -34 41
q-13 29 -14 35q-2 5 -3 5q-4 5 -4 14q1 4 -1.5 12.5t-2.5 10.5q-4 18 -5 28q-2 10 -1 16q0 1 -1.5 2.5t-1.5 2.5l-6 -6q-7 -8 -10 -21q-6 -28 -31 -35q-10 -4 -13 -7q-10 -10 -26 -6q-25 6 -38 14q-25 13 -38 41q-9 17 -8 35q0 3 -2 11v11q0 27 3 39q13 51 23 69
q26 44 46 64q28 31 72 45q2 1 18 4q2 0 8 -2q4 -1 10 -4t7 -3q22 -30 30 0q2 6 4 21q5 28 10 37q1 2 2.5 6.5t2.5 6.5q3 6 7 20q8 18 11 27q1 3 6 16l23 44q14 22 23 31q14 11 26 23l12 9q14 8 25 16q16 12 39 0q5 -3 12.5 -9.5t12.5 -9.5q2 -2 4 -8q2 -26 1 -33
q-2 -14 -3 -22q0 -17 -5 -25q-1 -1 -1 -3v-3q-2 -10 -6 -17q-6 -9 -13 -24q-6 -16 -10 -24q-4 -13 -5 -17q-5 -15 -12 -25q-11 -11 -16 -27q-4 -11 -15 -18q-10 -10 -13 -16q-4 -14 -23 -37q-4 -6 -5 -12.5t-3 -10.5q-4 -3 -6 -11q-4 -15 -5 -25t-6 -24q1 -3 0 -9.5t-1 -9.5
q2 -3 -2 -7v-15q2 -7 0 -20v-26q0 -3 1 -4q2 -4 2 -10v-8q1 -14 9 -40q4 -3 6 -10q4 -6 3 -9q-1 -7 5 -13q7 -14 28 -33l-8 -3l-1 3q0 3 -2 4q0 3 -4 0q5 -3 7 -7q13 -8 15 -8q0 3 2 5h-1zM287 42q1 -2 0 -3h2l-1 1q0 2 -1 2q-2 8 -7 19q-8 17 -10 18q3 -15 15 -34
q0 -3 2 -3zM266 -41l-48 -1v4l-3 3l-2 -1q0 -2 3 -3l1 -2q1 -1 2 -4t2 -4q19 -22 39 -28q1 -1 8 -1l-7 7l-37 28q-1 0 10 1t21 1.5t11 -0.5zM318 345q19 33 20 34q20 27 24 35q9 21 24 50q3 8 3 15q0 9 2 13q10 23 12 75q0 6 -2 18q-5 12 -15 6l-6 -6q-1 -4 -15 -23
q0 -1 -1 -3q-2 -4 -2 -6q1 -8 -6 -19q-4 -10 -13 -19q-7 -4 -7 -11q1 -7 -2 -17q-6 -14 -7 -21q-2 -9 -10.5 -31.5t-10.5 -35.5q-1 -6 -5 -19q-12 -50 -3 -50q6 0 20 15zM127 205q-3 -3 -23 -41l-2.5 -5t-2.5 -4l-14 -28q-8 -34 4 -56q0 -1 3 -4q6 2 18 14q4 4 8.5 9
l10 11.5t8.5 9.5q9 9 15 21q0 1 0.5 3t0.5 3q1 4 1 10t1 10q-1 10 0 21q16 51 1 55q-10 3 -29 -29zM306 -12v4l-8 8q-4 11 -15 22q-2 2 -5 1l10.5 -14l11.5 -15q0 -2 6 -6zM272 12l-1 1q-1 1 -1 2l-1 -1q1 -1 1 -2h2zM264 28l-1 1h-2q3 -1 3 -2v1zM265 21h1v1zM253 -58
q-1 0 -1 -1l1 -1v1v1z" />
    <glyph glyph-name="e" unicode="e" horiz-adv-x="336" 
d="M98 243q0 -2 -2.5 -7t-2.5 -8t-4 -5q-3 -3 -3 -5q-1 -5 -5 -6q-2 -1 -3 -8q3 0 4 -1v-1h-7q1 3 1 8h-2l-3 -21l4 -2q1 -7 1 -20q0 -8 4 -18q1 -2 6.5 -15t7.5 -15q32 -32 47 -33q7 -1 39 5q34 10 69 37q10 7 27.5 22.5t22.5 19.5l3 3l18 20q19 19 30 35q6 10 12 12
q-4 -16 -8 -25q-2 -5 -5 -8q-11 -13 -15 -21q-2 -2 -5.5 -6t-4.5 -6q-1 -1 -2 -3t-2 -3q2 0 4.5 1t3.5 2q-1 -3 -4 -6.5t-3 -5.5l3 -3q-3 -5 -10 -12q-9 -8 -17 -17q-9 -10 -29 -26q-13 -10 -14 -11q-2 -1 -6 -4t-6 -4q-12 -6 -18 -10q-17 -10 -32 -13l-9 -3q-16 -5 -36 -7
q-10 -1 -42.5 4.5t-43.5 9.5q-16 6 -26 13.5t-19 18t-13 13.5q-9 7 -14 21q-5 13 -7 42q0 44 21 89q3 6 2 15q-8 -5 -10 -11q-4 -11 -12 -26q0 6 7 22q13 29 28 51q16 25 37 46q22 24 45 38l10 5q10 4 13 -2q2 -2 5 -2.5t4 -1.5q2 -1 3.5 -4t2.5 -4q4 -2 28 -10t29 -11
q3 -2 7 -10q12 -22 16 -25q2 -1 4 -9q3 -21 0 -36q-3 -18 -15 -39q-9 -16 -11 -21q-1 -5 -10 -20q-6 -11 -18 -15q-9 -5 -19 -3q-7 2 -8 4l-1 1q-5 -1 -11.5 5t-7.5 6q-2 2 -2 5q1 2 -1 9q-10 21 -13 25q-2 6 -7 1zM152 314q-4 -3 -28 -32q-6 -9 -7 -11q-6 -10 2 -15t9 -7
q6 -7 22 -5q8 2 16 16q3 7 8.5 17.5t8.5 19.5q8 19 2.5 24t-15.5 2.5t-18 -9.5zM0 139l-2 -1q0 -1 1 -3.5t2 -4.5q0 -1 1.5 -4.5t-0.5 -4.5l-2 2q-5 10 -9 36v3q0 29 4 44q2 6 2 9v7q-5 -10 -6 -14q-1 -3 -2 -7t-1 -7q-7 -43 8 -71q0 -1 8 -11q2 -2 7 -4h3q-7 12 -8 14
q-1 3 -2.5 8.5t-3.5 8.5zM0 205q-2 -2 -2 -3q-6 -18 -2 -46l2 -2q1 11 3 31q2 14 -1 20zM69 175v2v-2z" />
    <glyph glyph-name="f" unicode="f" horiz-adv-x="310" 
d="M207 321q2 14 10 29q8 18 25 52q14 36 18 71q3 25 -8 35q-7 8 -16 -12q-2 -6 -7 -18t-7 -18l-22 -60q-1 -4 -4.5 -13.5t-4.5 -13.5q-6 -21 -26 -68q-12 -34 -17 -43q-7 -18 -10 -28t-9 -25q-13 -31 3 -35q6 1 29 -6.5t27 -6.5q6 0 20 -3.5t21 -1.5q3 1 15 4q14 5 15 5
q2 2 10 7q6 0 23 24t24 23q24 12 22 -1q-3 -21 -38 -52l-9 -7q-2 -1 -9.5 -5.5t-9.5 -6.5q-20 -7 -41.5 -9.5t-39 -0.5t-34 5t-28.5 6.5t-21 4.5t-13 -2t-3 -11q1 -14 2 -38t1 -27v-13q-1 -12 -1 -34q-3 -9 -3 -18q-5 -20 -5 -23q-3 -13 -2 -18q-4 -15 -5 -22h-1l2 4
q-1 1 -2 1l-1 -1q-1 -1 -2 -1q-1 -1 -1 -4q0 -11 -3 -16l-6 -24q-10 -31 -16 -39v-7q0 -9 -8 -17l-3 -6q-8 -20 -21 -44q-4 -11 -14 -13q-2 1 -6.5 0t-5.5 -1t-2 -1.5t-3 -0.5q-1 0 -4 -0.5t-4 -1.5q-10 -4 -21 5q-3 2 -13 12q-13 13 -13 32q-1 2 -2.5 6t-2.5 6q-4 16 -4 40
q0 40 1 49q1 1 1 2q-2 12 5 53q13 56 19 75q2 16 3 18q2 11 4 15q0 2 5 17q0 2 2 8q7 20 9 33q6 22 23 64q0 2 2.5 6t2.5 7q3 16 38.5 96t65.5 138l-11 -13l-11 -12q2 4 19 27t17 24q20 32 32 35q18 18 32 29q9 8 25.5 13t26.5 1q10 -3 12 -2q16 -2 36 -20q0 -2 3 -5
q3 -2 4 -4q1 -4 4.5 -13t4.5 -14t0 -17q7 -19 -3 -46q-23 -55 -52 -95q-3 -8 -13 -13q-3 -2 -10.5 -5t-11.5 -6zM46 76l-3 -9q-3 -9 -9 -29q-3 -9 -3 -19q-1 -3 -3 -13l-3 -15q-4 -16 -7 -24q1 -4 -1 -9.5t-2 -6.5q0 -2 -1.5 -6t-2.5 -7q0 -1 -5 -26q-3 -15 -4 -18
q-5 -17 -5 -22t-0.5 -14.5t-0.5 -13.5q0 -2 2 -8q9 -18 18 9q1 1 1 2q3 7 4 11t4 11q5 20 11 38q4 14 5 26q4 22 10 77q4 23 7 58q2 33 -2 33q-5 0 -10 -25zM119 449l-1 3q-1 -4 -11.5 -20t-12.5 -18q-2 -12 -8 -15l1 6q4 9 10 18.5t14 21l12 17.5l-1 4q26 33 45 54l3 2
q2 1 3.5 3t1.5 4q3 3 9 10q-12 -9 -15 -12q-12 -9 -14 -14q-41 -46 -68 -101q-1 -6 -2.5 -10t-3.5 -8.5t-3 -7.5q-2 -4 -2 -8.5t-1 -7.5v-3q4 7 12 28q2 4 16 26.5t16 27.5zM76 389q-2 -1 -3 -2q-16 -29 -27 -66v-6q5 8 11.5 24t7.5 19q6 11 11 31z" />
    <glyph glyph-name="g" unicode="g" horiz-adv-x="392" 
d="M15 -299q-17 -11 -37 -6h-2.5h-3.5h-3q-4 1 -10.5 1.5t-10.5 1.5q-6 0 -7 6q-6 34 -6 51q-2 21 10 41q33 62 54 92q31 45 68 82q6 7 12 19q1 7 16.5 49.5t16.5 47.5q0 2 -11 -9.5l-23 -24.5l-11 -14q-11 -7 -17.5 -10t-10.5 -3.5t-15 -0.5q-20 2 -44 24q-11 10 -14 27
q-5 24 17 103q2 4 4.5 12t4.5 11q15 44 29 66q7 12 21 34l18 28q5 5 11.5 13t7.5 10q7 6 11.5 9.5t11.5 8l13 8.5q4 6 8 7q13 10 22 6q6 -4 16 -1h9q10 -3 36 -24t31 -24q10 -4 17 -13q6 -6 4 -12q-1 -9 -10 -13q-9 -3 -14 0q-7 7 -19 3q-5 0 -11 -4q-13 -8 -21 -16l-29 -33
q-14 -13 -29 -39q-2 -1 -4.5 -5.5t-4.5 -5.5q-26 -37 -38 -60q-6 -7 -13 -21q-21 -46 -22 -49q-6 -38 36 7l4 4q17 14 30 34q2 3 9.5 11.5t9.5 12.5q8 13 27 35t27 34q7 9 34 36q3 6 12 6q4 0 8.5 3.5t8.5 1.5q8 -3 10 -13.5t-3 -20.5q-2 -1 -2 -3q-26 -38 -33 -49l-10 -20
q-9 -22 -18 -57q-9 -36 -1 -46t38 8q13 12 64 45t67 60q3 4 10 16.5t12 18.5q4 2 8.5 13.5t8 15t14.5 -1.5q5 -5 3 -6t-3 -3t-2.5 -4t-1.5 -3q-8 -8 -12 -22q-1 -3 -11.5 -17.5t-11.5 -19.5q-9 -19 -30 -37.5t-54 -39t-42 -27.5l-51 -43q-24 -19 -28 -43q-3 -12 -3 -15
q-9 -46 -9 -49v-1q-3 -7 -6 -21.5t-5 -21.5q-5 -24 -6 -28q-1 -5 -3.5 -15t-3.5 -15q-1 -7 -9 -17q-2 -2 -3.5 -4t-3 -4.5t-2.5 -3.5q-4 -8 -17 -21l-16 -13q-9 -5 -22 -18q-2 -2 -13.5 -3.5t-13.5 -4.5q-3 -6 -7 -2q-2 -2 -3 -2q-6 -2 -9 0zM15 -140q-2 -8 -9 -20
q-2 -3 -3.5 -8.5t-2.5 -6.5q-15 -24 -18 -50q-4 -24 10 -38q4 -6 10 -1q15 8 19 18q0 6 4 9q5 4 5 13q-2 16 4 33q5 10 5 21q2 9 7 15q-2 8 1 15q2 6 2 9q19 55 3 43q-17 -13 -37 -52z" />
    <glyph glyph-name="h" unicode="h" horiz-adv-x="462" 
d="M158 248l34 32.5t31 29.5q53 48 105 16q15 -25 -5 -111q-3 -13 -18.5 -52.5t-18.5 -48.5q-5 -44 46 -18q23 12 43 29l18 13q18 13 19 14q5 6 15.5 13t16.5 14q2 3 11 18.5t16 21.5q11 9 10 1q-1 -6 -8 -19q-13 -16 -27 -41l-9 -11q-9 -11 -10 -18q-2 -4 -13.5 -11
t-13.5 -9q-16 -21 -18 -25q-3 -3 -20 -17t-20 -16q-18 -17 -46 -21t-50 15t-16 63q4 20 35 83t33 68q4 9 7 20q2 5 2 17q-11 18 -27.5 17t-31.5 -11.5t-23 -24.5q-7 -5 -11 -13t-12 -16l-51 -63q-18 -21 -21 -25q-4 -6 -17.5 -32l-28 -54.5t-16.5 -31.5q-5 -10 -6 -18
q-1 -4 -5 -17q0 -3 -2 -9.5t-3 -10.5q-2 -18 -12 -24q-1 -1 -3 -4t-3 -5h-6q-2 2 -13 0l-3 -1l-2 -1q-1 0 -2.5 2t-3.5 2q-2 3 -6.5 7.5t-5.5 6.5q-12 11 -14 34q-8 28 -7.5 65.5t5.5 71t17 78t21 72.5l23 70t19 56q33 67 46 91q36 69 65 106q24 34 49 53q30 23 73 -19.5
t51 -80.5q13 -19 4 -42q-3 -4 -3.5 -3.5t-3.5 4t-5 4.5q-4 1 -8 3q-2 1 -6 2.5t-6 1.5q-8 2 -15 -7q-3 -2 -7.5 -7t-6.5 -8q-29 -27 -46 -58q-11 -18 -20 -25l-3 -6t-4 -5q-2 -3 -25 -41l-19 -35q-20 -36 -29 -54l-11 -23t-11 -27q-14 -35 -18 -56q0 -23 44 36q14 18 17 25z
" />
    <glyph glyph-name="i" unicode="i" horiz-adv-x="244" 
d="M46 316q4 -2 6 -1l1 1q3 3 8 7q4 1 14 6t19 8t13 0q2 -2 8.5 -6.5t8.5 -6.5q6 -8 2 -22q-3 -7 -10.5 -21l-10.5 -20q-1 -2 -2 -5.5t-2 -5.5t-1 -4q-1 -1 -5.5 -13t-7.5 -17q-2 -5 1 0l3 6l8 11v-1q0 -2 -3 -8q-8 -21 -9 -34q0 -3 -2 -34t-1 -36t8 -15q1 0 6 -3.5t9 -4.5
q4 -3 16 -1q38 14 50.5 24t23 30t27.5 38q22 32 25 41q0 1 3 6q1 -4 1 -8t-0.5 -8t1 -7t6.5 -4q-5 -10 -18 -39t-25 -47t-27 -27q-14 -18 -54 -42.5t-68 -13.5q-6 -2 -13 0t-15.5 7.5t-13.5 7.5q-14 6 -29 22q-10 26 -10 40q-2 6 -2 18q1 5 2 22t3 21q3 15 3 16l1 3q2 3 6 4
q1 0 2 3l1 2q3 4 5.5 10.5t5.5 9.5l-12 -10q-2 0 3 9q4 11 16.5 30.5t15.5 25.5l2 5q6 11 4 17q-1 5 3 14zM150 432q-2 -2 -3.5 -4.5t-2.5 -3.5q-4 -7 -5 -9q0 -3 -2 -5t-10 -12q-4 -6 -15 -8q-3 1 -7 -3q-7 -5 -14 -1q-3 2 -8 2q-7 0 -11 1q1 1 3 4q0 2 1 6q2 2 2 4
q2 4 7 13q0 1 1 3l2 2q0 1 8 17l6 9q4 4 6 4q3 2 5 0q0 -3 4 -1q3 2 4 1q3 -1 13 -4q10 -4 16 -15z" />
    <glyph glyph-name="j" unicode="j" horiz-adv-x="238" 
d="M94 33q14 10 84.5 102.5t72.5 94.5q2 -1 1 -4l-3 -6q-2 -3 3 -3q8 0 8.5 -0.5t-0.5 -2.5t-5 -12.5t-8 -19.5t-6 -10q-3 -3 -9 -7q-7 -6 -12 -17q-1 -3 -13.5 -20.5l-26 -36l-26.5 -36.5t-14 -19q-2 -2 -2 -3q-1 -5 -19.5 -24t-22.5 -22q1 -11 -13.5 -23t-34.5 -23.5
t-26 -18.5q-31 -16 -42 -44q-2 -11 -6 -21.5t-11 -24t-9 -19.5q-7 -11 -9 -13q-8 -6 -22 -20q-11 -8 -14 -9q-11 -6 -29 -8q-6 0 -10 3q-2 2 -9.5 8.5t-10.5 10.5q-14 13 -24 39q-4 16 -12 30q-6 5 -8 18q0 1 -0.5 3t-0.5 3q-3 13 -12 17q-7 4 -19 16q-1 -1 -1.5 0.5
l-1.5 4.5q5 0 7 -1q4 -2 13 0l36 6q5 2 15 4q19 0 28 1q38 3 50 38l27 91q13 45 20 63q9 28 15 51t16 51q6 18 19.5 52.5l19.5 50.5q1 4 6 14.5t6 15.5q2 5 7 27q6 6 17 0q15 -5 17 -5q17 -8 28 -20q6 -6 8 -18q11 -26 9 -66q0 -1 -6 -37q0 -3 -2 -6.5t-2 -4.5
q-1 -18 -13 -44.5t-14 -31.5q-1 -5 -6.5 -14t-6.5 -15q-2 -9 -4.5 -14t-4.5 -14q-38 -69 -27 -82q8 -9 45 25zM-188 -114q0 -5 5 -10q4 -7 14.5 -24t14.5 -28l4 -4q2 -3 6 -7.5t4 -5.5q4 -5 8 -1q4 6 6 12q14 32 23 66q0 7 -11 8t-26.5 -1t-18.5 -2h-3q-1 0 -10.5 -1
t-15.5 -2zM77 543q1 1 3 1t3 1q19 -1 37 -13q11 -6 22 -23q9 -16 0 -31q-8 -12 -12 -14q-6 -3 -12 -9q-6 -4 -8 -7q-5 7 -15 -1q-3 -2 -12 -2l-4 2q-1 5 2 27q4 30 5 44q3 13 -6 18q-3 6 -3 7z" />
    <glyph glyph-name="k" unicode="k" horiz-adv-x="448" 
d="M196 85q1 -11 10 -27q8 -16 17 -28q6 -12 17 -12q15 -4 32 3q5 2 28.5 18.5t28.5 18.5q2 1 24.5 24t25.5 25q13 14 41 59q5 8 14 25t14 25q4 8 6 13l3 12q1 -4 3.5 -6t4.5 -2h4t2.5 -1t-0.5 -4q-3 -7 -3 -13q-1 -6 -10 -21t-9 -16q-11 -29 -17 -40v-2l-10.5 -18
t-10.5 -20q-48 -54 -62 -67q-7 -6 -17 -10q-5 -2 -32.5 -22t-36.5 -22q-25 -5 -31 -5q-25 -2 -43 16q-12 14 -16 20q-32 55 -35 62q-2 2 -4 5t-3.5 4.5l-3 3t-3 1t-3.5 -2t-4 -4.5q-1 -1 -2 -6t-2 -6q-4 -6 -10 -18q-2 -8 -9 -19q-6 -6 -12 -5q-10 0 -15 -5
q-16 -7 -24.5 -6.5t-19.5 10.5q-23 14 -30 55q-1 2 -1 6q1 7 -1 47q-1 13 1 60q0 1 1.5 11t1.5 15q1 24 16 82q11 37 16 48q9 28 33 84q3 6 8.5 18t9.5 18q16 36 59 106q30 42 46 57q1 1 9 8t13 11q6 5 25 7l2 -1l3 -3q3 -7 27 -26q26 -20 46 -51q10 -13 10 -33v-9
q-2 -9 -10 -9q-1 1 -7 4q-1 1 -4 3.5t-4 4.5q-14 11 -29 -4l-13.5 -13.5l-14.5 -14.5q0 -2 -6 -10q-3 -5 -31 -44q0 -1 -3 -7q-8 -20 -15 -31q-2 -5 -6.5 -13.5l-8.5 -16t-7 -14.5q-4 -7 -11 -21q-3 -8 -12.5 -28t-13.5 -31q-19 -41 -28 -74q-1 -3 -2.5 -8t-1.5 -7
q-8 -36 -9 -38q-4 -28 5 -27q3 1 7 7q6 9 20 34.5t23 38.5q30 42 57 68q32 25 65 19q8 0 12 -9q1 -2 4 -7q11 -15 11 -37q0 -39 -11 -73q0 -2 -1 -5t-1 -5q-8 -22 -19 -36l-8 -8l-7 -7q-10 -13 -23 -18q-6 -1 -13 -5q-2 0 -3 -2q-2 -3 -3 -3zM204 253q-19 -20 -27 -40
q-8 -21 -12 -26q-2 -5 -6.5 -13t-6.5 -13q-6 -9 4 -9q14 1 22 9q32 24 54 77q11 37 1 39t-29 -24zM-5 130q2 13 0 21v-3v-18z" />
    <glyph glyph-name="l" unicode="l" horiz-adv-x="326" 
d="M335 227q18 3 -8 -44q-1 -3 -7.5 -12.5t-10.5 -17.5t-4 -13q-4 -4 -6 -5q-5 -5 -8 -12q-1 -3 -3.5 -6t-3.5 -5q-21 -37 -46 -61q-5 -4 -32.5 -30.5t-30.5 -30.5q-13 -11 -28.5 -14t-39.5 -1.5t-29 1.5q-14 0 -21 4q-32 18 -35 22q-2 5 -17.5 27.5t-16.5 40.5q0 4 -3 10.5
t-3 10.5q1 20 10 97q8 30 15 71q9 41 32 87q5 13 14.5 27t14.5 27q11 22 23 40q3 7 25 44q28 49 62 86q31 31 46 44q20 16 27 18q3 2 9 4q24 2 37 -11q15 -13 10 -42q-6 -33 -6 -35q-1 -9 -10 -27q-11 -28 -26 -49l-22 -39l-16 -26.5t-18 -27.5q-9 -12 -19 -27l-21 -32
l-18 -27l-14.5 -26.5t-9.5 -22.5t-5.5 -17.5t-4.5 -22.5t-5 -26q-1 -3 -3 -54q0 -3 2 -25t3 -24q2 -11 12 -32q0 -1 21 -9q8 -6 67 36q11 6 43 38q7 6 12 13.5l12 18.5l11 17q9 12 21.5 34.5t21.5 35.5zM129 303q24 35 38 60q37 59 66 114l15 31.5t16 31.5q7 20 10 45
q3 7 -1 7q-1 -1 -2 -1q-5 -1 -11 -5q-20 -8 -34 -29q-3 -3 -9.5 -12t-10.5 -13q-12 -14 -18 -35q-3 -5 -8 -16t-7 -16q-7 -21 -27 -63q-2 -5 -5.5 -15.5t-5.5 -15.5l-7.5 -19.5t-4 -11.5t-6.5 -20q-5 -14 2 -20q4 -4 10 3z" />
    <glyph glyph-name="m" unicode="m" horiz-adv-x="614" 
d="M183 180q-1 0 -2 1t-2 1q-1 1 -2.5 0.5t-2.5 -2.5q-1 0 -1 -2q-7 -17 -18 -14q-3 -3 -6 -7.5t-5 -6.5q-9 -4 -10 -13q0 -1 -2 -5q-2 -3 -7 -9t-7 -9q-4 -10 -18 -22l-4 -5q-5 -5 -7 -9q0 -4 -5 -4q-5 -1 -15 -9q-20 -11 -34 -12q-19 0 -31 6q-21 12 -24 48q0 10 2 15
q3 41 16 93q5 17 17 47q7 14 19 42l18 41q0 1 2 7q6 25 30 66l10 20q9 2 14 -3l15 -10t19 -12q5 -3 5 -5q19 -40 20 -46q1 -5 2.5 -14.5t2.5 -14.5q3 -18 -4 -33q-2 -4 -5 -12.5t-5 -12.5q0 -3 -2 -8t-2 -7q-12 -40 -21 -60q-1 -1 -1 -2t-2 -3q-2 -13 -7 -23q1 0 2.5 0.5
t2.5 1.5q12 13 31 36l51 60l19 23q19 26 61 72q6 7 11 8q13 6 25 4q8 -4 9 -5q3 -3 10.5 -11.5t12.5 -12.5q6 -5 11 -18q4 -15 5 -21q3 -16 -1 -31q-14 -47 -22 -65q-1 -4 -4 -13.5t-4 -15.5q5 2 7 4q26 14 55 45q28 26 51 39q3 1 8 6q8 7 15 0q2 -1 6 -6.5t8 -7.5
q4 -1 12 -12q-1 -13 0 -25q0 -9 -5 -22q-3 -2 -3.5 -8t-2.5 -8q-1 -14 -5 -35q-1 -16 0 -32q0 -9 7 -12q10 -2 39 17t38 30q23 25 47 67q2 9 6 13l2 -4q-2 -7 -0.5 -11t0.5 -12q0 1 -1 -1q0 -1 -1 -3q-4 -12 -6 -11q-1 0 -2 -2t-2 -3q-14 -25 -17 -33q0 -1 -4 -9
q-6 -4 -22 -20q0 -2 -5 -5q-4 -8 -27 -24.5t-31 -16.5q-26 0 -34 6q-2 2 -8 7t-9.5 8.5t-8 8.5t-6.5 10q-7 18 -1 42q8 42 20 73q2 6 2 10v6q-3 -1 -8 -5t-7 -4q-10 -4 -14 -7q-1 -10 -7 -19q-2 -2 -5 -7t-5 -7q-6 3 -15 -4l-24 -20q-1 -1 -2.5 -2t-2.5 -2t-2 -3
q-8 -10 -32 -28q0 -1 -2 -2t-3 -3q-4 -7 -14.5 -16.5t-12.5 -11.5q-6 -8 -10 -12q-24 -19 -51 -16q-11 1 -21 13q-10 10 -9 30q0 15 6 32q22 67 69 136q3 6 11 18.5t12 20.5q8 8 5 15q-5 5 -11 -1q-2 -2 -9 -8q-20 -20 -30 -28q-11 -13 -15 -22q-8 -18 -19 -31
q-17 -17 -23 -27l-8.5 -14t-6.5 -11q-2 -6 -9 -17z" />
    <glyph glyph-name="n" unicode="n" horiz-adv-x="487" 
d="M217 253q-2 -4 -5.5 -7.5t-7.5 -8t-6 -6.5l-19 -20t-22 -26q-12 -16 -31 -35q-10 -10 -17 -23q-10 -16 -14 -20q-6 -5 -8 -10q-5 -5 -17 -42.5t-16 -41.5q-6 -6 -13 -6q-4 0 -14 -5q-7 -6 -16 -3l-33 3q-4 1 -11.5 2t-8.5 1q-26 9 -20 42q17 74 30 110q13 34 23 55
q15 38 33 75q3 6 35 61q14 24 19 36q8 15 11 27q0 1 0.5 3t0.5 4q8 5 12 -1q10 -13 27 -18q3 0 5 -5q5 -6 15 -20q6 -9 4 -29q-1 -49 -31 -112q-12 -26 -15 -30q-13 -21 -2 -28q5 -2 11 1q17 16 41 44q13 16 31 33.5t25 25.5q13 13 19 20q7 12 21 15h10q6 -1 18.5 -1.5
t18.5 -1.5q11 -2 18 -15q4 -7 4 -15q4 -27 0 -41l-11 -49q-11 -38 -6 -83q1 -16 19.5 -17t25.5 5l7 3.5t8 3.5q16 10 40.5 30.5t34.5 32.5q1 2 18.5 15.5t19.5 16.5q4 6 8 15t8 15q1 1 1.5 2.5t1.5 3t3 3.5q0 -4 1 -5q1 -3 0 -8t0 -8q0 -1 -2 -6q-4 -5 -4 -13q-1 -7 -6 -15
q-3 -4 -13 -21t-15 -23q-43 -49 -56 -60q-2 -2 -4.5 -3.5t-5.5 -3l-5 -2.5q-1 0 -3 -1t-4.5 -1.5t-4.5 -1.5q-11 -5 -41 -5.5t-43 3.5q-64 21 -65 106q2 26 2 38q9 49 -3 52q-4 1 -11 -6z" />
    <glyph glyph-name="o" unicode="o" horiz-adv-x="314" 
d="M28 256q0 2 -1 3q-14 22 -19 63q-4 22 11 49q2 4 7 5q9 8 30 20q13 8 32 5q5 0 35 -24q16 -13 19 -15q13 -11 20 -30q7 -18 9 -22q1 -1 6 -29q2 -22 3 -24q1 -1 1 -3q-1 7 0 -1v-9q0 -4 0.5 -17.5t-1.5 -16.5q-2 -4 1.5 -8.5t9.5 -4.5q17 1 58.5 0t57.5 4l16 8q1 1 3.5 2
t3.5 2q3 -4 0 -9q-1 -2 2 -5.5t1 -5.5q-29 -31 -158 -31h-3q-6 0 -6 -3q0 -1 -2 -5q-1 -7 -19 -50q-5 -12 -19 -30q-9 -14 -14 -17q-1 -1 -3.5 -2.5t-3.5 -2.5q-5 -2 -6 -6q-13 -15 -28 -19q-4 0 -10 -4q-17 -5 -41 -1q-23 3 -40 32l-9 27q-3 31 -1 55q3 27 17 55
q12 29 37 59q2 1 4 6zM147 275q3 14 -1 24q-3 16 -7 32q-5 16 -14 24q-11 11 -13 12q-10 9 -18 13q-13 10 -41 -18q-14 -18 -11.5 -41t12 -42t23.5 -34q22 -43 50.5 -31.5t19.5 61.5zM76 147q-9 -13 -19 -43q-1 -5 -1 -16q-1 -1 1 -5q4 -9 11 -12q1 0 2 1t4 3q21 22 39 64
l4 8t3.5 9t2.5 7q-18 6 -27 2t-20 -18z" />
    <glyph glyph-name="p" unicode="p" horiz-adv-x="395" 
d="M210 128q-4 -2 -14 -4t-15 -6q-10 -5 -10 -22q2 -9 7 -9q1 1 3.5 2t3.5 2q9 5 13 12q13 18 12 25zM297 234l1 -37q0 -5 0.5 -8.5t2.5 -5.5t4 -2.5t6 0t8 1.5t11 2.5t14 2.5q28 5 48 25q9 9 25 -7q0 -3 -6.5 -13.5t-8.5 -12.5l-16.5 -9t-15.5 -7t-13 -4.5t-13 -3t-11.5 -2
t-13 -2t-12.5 -1.5q-6 -1 -11 -3.5t-7.5 -4.5t-5.5 -6.5t-4 -6.5t-4 -9t-4 -9l-4 -8q-1 -5 -15 -30l-6 -6l-10 -12q-8 -13 -17 -20l-7 -8l-10 -9q-4 -2 -9 0q-8 5 -10 6q-1 3 -1 9q-4 17 -14 18q-2 1 -10 9q-4 6 -12 11q-17 12 -3 35q5 11 15 18q8 7 20 12q7 5 19 8.5
t17 5.5q10 6 16 22q13 50 18 91v34q0 4 -1 6q-1 4 -4 5t-5 -2q-3 -1 -4 -5q-14 -22 -19 -34l-21 -42.5t-23 -45.5q-21 -40 -30 -62q-7 -16 -31 -53t-31 -58q-6 -15 -11 -18q-7 -3 -7 -16q0 -12 -3 -21q-4 -8 -6 -10q-3 -3 -11 -17q-18 -44 -20 -77q-3 -30 -4 -36
q-2 -15 -12 -19q-8 -5 -12 -15l-5 -5q-1 0 -2 -2t-2 -4.5t-2 -3.5h-1q-22 -4 -32 28q-7 23 -9 60q-3 64 7 142q1 8 9 57q5 42 19 91q17 66 36 129l4.5 13.5t5.5 17.5l17 47.5t17 45.5q5 15 20 47q7 6 15 0l24 -15l1 -1q23 -27 27 -70q3 -23 -3 -49q-11 -45 -22 -75
q-3 -7 -6 -16l-6.5 -20.5t-5.5 -17.5q-12 -42 6 -44q11 -2 17 12q1 3 10 18t11 20l33 68q7 18 18 32q2 2 9.5 11.5t12.5 14.5q11 11 22 11h17q8 2 25 -13q8 -5 10 -19q0 -3 1 -8t1.5 -9t0.5 -7z" />
    <glyph glyph-name="q" unicode="q" horiz-adv-x="354" 
d="M14 -23q20 -5 22 -5q10 -2 18 -3q3 0 9.5 -2.5t9.5 -1.5q3 3 11 29t8 30q3 10 19 48.5t19 46.5q2 4 1 6q1 2 0 3.5t-2 0.5q1 -2 -10 -12t-30 -18.5t-35 -6.5q-4 -4 -32 13q-15 13 -18 18q0 1 -4 13l-4 12q-6 17 2 79q11 44 39 85q1 2 15 20t22.5 27.5t17.5 15.5
q2 2 15 12l24.5 19l15.5 12q3 3 14 8q18 7 36 13q7 4 14 -3q3 -3 28 -21t29 -22q1 -1 17 -28q2 -2 -1 -7q-4 2 -5 3q-11 6 -21 -4q-6 -2 -8 -9q-1 -2 -24 -17l-25 -20q-12 -12 -52 -41l-13 -12.5t-20 -21t-12 -17.5q-7 -6 -21.5 -27t-18.5 -32q-8 -23 7 -21q19 3 44 32
q8 9 13.5 14.5t15.5 14t20 18.5q20 20 27 28q3 3 18 19q7 7 13 0q9 -10 18 -15q5 -4 13 -20q1 -2 1 -6q-2 -24 -10 -38q-2 -3 -3.5 -6t-3 -7t-2.5 -6q-2 -4 -7 -12t-7 -12l-17 -38.5t-18 -38.5q-3 -7 -4.5 -21.5t-4.5 -20.5q-4 -9 -11 -29.5t-10 -28.5v-3q0 -7 3 -8h8
q47 -2 56 -2q20 0 44 3q12 1 31 5q21 3 48 13q28 11 46 29q2 4 6 2q-1 -2 -5 -6l-18 -22q-5 -7 -12 -12q-2 -1 -5.5 -4t-4.5 -3l-4 -4q-2 -8 -12 -11q-7 -4 -15 -7.5l-18 -8t-16 -7.5q-4 -2 -6 -2q-7 -2 -53 -16q-3 -1 -9.5 -2t-9.5 -2q-14 -2 -23 -4q-6 -1 -7 -10l-3 -21
q-1 -2 -1 -7q3 -8 -2 -16q-7 -28 -17 -42q-9 -13 -17 -17q-4 -3 -7 -9q-3 -4 -9 -6q-5 -3 -11 1t-15 6q-13 3 -24 22q0 1 -1 1l-1 2q0 6 -2.5 14t-2.5 12q-3 9 -1 30v47q1 7 -3 9q-8 3 -26 9q-3 1 -7 2t-7 2q-7 3 -8 12v9q-2 16 -1 25v8zM137 -178q3 2 10 14q3 8 9.5 23
l9.5 22q1 2 1 5q2 6 -2 6q-12 0 -23 -4q-5 -2 -5 -9q-3 -15 -2 -26q-1 -5 -1.5 -13t-0.5 -11q0 -1 1 -2.5t2 -2.5t1 -2z" />
    <glyph glyph-name="r" unicode="r" horiz-adv-x="342" 
d="M87 180q-8 -26 5 -20q15 7 27 29q2 4 3 7q3 10 21 48.5t25 49.5q12 18 17 28q10 14 16 25q6 10 16 12q4 0 10 0.5t9 0.5q15 0 25 -22v-4q1 -6 3.5 -19.5t3.5 -21.5q1 -6 1 -40v-27q3 -2 4 -5l1 -1q1 1 5.5 0.5t5.5 0.5t2 2.5t2 2.5q8 6 12 11q4 7 10 0q0 -5 -4 -8
q-1 -1 -3 -5q-2 -6 -6 -7l-3 -3l-3 -3q0 -1 -1 -1t-2 -1q-5 -5 -11 -5q-4 0 -9 -4q-5 -3 -8 0q-4 2 -11.5 4.5t-9.5 3.5q-18 4 -26 28t-3 57q1 5 2 14.5t1 10.5l3 18q3 5 1 11q-3 0 -3 -1q-3 -3 -4 -5l-4 -8t-5 -9t-5 -8q-5 -8 -6 -18q0 -1 -3 -10q-16 -31 -23 -52
q-3 -8 -9.5 -21.5t-8.5 -18.5q-1 -3 -12 -26t-15 -36q-1 -4 -4.5 -12.5t-4.5 -10.5q-2 -6 -15.5 -31t-17.5 -28l-5 -5q-13 -19 -42 -12q-2 -2 -6 2q-21 5 -28 39q-3 17 -3 52q2 52 4 78q2 11 2.5 20t1.5 15.5t5 18.5q9 49 17 72q1 4 3.5 10t3.5 9q14 36 21 50q5 16 18 13
q7 0 25 -4q11 -2 20 -10q2 -5 27 -34q13 -23 5 -47q-2 -10 -5.5 -12.5t-6.5 -13.5q-6 -21 -24 -57.5t-24 -55.5z" />
    <glyph glyph-name="s" unicode="s" horiz-adv-x="272" 
d="M15 -129l6 8l6.5 8.5t5.5 7.5q-4 0 -13 -6v3q-2 1 -3 3q-1 -1 -3 -2t-3 -3q-4 -3 -16 -7q-2 -1 -7 1q0 1 1 2.5t1 2.5q-2 0 -4 -1t-4 -1q-2 -3 -5 -3q-10 -6 -16 5q-5 13 -7 16q-5 7 -9 29q0 8 3 16q4 16 17 36q25 36 52 60q26 24 28.5 39.5t-8.5 35.5q-6 21 -26 58
q-1 2 -3 5.5t-2 5.5q-7 10 -17.5 50t-10.5 54q1 1 1.5 3.5t1.5 4.5q-1 8 5 18q3 10 1 14q1 2 3 8t4 9q1 2 3 6.5t3 7.5l2 3q2 4 4 6l9 18q2 4 7 11l7 10q1 1 4 3q4 2 6 7q5 6 7 4q10 -5 18 -12q1 0 2 -1q6 -3 15.5 -23.5t10.5 -30.5q0 -6 2 -8q0 -12 -2 -18q-5 -20 -8 -26
q-4 -7 -7 -8q-5 -3 -8 -10q0 -1 -2 -3q-3 -5 -2 -8q0 -2 -1 -3q-5 -8 -8 -16q-7 -19 -1 -36q2 -5 10 -13q7 -6 18.5 -30.5t16.5 -29.5q3 -2 5 -9.5t4 -9.5q3 -6 8 -8t12 0.5t14.5 6l16.5 7.5t16 6q30 22 45 34q16 12 32 26q7 6 19 20q5 5 15 17q2 -4 4 -10q4 -11 -1 -18
q0 -1 -1.5 -3.5t-1.5 -4.5q-3 -10 -9 -19q-2 -3 -6 -10t-7 -10q-5 -4 -13 -12l-21 -18l-4 -4q-6 -4 -18 -13t-14 -11q-3 -3 -11 -9q-7 -5 -21 -11t-21.5 -12.5t-7.5 -18.5q4 -18 -2 -40v-4v-4l-1 -4q-2 -3 -2.5 -12t-1.5 -11q-2 -3 -5 -5q0 -1 -1 -1t-2 -1q-11 -16 -12 -19
q-6 -13 -40 -47q-6 -8 -8 -10q-3 -4 -19 -12l-2 -2q-8 -9 -19 -11q-1 0 -2 -1zM4 -16q-5 -5 -10 -6q-10 -3 -15 -15q-4 -9 -10 -13q-8 -8 -10 -13q-2 -15 -3 -16q-3 -8 2 -13q2 -3 6 -7t6 -7q6 -4 11 1q2 2 6 5t6 5t6 6.5t6 6.5q14 11 22 27q1 1 4 7q7 11 12 26q3 5 4.5 15
t3.5 14q1 0 1 3q0 27 -39 -16q-7 -8 -9 -10z" />
    <glyph glyph-name="t" unicode="t" horiz-adv-x="281" 
d="M288 231q2 0 7 1l4 -1q0 -3 -1.5 -5.5t-0.5 -5.5q2 -9 -12 -37q-3 -8 -9.5 -24t-9.5 -24l-27 -51q-3 -5 -27.5 -36.5t-28.5 -34.5q-7 -5 -24 -22t-23 -21q-22 -14 -45 -17q-27 -2 -39 1q-15 2 -34.5 20t-27.5 34q-13 23 -14 27q-6 20 -8 49q0 25 1 42t4.5 34.5t6 26.5
t10 34t12.5 40q1 3 2.5 10t2.5 10t6 20q6 22 9 32q1 5 5 14.5t6.5 17t4.5 15t0 12.5t-9 6q-16 2 -19 5q-3 2 -9 5.5t-9 5.5q-5 5 -6 9q4 2 5 2l41 9q9 2 29 4q8 2 10 8l5 10.5t5 13.5q4 7 13 27t15 30q17 27 33 42q2 3 7 8q7 5 13 4q1 -1 9 0t10 1q1 0 2 1q17 4 23 -14
q7 -14 7 -32q0 -6 2 -16q2 -6 0 -14q-2 -10 -3 -16l-6 -24q0 -5 -1 -8q3 -2 10 -2l37 3h52q3 0 6 -0.5t6.5 -1.5t6.5 -1l-4 -6q-3 -3 -7 -5l-11 -5.5t-11 -4.5l-1 -1q-3 0 -15.5 -3t-19.5 -2q-10 0 -21 -3q-2 -1 -7 -2t-6 -1l-23 -3q-5 -1 -8 -8l-1 -1q0 -2 -1 -2
q-7 -19 -21.5 -53l-19.5 -46q-4 -8 -5 -11q-8 -17 -12 -30q-4 -11 -13 -26q-2 -3 -3.5 -11t-4.5 -12q-8 -19 -15.5 -65t-6.5 -74q1 -20 10 -46l9 -12h1q2 -1 3 -1q29 0 36 5q12 8 42 33q46 46 59 72q4 8 11 27.5t12 27.5q4 10 19 43zM124 332q10 27 20 47q9 22 6 29t-26 -5
q-6 -19 -13.5 -48t-10.5 -39q-14 -51 -3 -39q11 13 27 55zM169 463q4 20 6 31q1 4 3 14q1 4 2.5 12t1.5 12q1 9 -1 27q-2 7 -6 3q-7 -5 -9 -10q-8 -15 -10 -26q0 -2 -2 -5t-2 -4q-4 -8 -6 -13q-5 -24 -7 -32q-3 -19 11 -21t19 12z" />
    <glyph glyph-name="u" unicode="u" horiz-adv-x="402" 
d="M162 161q-6 -6 -57 -39q-10 -5 -29.5 -8t-20.5 -3q-23 0 -39 9q-18 11 -22.5 19.5t-8.5 35.5q-5 14 5 42q3 13 34 67t34 60q10 22 18 34q2 6 13 12q1 0 8.5 2.5t10.5 5.5q8 4 9 10t5 6q14 0 22 -11q2 -1 4 -4.5t4 -5.5q2 -1 2 -10q-3 -13 -17 -48.5t-17 -47.5
q-3 -4 -6 -22t-3 -19q-4 -18 -9 -29q-6 -24 -2 -27q1 -2 3 -7.5t4 -9.5t5 -3q9 5 35.5 13t33.5 17q4 6 10.5 8.5t10.5 7.5q3 3 12 18q3 7 6.5 11t5.5 9q6 12 23 36q3 10 13 23q8 2 13 1h8q-1 -3 3 -5q1 -2 1 -5.5t2 -4.5q-3 -8 -7.5 -28.5t-9.5 -32.5q-1 -3 -2 -4
q-2 0 -5 -5q1 -7 -7 -23q-1 -3 -3.5 -13t-5.5 -15q-12 -51 -12 -56q-1 -6 8.5 -11t25 -5t33.5 5q17 8 43 32.5t40 47.5q20 34 24 40q8 14 13 -3q4 -11 1 -16q-5 -8 -6 -12q-4 -3 -12.5 -22t-11.5 -22l-1 -3q-2 -3 -5 -4q-27 -36 -59 -61q-5 -1 -10.5 -4.5t-8.5 -4.5
q-7 -7 -18 -13q-7 -3 -11 -7q-6 2 -13 -3q-14 -11 -58 -7.5t-48 26.5q-9 53 -1 82v4z" />
    <glyph glyph-name="v" unicode="v" horiz-adv-x="365" 
d="M381 219q1 -2 -1 -4l-5 -24q0 -1 -2 -2.5l-4 -3t-3 -2.5q-1 -4 -17.5 -9t-20.5 -5q-3 -2 -10 -0.5t-12.5 4.5l-10.5 6t-6 3q-14 10 -15 11q0 1 -4.5 5l-9 8t-5.5 5q-5 9 -12 20t-11 18q-2 -2 -15 -29l-10 -21t-14 -26q-2 -1 -3.5 -3.5t-2.5 -3.5q-4 -13 -17 -26
q-8 -10 -14 -26v-2q-1 -2 -1 -3q1 -5 -6 -18q-10 -12 -15 -23q-10 -24 -26 -34q-4 -6 -12 -6q-7 0 -11 1q-4 0 -18 -2q-24 -10 -34 12q-2 4 -20 18t-19 15q-6 6 -11.5 19.5t-4.5 19.5q0 1 3 22q2 8 5 24.5t5 24.5q2 7 4.5 19t3.5 18q3 12 9 39.5t10 41.5q6 19 11 46
q3 24 4 28q1 5 1 7.5v6.5q2 7 3 8q5 3 10 -2q1 -2 5 -6q5 -6 9 -6q6 0 6 -4q3 -5 20 -20q0 -1 5.5 -9t6.5 -14q-6 0 -10 1q-4 -11 -1 -17q4 -8 6 -33q0 -3 0.5 -7.5t0.5 -5.5q4 -12 4 -37v-8q1 -10 1 -30q-1 -9 1 -23q0 -7 -3 -14l-3 1q0 2 -0.5 6.5t-1.5 6.5l-3 3h-3
q-2 0 -2 -3q0 -21 1 -31q2 -10 1 -16t2 -9h5q3 0 1 4q-1 5 3 19l2 2v-2q1 -1 1 -2q2 -6 2 -16q0 -1 0.5 -3t1.5 -3l1 -3q-2 -4 -2 -5.5t2 -4t2 -4.5q2 1 5 4q32 39 43 56l15 21q10 12 16 30q3 12 10 22q6 13 11.5 17t8.5 15q1 3 -6 30q0 4 -0.5 8t-0.5 5.5v3t1 2t2.5 1
l4.5 1.5q16 0 25 -6q3 -1 3.5 -2.5t4.5 -1.5q2 1 10 -2q3 -1 4 -5l2 -6q6 -37 21 -73q2 -2 9 -11t14.5 -15t16.5 -4q4 1 11.5 4.5t13.5 4.5q5 1 13.5 8.5t11.5 9.5q1 1 3 1zM90 227q-2 -4 -4 -5l1 -2h1q0 1 0.5 3.5t1.5 3.5v5q-2 2 -3 1v-3zM95 112l1 2q4 2 0 4h-1l-1 -2v-2
q1 0 1 -2zM87 210l1 3l-1 1l-1 -1v-2zM96 102q-1 1 -1 3q-1 -1 -1 -2l-1 -1q0 -1 1 -1q1 1 2 1zM90 203q0 1 -1 1v-1h1z" />
    <glyph glyph-name="w" unicode="w" horiz-adv-x="487" 
d="M124 119q2 4 7 6q24 25 37 48q12 22 62 102q3 5 9 14t8 14q14 5 28 -2q3 -2 2 -4q0 -1 -0.5 -3l-0.5 -2q-4 -16 3 -28q5 -5 3 -12q-5 -15 -5 -46v-40q0 -19 3 -40q0 -5 7 -11q0 1 1 2l3 6q17 25 35 71q18 42 26 63q7 14 10 30q3 9 7.5 24.5t6.5 20.5q0 2 9 47q0 14 5 21
q2 4 0 12q-2 9 1 15q1 3 5 4.5t6 0.5q2 -2 7 -5t8 -6q3 0 3 -5q1 -9 3 -25v-5q2 -7 7 -16q0 -14 3 -18q5 -11 2 -25l-7 -27.5l-8 -30.5q-1 -5 -5 -15t-5 -14t-4 -11t-3 -11q-2 -8 -16 -46q-2 -2 -4 -8q-3 -6 -7.5 -18.5t-8.5 -19.5l-1 -2q-1 -1 -1 -2l-18.5 -21.5
t-12.5 -15.5q-6 -7 -11 -6q-9 0 -17 -3q-14 -8 -31 -1q-3 1 -10 2.5t-10 2.5q-7 2 -21 13q-14 16 -21 31q-1 3 -3 8.5t-2 7.5l-2 6q-1 0 -2.5 -0.5t-2.5 -1.5q-3 -3 -4 -8l-11 -14q-10 -13 -14 -21q-9 -7 -13 -17t-16 -17q-3 -1 -9 -4.5t-10 -5.5q-1 -1 -19 -7
q-11 -4 -22 -6q-9 -3 -20 -3q-18 2 -33 11q-7 3 -14 12q-12 20 -15 36q0 1 -0.5 3.5t-0.5 3.5v13q-5 20 1 67q5 35 17 69l18 53q9 17 14 32l23 58q5 10 17 28q2 7 11 16q18 2 22 2q3 1 6 1q38 -5 62 -26q3 -2 10 -16q2 -4 0 -17q-3 -12 -11.5 -35t-10.5 -29q-3 -6 -12 -25.5
t-12 -29.5l-15 -39l-4 -8q-5 -8 -7.5 -16.5t-4 -18.5t-3.5 -16q0 -5 -1 -22t1 -22q0 -1 1.5 -3.5t1.5 -3.5z" />
    <glyph glyph-name="x" unicode="x" horiz-adv-x="341" 
d="M20 334q9 8 21 3q12 -4 25 -17l12 -11.5t14 -14.5q2 -3 4 -3q6 -3 21 -28q3 -6 7 -10q4 6 6 10q15 25 30 54l53 90q1 1 2 2.5t2 2.5q14 -5 20 -19q4 -6 6 -7q9 -16 11 -25q8 -32 8 -52q0 -24 -6 -45q-12 -28 -16 -36q-3 -6 -16 -34q-14 -31 -32 -58l-2 -2q-1 -3 -3 -5v-3
q-1 -6 4 -13q7 -11 21 -29q5 -7 14.5 -5.5t16.5 11.5q3 8 6 11l7 14q9 17 15 0q8 -25 5 -50q-4 -16 -4 -22q0 -4 -2 -6q-4 -7 -11 -28q-2 -10 -12 -24q-4 -6 -8 -6q-18 0 -26 5q-32 24 -52 54q-5 8 -7.5 8t-9.5 -8l-20 -23l-8 -8q-6 -11 -22 -20q-38 -23 -47 -26
q-7 -3 -13 -5q-14 -8 -27 -8q-5 -1 -22 -5q-4 -1 -14 4q-8 5 -23 24l-8 16.5t-10 18.5q-3 4 -4 11q2 1 5 4q5 4 15.5 9t14.5 8q6 4 31 22q9 6 32 33q8 10 13 15q13 15 29 39q4 5 10 15.5t10 15.5q11 21 4 41q-5 10 -13 22q-4 5 -13.5 14t-13.5 15l-2 2l-2 1q-3 5 -10 15
t-11 17q-5 9 -5 29z" />
    <glyph glyph-name="y" unicode="y" horiz-adv-x="443" 
d="M388 154q25 27 54 62q9 11 20 29q4 6 6 10l1 1v-4q-1 -6 4.5 -11t0.5 -13q-18 -23 -20 -28q0 -3 -4.5 -8t-10.5 -10.5t-7 -7.5q-5 -6 -10 -18q-13 -17 -18 -23q-4 -4 -14 -19q-5 -10 -14 -20q-5 -6 -13 -16.5t-17 -20.5q-3 -3 -14 -21t-15 -21q-9 -9 -12 -15
q-4 -4 -45.5 -23.5t-42.5 -20.5l-6 -6q-14 -8 -17 -23q-8 -20 -30 -58q-8 -11 -20 -33q-7 -17 -22 -31q-3 -4 -13.5 -13t-14.5 -16q-26 -23 -55 -37q-13 -7 -56 -7q-43 -10 -91 20t-57 72q-1 7 4.5 15t12.5 9q6 2 33 7q52 6 110 31q47 17 72 29q16 8 25 24l36 75
q44 83 43 86t-27 -12q-28 -16 -54 -24q-9 2 -28 13.5t-24 19.5l-16 23q-16 24 -26 43t-8 26q2 6 4 10.5t2 8.5v16q2 15 8.5 37.5t9.5 38.5q0 2 6.5 18.5t6.5 23.5q3 5 11.5 30t14.5 32q9 19 19 32q6 8 11 12l10 -7q4 -7 37 -28q6 -6 9 -10q1 -1 2 -4t2 -3q17 -12 21 -40
q4 -14 -3 -32q-2 -3 -6.5 -12.5t-8.5 -14.5q-3 -8 -20 -39q-3 -7 -12 -21t-12 -18q-2 -2 -6 -9t-7 -11q-51 -78 -18 -70q37 9 133 95q40 36 48 49q7 10 8.5 13.5t3 7.5t6.5 14q5 5 24 31q6 11 10 14q6 7 12 4q7 -3 13 -18.5t2 -25.5q0 -7 -6 -12q-14 -27 -14 -29
q0 -4 -8 -25q-24 -47 -31 -78q-2 -6 -20.5 -58.5t-19.5 -60.5q-1 -46 130 77zM-102 -179q-21 -21 5 -40q32 -22 74 -9q28 8 45 33q14 14 21.5 22.5t12 17t-0.5 10.5t-21.5 -1.5t-45.5 -14.5q-23 -6 -69 -14q-12 -2 -21 -4z" />
    <glyph glyph-name="z" unicode="z" horiz-adv-x="367" 
d="M175 -98l-2 -2q-2 -1 -3 -2q-2 -1 -4.5 -3t-4 -3.5l-3.5 -3.5t-3 -4t-1 -5q-2 -2 -7.5 -8.5t-7.5 -9.5q0 -1 -3.5 -3.5t-5.5 -5.5q0 -1 -3 -2q-15 -16 -31 -27q-4 -1 -20 -11q-3 -3 -13 -8q-5 -2 -7 -7q-10 -8 -31 -14q-4 -1 -17 -5q-18 -7 -33 -5q-5 0 -6 1
q-3 0 -6.5 1.5t-4.5 1.5q-5 0 -11 2q-19 5 -28 30q-2 9 -7 12q-7 8 -4 17q8 21 15 36q23 49 63 92l22 23q30 27 31 28q31 29 63 48q6 6 19 14t17 11q3 -10 -4 -15q-10 -14 -12 -16q-4 -3 -13 -12t-15 -13q-1 -2 -5 -5.5t-5 -5.5q-6 -8 -21 -21q-5 -4 -25 -29q2 -2 5 1
q1 2 5 6t5 6q3 3 9 5l2 1q1 1 2.5 2t2.5 1l4.5 4.5t6.5 5.5q1 -1 -2 -3l-2 -1q-12 -12 -31 -35t-28 -32q-8 -11 -26 -42q-10 -13 -11 -29q-2 -3 -4 -19q0 -7 9 -7h6q15 -4 35 7q18 12 29 21q16 18 21 25q21 23 29 35q12 14 25 34q2 6 6 14.5t5 11.5q2 3 5.5 9t5.5 9l1 4
q4 9 11 29t11 30q5 25 5 34q3 9 1 19q-1 4 -38 11q-1 0 -12.5 1t-12.5 -1q-14 -3 -25 -2q-1 -5 -17 -2l-15 2q-26 0 -36 11q0 1 -7 12q-10 2 -5 9q11 6 12 8q17 4 22 7t16 17q0 1 2 3q1 1 1 2q22 26 72 72t71 70q10 17 8.5 30t-11 19t-19.5 0q-19 -6 -39.5 -17t-33 -20
l-35 -26l-31.5 -24q-48 -9 -59 16q-5 8 -10 24v6l1 2q7 -1 32 2q56 18 89 34q35 17 60 25l23.5 7t26.5 7q8 2 27 2q5 0 8 -1q2 -1 13 -5.5t15 -6.5t10.5 -7.5t9.5 -11.5q11 -10 13 -38q7 -22 -6 -42q-16 -36 -26 -54q-3 -3 -8.5 -10.5t-9.5 -11.5l-42 -37q0 -1 -8 -11
q-6 -1 -3 -9q18 -6 24 -15q13 -19 14 -25q1 -2 7 -24q0 -6 2 -12.5t0 -12.5q-2 -26 -9 -45q0 -1 -2 -5t-2 -5q1 -11 -8 -20q0 -2 -7 -13q-9 -20 -8 -22q1 -4 -5 -15.5t-10 -13.5q-1 -3 -4 -7t-5 -7.5t-2 -7.5q-2 -4 -6 -6q-1 -3 -4.5 -7t-4.5 -7q0 -1 0.5 -4t0.5 -5z
M-27 -95q6 2 8 5q6 12 12 16q8 12 25 30q0 1 2 2q3 2 1 4l-17 -17q-19 -19 -31 -40q-8 -12 -9 -16q9 7 9 16zM-68 -205q-4 7 -9 6q1 -7 9 -6zM-47 -129h-1v-1z" />
    <glyph glyph-name="braceleft" unicode="{" horiz-adv-x="302" 
d="M189 -109q-4 -5 -13 -14q1 -1 3 -2l1 -1v-2q-10 -15 -24.5 -25.5t-23 -13.5t-28.5 -9q-7 -2 -19 -4q-42 -4 -61 31q-18 35 -18 77q-3 43 4 84q7 36 24 75l24 49q2 3 7 13l8 16q-4 2 -7 2q-19 7 -27 17q-10 13 -5.5 31t20.5 32q10 5 17 5q30 0 51 -14q1 0 3 -2h3q4 3 6 9
q18 38 28 83q10 51 10 106q4 64 20 113q10 31 32 62q6 6 10 9q24 20 35 30q12 12 26 7q15 -6 18 -9l19.5 -17.5l19.5 -17.5q9 -9 6 -28q-3 -15 -14 -13q-26 6 -26 26v1q-3 14 -6.5 15t-20.5 -9q-15 -11 -31 -36q-1 -2 -4 -10q-9 -32 -7 -50q0 -11 0.5 -33t0.5 -34
q5 -57 5 -103q1 -6 -2 -29q-3 -30 -28 -52q-3 -2 -7.5 -8t-5.5 -7l-28 -25q-11 -11 -35 -33q-5 -4 -6 -9q-3 -8 -7 -24q-3 -10 -10.5 -37t-12.5 -42l-13 -38q-8 -29 -3 -54q2 -22 4 -60q7 -23 16 -35q7 -8 21.5 -7t28.5 9q2 1 22 7v-2zM60 205q-4 -10 -2.5 -13t9.5 -1
q10 2 23 10q6 1 6 9q0 12 -3 22q-1 8 -12 0q-4 -6 -14 -16q-3 -3 -7 -11z" />
    <glyph glyph-name="bar" unicode="|" horiz-adv-x="291" 
d="M185 370h1l-2 6q-5 -2 -7 -17q0 -2 -0.5 -5t-1.5 -5q-1 1 -5 2q-5 -25 -5 -32q-1 -2 -3 -7.5t-3 -8.5q1 -1 3 -2q-5 -9 -6 -17q-3 -8 -9 -25.5t-10 -26.5q0 -9 -2 -13q-8 -14 -10 -33v-1q-8 -8 -5 -13q-1 -5 -2.5 -10t-3.5 -11l-3 -9l-1 1q-1 -3 -14 -46q0 -4 -7 -11
q2 -1 1 -6t-6 -7q-4 -4 -2 -10q0 -6 -1.5 -11.5t-4 -12.5t-3.5 -11q-3 -10 -11 -32t-12 -34q0 -3 -3 -4q-4 -33 -34 -87q-1 0 -1 -4q11 13 14 18l-8 -14t-7 -12q-6 -7 -14 -3q-5 2 -18 2q-8 -2 -10 2t2 12q1 3 3 7.5t3.5 8.5t2.5 8q15 30 17 47q5 36 18 61v5q14 35 23 74
q1 2 5 12t5 16q1 4 3 20.5t5 24.5q11 27 15 51q13 47 25 83q2 4 4 12.5l3 12.5q4 12 10 36t8 30q2 10 7 29t6 25l29 98q5 18 19 73q9 29 34 65q7 7 12 11t8.5 2.5t4.5 -7.5q3 -7 2 -14q0 -40 -1 -61q-2 -36 -22 -115q-5 -20 -15.5 -57.5t-14.5 -50.5q-1 0 -5 -9z" />
    <glyph glyph-name="braceright" unicode="}" horiz-adv-x="333" 
d="M201 400l9 -3q-3 -11 -10 -18q-12 -12 -23 -34q-5 -15 -15 -25q-9 -14 -10 -18q-4 -11 -11 -12q-1 -13 -5 -44q6 2 8 4q11 4 17 1q7 0 10 1q18 5 40 1q22 -3 27 -32q-2 -4 -4.5 -11t-4.5 -10l-3 -1q-2 0 -2 -1q-5 -7 -12 -11t-17.5 -7.5l-13.5 -4.5q-1 0 -3 0.5t-3 0.5
l-7 2q-13 -5 -16 -12q-16 -28 -24 -56q-5 -15 -8 -42.5t-6 -39.5q-1 -5 -6.5 -28.5t-10.5 -35.5q-3 -7 -7 -20.5l-6 -20.5q-8 -21 -11 -26q-7 -16 -20 -36l-2 -1l-3 -3q-15 -15 -55 -33q-22 -11 -33 -17q-8 -4 -10 1q-3 6 -9 4q-5 0 -7 1q-7 2 -17 6q-1 1 -1.5 4t-2.5 3
q-4 0 -4 6q1 8 -6 20q-4 12 0 21q9 1 17 -9q11 -13 20 -16q8 -4 16 1l36 30q15 13 23 33q16 25 25 50q6 10 16 56q8 49 10 70q4 18 5 27q0 7 4 7q17 34 20 41q2 1 0 1q-1 0 -7 -6v2q4 9 0 18q-19 23 -18 51q1 8 3.5 24t3.5 23q0 6 12 32q2 2 4 9q3 15 3 29l2 2q1 2 2 3
l47 78q9 18 44 66q33 49 43 96q0 2 3 22q0 11 -9 11q-19 -3 -20 -3q-4 0 -19 -3q-15 0 -29 -11q-12 -7 -15 -6q-13 4 -14 12q-1 1 -1 2v2q47 47 93 36q25 -6 43 -27q3 -5 5 -18q4 -11 -1 -55q-1 -4 -5 -23t-5 -30q-2 -18 -21 -63q-11 -26 -33 -32q-2 -3 -5 -5zM166 228
q0 -16 -1 -22q4 0 7 6q2 11 -6 16zM126 239q4 0 5 1q0 2 -0.5 8t-0.5 9h-2q0 -8 -2 -18zM71 73q-3 -6 -3 -7q0 -5 1 -6h1q0 8 1 13zM182 364h-1l-1 1l-2 -2t-2 -2.5t-3 -2.5h2l1 -1q2 2 3.5 4t2.5 3zM65 33h2q0 7 -1 11q-1 0 -2 -1q0 -7 1 -10z" />
    <glyph glyph-name="asciitilde" unicode="~" horiz-adv-x="520" 
d="M440 229l17 10q0 -2 2 -2.5t6 -4t8 -12.5q12 -26 -12 -50q-21 -20 -52 -29q-14 -2 -48 -4q-5 -1 -13 1q-6 1 -18.5 3.5t-15.5 2.5q-1 1 -4.5 0.5t-4.5 1.5q-7 0 -12 2q-11 1 -26 7q-3 2 -34 12q-1 0 -3 1t-3 0q-4 4 -15 6q-4 0 -12 2.5t-11 2.5q-14 6 -42 16
q-4 1 -13 2.5t-13 2.5h-3q-7 -3 -22 -4.5t-23 -5.5q-2 -1 -6 -1q-15 -3 -16 -11q-6 -16 -5 -24q1 -1 1 -5q-5 0 -5 1h-4q-2 3 -6.5 7.5t-6.5 8t-1 8.5l3 21q11 17 22 22l27 16q12 8 57 14q37 7 80 -1q16 -2 31 -6t37 -11.5t30 -9.5l66 -18q21 -5 38 -4q17 4 22 8q12 9 6 18z
M86 231q0 -2 1 -2l11 2q20 6 30 8q23 2 34 5q10 2 12 -3q2 -1 5 -1l61 -10h5v3l-10 3q-5 1 -52 9q-16 4 -40 1q-9 -2 -22.5 -3.5t-16.5 -2.5q-10 -1 -18 -9z" />
    <glyph glyph-name="exclamdown" unicode="&#xa1;" horiz-adv-x="237" 
d="M149 337q1 -3 3 -7.5t3 -7.5q16 -72 15 -123q0 -7 -1.5 -21.5t-2.5 -22.5q0 -9 -3.5 -26.5t-3.5 -26.5v-21v-7l-40 -149q-4 -11 -9 -33t-9 -33l-31 -92q-3 -7 -10 -7l-20.5 3t-18.5 2q-4 1 -23 10q-21 12 -32 27q-9 12 -5 24q2 4 9.5 30t13.5 39q8 18 26 66q7 14 16 29
q1 6 5 11q4 16 10 21q2 1 4 5t3 5l9 18t10 22l6.5 13t6.5 12l1 3q5 23 15 37q2 11 10 36.5t9 40.5q1 9 3.5 25.5t3.5 20.5q0 2 1 5t2 5q2 3 4 11q3 12 12 20q7 3 7 14q-1 3 -1.5 10.5t-0.5 10.5h1q1 1 2 1zM163 416q-5 -37 -5 -42q-2 -13 -11 -17q-6 -3 -8 -1q-1 1 -18 1
q-3 0 -7.5 1t-6.5 1q-11 1 -15 16q-4 22 12 51q13 19 35 25q2 0 5 3q10 6 12 -5q2 -8 7 -33z" />
    <glyph glyph-name="cent" unicode="&#xa2;" horiz-adv-x="344" 
d="M206 483l13 -14q0 -1 -4.5 -15.5t-6.5 -19.5l-8 -22q8 0 23 -10q8 -13 8 -32q0 -5 2 -17q2 -11 0 -25q-1 -1 -1.5 -6t-0.5 -7q-3 -8 -10 -23.5t-9 -22.5q-4 -7 -14 -9q-1 0 -3.5 -0.5t-3.5 -0.5q-3 0 -5 2t-14 8q-1 2 -3 2q-4 7 -2 10l3 11q6 16 22 53q0 1 3 5
q-4 -2 -6 -4q-7 -13 -25 -28q-14 -17 -22 -33l-27 -45q-9 -11 -22 -44l-4 -15q-2 -10 1 -19q4 -10 6 -17q0 -3 6 -11q2 -4 33 6q17 1 45 12t44 23l12 7l-25 -68q-29 -17 -41 -17h-48h-13l-3 -8q0 -4 -3.5 -17.5t-3.5 -18.5q0 -3 -2 -10.5t-2 -9.5q0 -1 -5.5 1.5t-12.5 5
t-8 0.5q-2 4 2 14t4 11q0 12 1 17q0 4 -0.5 11.5t-0.5 10.5l-1 1q-3 1 -7 3l-6 3q-8 2 -15 9.5t-11 9.5q-22 19 -23 59q0 21 5 44q2 13 8 28q6 9 11 20q3 8 8.5 16.5l12.5 19l11 16.5q3 3 9 11q3 3 12 13.5t14 14.5q7 4 19.5 13t19.5 13q11 13 23 11h7v2q-1 0 -1.5 1.5
t0.5 2.5q0 2 0.5 8t1.5 10q2 16 5 26q3 14 11 26z" />
    <glyph glyph-name="sterling" unicode="&#xa3;" horiz-adv-x="377" 
d="M250 28q-2 -11 7 -18l4 -4t5.5 -6t5.5 -5q3 -4 -3 -9q-12 -10 -22 -7q-5 0 -13 3t-50 14q-7 1 -21.5 5t-21.5 5q-26 8 -48 5q-1 -1 -4 -1.5t-4 -0.5q-14 -8 -37 -14q-16 -5 -17 -5q-28 -8 -41 -12q-3 0 -4 -1q-1 4 -5.5 11t-4.5 8q-5 11 5 19q3 4 12.5 11.5t12.5 11.5
q23 20 33 32q15 15 23 34q9 22 15 43q2 7 1.5 9t-7.5 2l-42 3q-5 0 -9 2q-5 2 -7 5q-5 7 -12 18q-2 3 -3 9t-2 8v2q5 0 8 -1q3 0 8 -1t7 -1q36 2 50 2q7 0 10 1q9 0 11 10q1 9 3.5 26t3.5 25q1 7 4.5 28.5t6.5 33.5q1 15 10 34q8 26 27 68q21 35 41 55l15 15q17 17 38 22
q31 7 45 -4q6 -5 19.5 -14t19.5 -14q27 -23 18 -70q-5 -23 -28 -72q-2 -3 -10 -21q-13 -23 -15 -26q-10 -17 -30 -41q-14 -16 -30 -12q-4 1 -11 7q-3 1 -10 5t-11 6q-12 8 -1 23l27 39q26 35 40 75q12 28 16 49q2 25 0 36q-4 16 -20 11q-49 -19 -70 -58v-2q-1 -1 -1 -2
q-17 -22 -32 -84q-1 -1 -1 -4v-5q-9 -25 -7 -71v-51q1 -10 2.5 -11.5t11.5 -1.5t29 -0.5t29 -1.5q8 -2 14 -5q12 -3 11 -15q-1 -3 1 -7.5t2 -6.5q-6 -6 -15 -6q-40 0 -59 -1q-8 0 -24 -4q-2 -10 -5.5 -30t-6.5 -30q-7 -26 -20 -59q3 0 11 -2q21 -3 67 -11q5 -1 17 -4t18 -4
q11 -4 20 6z" />
    <glyph glyph-name="yen" unicode="&#xa5;" horiz-adv-x="447" 
d="M290 495q0 1 3.5 5t6.5 6l46 33q6 5 14 2q20 -18 23 -24q1 -3 8 -15t9 -20q5 -14 3 -32q-2 -14 -16 -22l-40 -25l-3 -3l-2 -1q-13 -3 -28 -14q-35 -26 -46 -38q-2 -2 -4 -3l-18 -14.5t-14 -11.5q-3 -4 -12 -13q-3 -4 -11 -11t-13 -13t-8 -12q-1 -4 -7 -6q-5 -4 -13 -16
q-2 -2 -7.5 -9t-8.5 -12q8 -2 10 -2h36q16 0 21.5 -6t6.5 -23q0 -16 1 -24q-5 -1 -11 -2.5t-8 -1.5q-27 5 -69 -6q-8 -3 -11 -6q-7 -2 -7 -6q-3 -12 -8 -28q2 -2 21 1q6 1 20 3q10 3 19 -2q6 -5 6 -12q1 -4 4.5 -10.5t4.5 -8.5q-14 -12 -23 -13q-7 -1 -23 -3.5t-25 -3.5
l-6 -2t-6.5 -2t-5.5 -2q5 -14 -2 -22q-3 -4 -1 -9q-2 -20 -2 -30q0 -9 -2 -27q-3 -13 -13 -11q-3 0 -15 2q-7 0 -10 -1q-7 -2 -9 -1.5t-2 7.5q0 20 1 31q2 31 5 48q0 5 -2.5 7.5t-6.5 1.5q-17 -4 -32 6q-7 5 -10 12q-2 3 -10 21h32q21 2 32 7l6 40h-18q-22 2 -35 2
q-6 0 -9 8q-3 6 -8.5 15.5t-7.5 15.5q1 1 2 3t2 3.5t2 2.5t9 5q6 1 16.5 2.5t15.5 1.5q1 0 2 -0.5t2 -0.5q-1 -1 -2 -3.5t-2 -3.5q14 2 32 4q-2 28 -2 40q-8 70 -15 104q-7 47 -30 90q-8 12 -15 34v4h5q23 -5 27 -6q27 -14 35 -24q21 -26 39 -71q3 -5 13 -44q1 -3 4 -15
q65 86 184 189q-3 -2 -5.5 -3.5l-5 -3t-4.5 -2.5h1zM235 433q-3 -2 -8 -9q7 0 8 9z" />
    <glyph glyph-name="brokenbar" unicode="&#xa6;" horiz-adv-x="269" 
d="M70 177l45 -22l-4 -13l-1 1q-1 -3 -14 -46q0 -4 -7 -11q2 -1 1 -6t-6 -7q-4 -4 -2 -10q0 -6 -1.5 -11.5t-4 -12.5t-3.5 -11q-3 -10 -11 -32t-12 -34q0 -3 -3 -4q-4 -33 -34 -87q-1 0 -1 -4l14 18l-8 -14t-7 -12q-6 -7 -14 -3q-5 2 -18 2q-8 -2 -10 2t2 12q1 3 3 7.5
t3.5 8.5t2.5 8q15 30 17 47q5 36 18 61v5q14 35 23 74q1 2 5 12t5 16q1 4 3 20.5t5 24.5l7 10q7 10 7 11zM123 233l-36 1q0 1 -2.5 9.5t-1.5 9.5q4 12 10 36t8 30l13 54l29 98q5 18 19 73q9 29 34 65l12 11q5 4 8.5 2.5t4.5 -7.5q3 -7 2 -14q0 -40 -1 -61q-2 -36 -22 -115
q-5 -20 -15.5 -57.5t-14.5 -50.5q-1 0 -5 -9h1l-2 6q-5 -2 -7 -17l-2 -10q-1 1 -5 2q-5 -25 -5 -32z" />
    <glyph glyph-name="dieresis" unicode="&#xa8;" horiz-adv-x="263" 
d="M129 489q0 -3 -1 -5l-5.5 -17t-8.5 -20q-3 -5 -7 -5q-14 -4 -20 0l-1 1q-8 0 -14 9q-5 8 -5 19q1 20 16 40q3 3 4 1q26 -4 37 -14q5 -5 5 -9zM235 489q0 -3 -1 -5l-5.5 -17t-8.5 -20q-3 -5 -7 -5q-14 -4 -20 0l-1 1q-8 0 -14 9q-5 8 -5 19q1 20 16 40q3 3 4 1
q26 -4 37 -14q5 -5 5 -9z" />
    <glyph glyph-name="degree" unicode="&#xb0;" horiz-adv-x="180" 
d="M190 540q1 3 1 8q-7 10 -33 28q-1 0 -5 1q-22 -17 -28 -34q-1 -2 -2.5 -8.5l-2.5 -10.5q5 -12 13 -14q4 -7 20 -7q2 -4 7 1q6 5 14.5 14.5t14.5 14.5q-1 2 1 7zM70 484q0 5 2 10q2 10 5 31.5t7 37t10 27.5q7 15 14 16q3 1 11.5 4.5t12.5 4.5t11.5 1t14.5 -3l3 -3
q20 3 36 -18q16 -17 20 -45q3 -49 -25 -104q-1 0 -3.5 -1.5t-3.5 -1.5t-3 1q-66 0 -95 22q-15 11 -17 21z" />
    <glyph glyph-name="acute" unicode="&#xb4;" horiz-adv-x="117" 
d="M48 506q0 2 1 2q3 3 3 8q-1 4 3 8q7 12 12 17q1 1 6 11q0 1 3 11q1 9 6 20q8 12 12 19q5 8 15 10t18 -3q2 -1 6 -5q1 0 2 -1q1 -2 3.5 -4.5l3.5 -3.5q2 -1 1 -5q-5 -4 -10 -12q-19 -22 -35 -37q-24 -22 -46 -34q-2 0 -4 -1z" />
    <glyph glyph-name="cedilla" unicode="&#xb8;" horiz-adv-x="161" 
d="M-2 95q8 0 14 0.5t8.5 0t4 0t2.5 0.5q18 1 36 12q4 2 7 4l6.5 4.5l6.5 4.5q1 0 2 1.5t2 1.5l5 6l7 5q0 1 3 4q1 6 -4 7q0 2 -5 0.5t-6 -1.5q-2 0 -7 1t-7 0q-3 0 -8 -0.5t-9 -0.5l-6 -1q-3 1 -9 1q-4 0 -8.5 4.5t-5.5 8.5l-2 9v17q3 15 9 35q1 4 2.5 8.5l2.5 7.5
q6 13 14 6q13 0 16 -5l-7 -21q-2 -4 -4 -8.5t-3.5 -7t-2.5 -5.5t-2 -4.5t-1 -3t0.5 -2.5t2 -2t4 -1.5t5.5 -1.5l13 -3q14 -2 25.5 -5t12.5 -4q4 -6 5 -9q4 -5 2 -10q0 -12 -3 -22q-4 -10 -8 -13q-1 -1 -1 -2t-2 -2q0 -4 -4 -4l-6 -3l-5 -5q-2 -2 -4 -6q-3 -5 -6 -6
q-1 0 -2 -1q-2 -2 -3 -2l-9 -6q-1 -1 -4 -2.5t-4 -2.5l-4 -2q-2 -1 -8.5 -3.5t-9.5 -4.5q-2 0 -4 -0.5t-4 -0.5q-4 -1 -15.5 8.5t-13.5 14.5q-1 3 -1 12z" />
    <glyph glyph-name="questiondown" unicode="&#xbf;" horiz-adv-x="319" 
d="M177 310q4 6 9.5 15.5t6.5 10.5q17 0 29 -12q13 -15 18 -24q6 -11 5 -27q-1 -14 -1 -42q1 -30 -17 -70q-17 -43 -56 -83q-20 -25 -95 -82l-65 -57q-18 -20 -28 -37q-7 -13 -7 -27q2 -18 16 -18q16 -2 33 0q29 2 78 43q2 1 4.5 3t3.5 3q11 19 27 11q8 -3 13 -3
q7 -1 10.5 -9t-0.5 -17q-11 -24 -35 -43q-57 -48 -111 -47q-38 0 -58 20q-28 28 -35 55q-8 35 4 70q8 22 27 54q5 8 10 12l9 9l11.5 11.5l9.5 9.5q2 1 3.5 5t4.5 5l3 4q3 4 5 6l27 21q8 5 20.5 15.5t15.5 12.5l5 5q2 1 16 12q3 5 11.5 11.5t10.5 8.5q34 23 46 33q4 3 7.5 7
t7.5 9.5t7 8.5l2 1q1 8 9.5 25t9.5 28q1 2 3 8q6 15 -1 22q-11 16 -23 20zM241 218h-2q-5 -10 -6 -13l-5.5 -16t-8.5 -19q-6 -12 -16 -38q-5 -11 -11 -11q-5 0 -5 -4q-4 -4 -50 -56q-2 -4 -3 -5l2 -2q1 2 4.5 5t5.5 4l44 46q17 16 29 41l9.5 22t9.5 23q5 15 3 23zM228 459
q4 -3 10.5 -8.5t9.5 -7.5q4 -5 4 -14q-1 -11 -12 -33q-11 -19 -34 -40q-7 -8 -17 -3q-5 3 -20 15q-2 2 0 13q4 17 14 25q14 12 30 36q1 2 7 7.5t8 9.5z" />
    <glyph glyph-name="Agrave" unicode="&#xc0;" horiz-adv-x="480" 
d="M374 330q14 6 20 9q20 11 40 12q6 1 13 -2q3 -1 9 -4.5t9 -4.5q-2 -6 -13 -10q-17 -8 -46.5 -26.5t-33.5 -21.5q-8 -5 -8 -13q0 -5 -1 -14t-1 -14q-2 -13 -9 -16q-5 -2 -5 -14q2 2 4 5t3 4q3 0 3.5 -3.5t-1.5 -7.5t-5 -6l-2 -2q-1 0 -4 -3q0 -52 -1 -78q0 -6 -2 -20
q-6 -22 0 -60q3 -16 5 -47q0 -6 0.5 -16.5t0.5 -16.5q0 -7 -2 -25l-9 9q-1 -2 -3 -4q-1 -1 -1 -5h-6t-6 -0.5t-4.5 -2.5t-1.5 -6q-8 -2 -17 4q-13 11 -16 15q-19 30 -29 71q0 10 4 12q1 0 1 9l-6 24q-13 42 -19 129q-2 10 -3 16q-2 -1 -5.5 -2.5t-5.5 -2.5q-13 -10 -60 -28
q-26 -8 -51 -14q-20 -7 -37 -35q-9 -16 -29 -44t-27 -40q-6 -6 -13 -7q-8 -1 -9.5 -4.5t1 -6.5t1.5 -5t-8 1q-23 -4 -30 2.5t-9 22t-8 24.5q23 31 50 62q9 10 27 28q4 4 6 7q1 2 5 8q-1 2 -4 4.5t-5 3.5l-20 15q-8 8 -5 17q8 3 19 -4q9 -5 29 -13q5 -2 9 2l15.5 18.5
t16.5 18.5q1 1 2.5 4t2.5 4q12 13 23 29t25 38.5l20 31.5l77 121q17 24 18 50q2 22 10 64q11 44 40 104q7 13 20 9l23 -5.5t22 -5.5q9 -2 14 -7q16 -16 23 -25q4 -7 6 -16q6 -27 -1 -66q-7 -53 -13 -86q0 -1 -0.5 -5t-0.5 -6q0 -28 -12 -64q-2 -6 -10 -50q-1 -7 -1 -21z
M182 306q-44 -57 -30 -71.5t71 23.5q9 4 10 14q0 17 2 49q4 59 -5 60q-7 0 -39 -58q-6 -11 -9 -17zM390 711q-2 1 -4 1q-22 12 -46 34q-16 15 -35 37q-5 8 -10 12q-1 4 1 5l3.5 3.5t3.5 4.5q1 0 2 1q4 4 6 5q8 5 18 3t15 -10q4 -7 12 -19q5 -11 6 -20q3 -10 3 -11
q5 -10 6 -11q5 -4 12 -17q4 -4 3 -8q0 -5 3 -8q1 0 1 -2z" />
    <glyph glyph-name="Aacute" unicode="&#xc1;" horiz-adv-x="480" 
d="M374 330q14 6 20 9q20 11 40 12q6 1 13 -2q3 -1 9 -4.5t9 -4.5q-2 -6 -13 -10q-17 -8 -46.5 -26.5t-33.5 -21.5q-8 -5 -8 -13q0 -5 -1 -14t-1 -14q-2 -13 -9 -16q-5 -2 -5 -14q2 2 4 5t3 4q3 0 3.5 -3.5t-1.5 -7.5t-5 -6l-2 -2q-1 0 -4 -3q0 -52 -1 -78q0 -6 -2 -20
q-6 -22 0 -60q3 -16 5 -47q0 -6 0.5 -16.5t0.5 -16.5q0 -7 -2 -25l-9 9q-1 -2 -3 -4q-1 -1 -1 -5h-6t-6 -0.5t-4.5 -2.5t-1.5 -6q-8 -2 -17 4q-13 11 -16 15q-19 30 -29 71q0 10 4 12q1 0 1 9l-6 24q-13 42 -19 129q-2 10 -3 16q-2 -1 -5.5 -2.5t-5.5 -2.5q-13 -10 -60 -28
q-26 -8 -51 -14q-20 -7 -37 -35q-9 -16 -29 -44t-27 -40q-6 -6 -13 -7q-8 -1 -9.5 -4.5t1 -6.5t1.5 -5t-8 1q-23 -4 -30 2.5t-9 22t-8 24.5q23 31 50 62q9 10 27 28q4 4 6 7q1 2 5 8q-1 2 -4 4.5t-5 3.5l-20 15q-8 8 -5 17q8 3 19 -4q9 -5 29 -13q5 -2 9 2l15.5 18.5
t16.5 18.5q1 1 2.5 4t2.5 4q12 13 23 29t25 38.5l20 31.5l77 121q17 24 18 50q2 22 10 64q11 44 40 104q7 13 20 9l23 -5.5t22 -5.5q9 -2 14 -7q16 -16 23 -25q4 -7 6 -16q6 -27 -1 -66q-7 -53 -13 -86q0 -1 -0.5 -5t-0.5 -6q0 -28 -12 -64q-2 -6 -10 -50q-1 -7 -1 -21z
M182 306q-44 -57 -30 -71.5t71 23.5q9 4 10 14q0 17 2 49q4 59 -5 60q-7 0 -39 -58q-6 -11 -9 -17zM364 710q0 2 1 2q3 3 3 8q-1 4 3 8q7 12 12 17q1 1 6 11q0 1 3 11q1 9 6 20q8 12 12 19q5 8 15 10t18 -3q2 -1 6 -5q1 0 2 -1q1 -2 3.5 -4.5l3.5 -3.5q2 -1 1 -5
q-5 -4 -10 -12q-19 -22 -35 -37q-24 -22 -46 -34q-2 0 -4 -1z" />
    <glyph glyph-name="Acircumflex" unicode="&#xc2;" horiz-adv-x="480" 
d="M374 330q14 6 20 9q20 11 40 12q6 1 13 -2q3 -1 9 -4.5t9 -4.5q-2 -6 -13 -10q-17 -8 -46.5 -26.5t-33.5 -21.5q-8 -5 -8 -13q0 -5 -1 -14t-1 -14q-2 -13 -9 -16q-5 -2 -5 -14q2 2 4 5t3 4q3 0 3.5 -3.5t-1.5 -7.5t-5 -6l-2 -2q-1 0 -4 -3q0 -52 -1 -78q0 -6 -2 -20
q-6 -22 0 -60q3 -16 5 -47q0 -6 0.5 -16.5t0.5 -16.5q0 -7 -2 -25l-9 9q-1 -2 -3 -4q-1 -1 -1 -5h-6t-6 -0.5t-4.5 -2.5t-1.5 -6q-8 -2 -17 4q-13 11 -16 15q-19 30 -29 71q0 10 4 12q1 0 1 9l-6 24q-13 42 -19 129q-2 10 -3 16q-2 -1 -5.5 -2.5t-5.5 -2.5q-13 -10 -60 -28
q-26 -8 -51 -14q-20 -7 -37 -35q-9 -16 -29 -44t-27 -40q-6 -6 -13 -7q-8 -1 -9.5 -4.5t1 -6.5t1.5 -5t-8 1q-23 -4 -30 2.5t-9 22t-8 24.5q23 31 50 62q9 10 27 28q4 4 6 7q1 2 5 8q-1 2 -4 4.5t-5 3.5l-20 15q-8 8 -5 17q8 3 19 -4q9 -5 29 -13q5 -2 9 2l15.5 18.5
t16.5 18.5q1 1 2.5 4t2.5 4q12 13 23 29t25 38.5l20 31.5l77 121q17 24 18 50q2 22 10 64q11 44 40 104q7 13 20 9l23 -5.5t22 -5.5q9 -2 14 -7q16 -16 23 -25q4 -7 6 -16q6 -27 -1 -66q-7 -53 -13 -86q0 -1 -0.5 -5t-0.5 -6q0 -28 -12 -64q-2 -6 -10 -50q-1 -7 -1 -21z
M182 306q-44 -57 -30 -71.5t71 23.5q9 4 10 14q0 17 2 49q4 59 -5 60q-7 0 -39 -58q-6 -11 -9 -17zM444 720q-4 0 -9 5l-11 22q-2 4 -4 12l-3 12q0 3 -2 7q-2 -3 -8 -7q-17 -16 -35 -29l-18 -9q-18 -4 -27 -12l-6 3l-6 3q-4 3 -3 7q3 10 7 16q5 7 13 17q43 46 50 52h1
q1 1 2.5 3t2.5 3t2 1q3 1 7 0t5 -1t3 -2q13 -1 22 -16q9 -13 14 -35q6 -20 10 -30q0 -1 2 -9q0 -1 -2 -5q-2 -1 -4 -4t-3 -4z" />
    <glyph glyph-name="Atilde" unicode="&#xc3;" horiz-adv-x="480" 
d="M374 330q14 6 20 9q20 11 40 12q6 1 13 -2q3 -1 9 -4.5t9 -4.5q-2 -6 -13 -10q-17 -8 -46.5 -26.5t-33.5 -21.5q-8 -5 -8 -13q0 -5 -1 -14t-1 -14q-2 -13 -9 -16q-5 -2 -5 -14q2 2 4 5t3 4q3 0 3.5 -3.5t-1.5 -7.5t-5 -6l-2 -2q-1 0 -4 -3q0 -52 -1 -78q0 -6 -2 -20
q-6 -22 0 -60q3 -16 5 -47q0 -6 0.5 -16.5t0.5 -16.5q0 -7 -2 -25l-9 9q-1 -2 -3 -4q-1 -1 -1 -5h-6t-6 -0.5t-4.5 -2.5t-1.5 -6q-8 -2 -17 4q-13 11 -16 15q-19 30 -29 71q0 10 4 12q1 0 1 9l-6 24q-13 42 -19 129q-2 10 -3 16q-2 -1 -5.5 -2.5t-5.5 -2.5q-13 -10 -60 -28
q-26 -8 -51 -14q-20 -7 -37 -35q-9 -16 -29 -44t-27 -40q-6 -6 -13 -7q-8 -1 -9.5 -4.5t1 -6.5t1.5 -5t-8 1q-23 -4 -30 2.5t-9 22t-8 24.5q23 31 50 62q9 10 27 28q4 4 6 7q1 2 5 8q-1 2 -4 4.5t-5 3.5l-20 15q-8 8 -5 17q8 3 19 -4q9 -5 29 -13q5 -2 9 2l15.5 18.5
t16.5 18.5q1 1 2.5 4t2.5 4q12 13 23 29t25 38.5l20 31.5l77 121q17 24 18 50q2 22 10 64q11 44 40 104q7 13 20 9l23 -5.5t22 -5.5q9 -2 14 -7q16 -16 23 -25q4 -7 6 -16q6 -27 -1 -66q-7 -53 -13 -86q0 -1 -0.5 -5t-0.5 -6q0 -28 -12 -64q-2 -6 -10 -50q-1 -7 -1 -21z
M182 306q-44 -57 -30 -71.5t71 23.5q9 4 10 14q0 17 2 49q4 59 -5 60q-7 0 -39 -58q-6 -11 -9 -17zM308 754l-7 -4q0 1 -1 1q-4 2 -6 6q-3 12 5 20q9 8 21 13q13 0 20 1q3 0 5 -1q5 0 13 -2h2.5t2.5 -1q2 0 4 -1q4 0 10 -2q3 -2 8 -3t6 -2l2 -1q1 -1 3.5 -1.5t3.5 -0.5t4 -1
t5 -1q14 -5 17 -6q1 0 5 -1t5 -2h1q3 2 9.5 2.5t8.5 1.5l2 1q7 2 7 4q2 6 2 10l-1 2h5l3 -4q3 -3 2 -6l-1 -8q-5 -8 -9 -9l-11 -7q-5 -3 -23 -5q-15 -3 -32 0q-6 1 -39 11q-4 1 -13 3.5t-14 3.5q-10 2 -15 2l-9 -3q-4 -6 -2 -8zM450 753q0 1 -1 1l-4 -1l-12 -3q-4 0 -14 -2
q-4 -2 -5 1l-1 1l-25 4q-1 -1 -2 0v-2l4 -1q14 -2 21 -4h16q6 1 16 3q4 0 7 3z" />
    <glyph glyph-name="Adieresis" unicode="&#xc4;" horiz-adv-x="480" 
d="M374 330q14 6 20 9q20 11 40 12q6 1 13 -2q3 -1 9 -4.5t9 -4.5q-2 -6 -13 -10q-17 -8 -46.5 -26.5t-33.5 -21.5q-8 -5 -8 -13q0 -5 -1 -14t-1 -14q-2 -13 -9 -16q-5 -2 -5 -14q2 2 4 5t3 4q3 0 3.5 -3.5t-1.5 -7.5t-5 -6l-2 -2q-1 0 -4 -3q0 -52 -1 -78q0 -6 -2 -20
q-6 -22 0 -60q3 -16 5 -47q0 -6 0.5 -16.5t0.5 -16.5q0 -7 -2 -25l-9 9q-1 -2 -3 -4q-1 -1 -1 -5h-6t-6 -0.5t-4.5 -2.5t-1.5 -6q-8 -2 -17 4q-13 11 -16 15q-19 30 -29 71q0 10 4 12q1 0 1 9l-6 24q-13 42 -19 129q-2 10 -3 16q-2 -1 -5.5 -2.5t-5.5 -2.5q-13 -10 -60 -28
q-26 -8 -51 -14q-20 -7 -37 -35q-9 -16 -29 -44t-27 -40q-6 -6 -13 -7q-8 -1 -9.5 -4.5t1 -6.5t1.5 -5t-8 1q-23 -4 -30 2.5t-9 22t-8 24.5q23 31 50 62q9 10 27 28q4 4 6 7q1 2 5 8q-1 2 -4 4.5t-5 3.5l-20 15q-8 8 -5 17q8 3 19 -4q9 -5 29 -13q5 -2 9 2l15.5 18.5
t16.5 18.5q1 1 2.5 4t2.5 4q12 13 23 29t25 38.5l20 31.5l77 121q17 24 18 50q2 22 10 64q11 44 40 104q7 13 20 9l23 -5.5t22 -5.5q9 -2 14 -7q16 -16 23 -25q4 -7 6 -16q6 -27 -1 -66q-7 -53 -13 -86q0 -1 -0.5 -5t-0.5 -6q0 -28 -12 -64q-2 -6 -10 -50q-1 -7 -1 -21z
M182 306q-44 -57 -30 -71.5t71 23.5q9 4 10 14q0 17 2 49q4 59 -5 60q-7 0 -39 -58q-6 -11 -9 -17zM360 773q0 -3 -1 -5l-5.5 -17t-8.5 -20q-3 -5 -7 -5q-14 -4 -20 0l-1 1q-8 0 -14 9q-5 8 -5 19q1 20 16 40q2 3 4 1q26 -4 37 -14q5 -5 5 -9zM466 773q0 -3 -1 -5l-5.5 -17
t-8.5 -20q-3 -5 -7 -5q-14 -4 -20 0l-1 1q-8 0 -14 9q-5 8 -5 19q1 20 16 40q2 3 4 1q26 -4 37 -14q5 -5 5 -9z" />
    <glyph glyph-name="Aring" unicode="&#xc5;" horiz-adv-x="480" 
d="M374 330q14 6 20 9q20 11 40 12q6 1 13 -2q3 -1 9 -4.5t9 -4.5q-2 -6 -13 -10q-17 -8 -46.5 -26.5t-33.5 -21.5q-8 -5 -8 -13q0 -5 -1 -14t-1 -14q-2 -13 -9 -16q-5 -2 -5 -14q2 2 4 5t3 4q3 0 3.5 -3.5t-1.5 -7.5t-5 -6l-2 -2q-1 0 -4 -3q0 -52 -1 -78q0 -6 -2 -20
q-6 -22 0 -60q3 -16 5 -47q0 -6 0.5 -16.5t0.5 -16.5q0 -7 -2 -25l-9 9q-1 -2 -3 -4q-1 -1 -1 -5h-6t-6 -0.5t-4.5 -2.5t-1.5 -6q-8 -2 -17 4q-13 11 -16 15q-19 30 -29 71q0 10 4 12q1 0 1 9l-6 24q-13 42 -19 129q-2 10 -3 16q-2 -1 -5.5 -2.5t-5.5 -2.5q-13 -10 -60 -28
q-26 -8 -51 -14q-20 -7 -37 -35q-9 -16 -29 -44t-27 -40q-6 -6 -13 -7q-8 -1 -9.5 -4.5t1 -6.5t1.5 -5t-8 1q-23 -4 -30 2.5t-9 22t-8 24.5q23 31 50 62q9 10 27 28q4 4 6 7q1 2 5 8q-1 2 -4 4.5t-5 3.5l-20 15q-8 8 -5 17q8 3 19 -4q9 -5 29 -13q5 -2 9 2l15.5 18.5
t16.5 18.5q1 1 2.5 4t2.5 4q12 13 23 29t25 38.5l20 31.5l77 121q17 24 18 50q2 22 10 64q11 44 40 104q7 13 20 9l23 -5.5t22 -5.5q9 -2 14 -7q16 -16 23 -25q4 -7 6 -16q6 -27 -1 -66q-7 -53 -13 -86q0 -1 -0.5 -5t-0.5 -6q0 -28 -12 -64q-2 -6 -10 -50q-1 -7 -1 -21z
M182 306q-44 -57 -30 -71.5t71 23.5q9 4 10 14q0 17 2 49q4 59 -5 60q-7 0 -39 -58q-6 -11 -9 -17zM345 764q-2 -2 -2 -6q5 -10 21 -24q1 0 4 -1q18 10 24 22q5 12 5 13q-2 10 -8 12q-2 5 -14 7q-1 3 -5 0q-5 -3 -12 -9.5t-12 -9.5q0 -1 -1 -4zM438 793q0 -4 -2 -8
q-1 -2 -9.5 -29.5t-16.5 -38.5q-7 -10 -12 -10q-1 0 -8.5 -2t-10.5 -2.5t-8.5 0.5t-10.5 4l-1 2q-14 0 -25 17q-10 15 -10 35q2 36 29 74q6 2 7 1q50 -8 68 -26q10 -10 10 -17z" />
    <glyph glyph-name="AE" unicode="&#xc6;" horiz-adv-x="777" 
d="M547 571q73 22 140 15q13 -1 35 -9q15 -8 20 -32l9 -38q0 -1 5 -18q3 -19 -11 -33q-23 -25 -51 -19q-17 4 -37 4q-7 15 -89 -9q-81 -23 -88 -43q-5 -15 48 -18q39 -5 71 -1q16 4 38 -1q8 -3 11 -13v-2q-13 -6 -24 -21q-7 -9 -22 -16q-39 -18 -96.5 -59.5t-91.5 -82.5
q0 -9 -0.5 -27.5t-0.5 -27.5q0 -6 -2 -20q-3 -13 -3 -26l15 -3q27 -4 65 -2q10 1 40 4.5t46 6.5l60 6q28 5 50 18q9 7 14 -2q12 -15 16 -34q-7 -1 -13 -6q-16 -18 -30 -25q-37 -20 -58 -26q-11 -3 -32 -5q-35 -5 -38 -5q-6 -1 -18.5 -2t-19.5 -2q-2 0 -7.5 -2t-8.5 0
q-6 3 -15 -1q-29 -3 -58 5v-6q0 -6 0.5 -16.5t0.5 -16.5q0 -7 -2 -25l-9 9l-3 -4q-1 -1 -1 -5h-6t-6 -0.5t-4.5 -2.5t-1.5 -6q-8 -2 -17 4q-13 11 -16 15q-19 30 -29 71q0 10 4 12q1 0 1 9l-6 24q-13 42 -19 129l-3 16q-1 -1 -5 -2.5t-6 -2.5q-13 -10 -60 -28
q-26 -8 -51 -14q-20 -7 -37 -35q-9 -16 -29 -44t-27 -40q-6 -6 -13 -7q-8 -1 -9.5 -4.5t1 -6.5t1.5 -5t-8 1q-23 -4 -30 2.5t-9 22t-8 24.5q23 31 50 62l27 28q4 4 6 7q1 2 5 8l-9 8l-20 15q-8 8 -5 17q8 3 19 -4q9 -5 29 -13q5 -2 9 2l32 37q1 1 2.5 4t2.5 4q12 13 23 29
t25 38.5l20 31.5l77 121q17 24 18 50q2 22 10 64q11 44 40 104q7 13 20 9l45 -11q9 -2 14 -7q16 -16 23 -25q4 -7 6 -16q6 -27 -1 -66q-4 -24 -5 -35q30 26 75 42zM250 306q-44 -57 -30 -71.5t71 23.5q9 4 10 14q0 17 2 49q4 59 -5 60q-7 0 -39 -58q-6 -11 -9 -17zM440 332
l2 -2l20 9q15 8 26 10q-3 7 -16 11q-11 7 -23 23l-3 4l-5 -34q-1 -7 -1 -21z" />
    <glyph glyph-name="Ccedilla" unicode="&#xc7;" horiz-adv-x="395" 
d="M-27 -134q8 0 14 0.5t8.5 0t4 0t2.5 0.5q18 1 36 12q4 2 7 4l6.5 4.5l6.5 4.5q1 0 2 1.5t2 1.5l5 6l7 5q0 1 3 4q1 6 -4 7q-1 1 -6 0l-5 -1q-2 0 -7 1t-7 0q-4 0 -9 -0.5t-8 -0.5l-6 -1q-3 1 -9 1q-4 0 -8.5 4.5t-5.5 8.5l-2 9v17q3 15 9 35l2 8q-6 3 -20 20
q-13 13 -14 25l-7 21q-10 29 -8 70q0 12 6 44l18 72q22 62 22 63l6.5 17t7.5 18h-4l-5 -9q-2 -4 -7 -9q39 85 51 108q11 31 64 102t73 91q11 12 25 11q74 40 123 -42q39 -67 37 -157q-2 -63 -27 -88q-23 -26 -62 -21q-10 3 -30 7q-7 1 -7 8l4 76l3 38q2 21 4 71v8
q5 35 -8.5 39t-29.5 -10t-17 -23q-4 -14 -14 -26q-15 -14 -28 -42q-4 -10 -14 -31t-14 -32q-18 -43 -24 -84q-6 -34 -9 -65q-1 -10 -5 -31.5t-5 -32.5q0 -8 2 -49l3 -23q6 -39 15.5 -54t19.5 -8t18.5 21t15.5 31q3 8 5.5 17t5 19t4.5 16q4 11 -1 22q-13 26 20 40q15 6 61 13
q29 4 33 -27q0 -16 -5 -28q-7 -16 -26 -66t-34.5 -82t-31.5 -49q-2 -1 -10 -12q-10 -18 -28 -15q-19 3 -40 0t-47 8q-7 1 -19 1q-7 -1 -15 2l-6 2q-2 -4 -4.5 -8.5t-3.5 -7t-2.5 -5t-1.5 -4v-3t1.5 -2.5t4 -1.5t6.5 -1.5l14 -2q13 -3 24.5 -6t12.5 -4q4 -6 5 -9q4 -5 2 -10
q0 -11 -3 -22q-4 -10 -8 -13q-1 -1 -1 -2t-2 -2q0 -4 -4 -4l-6 -3l-5 -5q-2 -2 -4 -6q-3 -5 -6 -6q-1 0 -2 -1q-2 -2 -3 -2l-9 -6q-1 -1 -4 -2.5t-4 -2.5l-4 -2q-2 -1 -8.5 -3.5t-9.5 -4.5q-1 0 -4 -0.5t-4 -0.5q-4 -1 -15.5 8.5t-13.5 14.5q-1 3 -1 12z" />
    <glyph glyph-name="Egrave" unicode="&#xc8;" horiz-adv-x="421" 
d="M116 360q-11 7 -23 23q-26 42 -17 80q10 40 36 62q33 30 79 46q73 22 140 15q13 -1 35 -9q15 -8 20 -32l5 -21t4 -17q0 -1 5 -18q3 -19 -11 -33q-23 -25 -51 -19q-17 4 -37 4q-7 15 -89 -9q-81 -23 -88 -43q-5 -15 48 -18q39 -5 71 -1q16 4 38 -1q8 -3 11 -13v-2
q-13 -6 -24 -21q-8 -9 -22 -16q-54 -25 -128 -84t-89 -106q-3 -7 -1 -22t8 -21q10 -9 31 -13q27 -4 65 -2q10 1 40 4.5t46 6.5q7 1 19.5 2t22.5 2t18 2q28 5 50 18q9 7 14 -2q12 -15 16 -34q-7 -1 -13 -6q-16 -18 -30 -25q-37 -20 -58 -26q-11 -3 -32 -5q-35 -5 -38 -5
q-7 -1 -19 -2t-19 -2q-2 0 -7.5 -2t-8.5 0q-6 3 -15 -1q-35 -3 -64 7q-38 14 -61 47q-1 3 -2.5 6l-3 6t-2.5 4q-31 53 -9 118q18 55 60 89q3 3 56 35q59 36 32 50q-3 2 -8 4zM295 615q-2 1 -4 1q-22 12 -46 34q-16 15 -35 37q-5 8 -10 12q-1 4 1 5l3.5 3.5t3.5 4.5q1 0 2 1
q4 4 6 5q8 5 18 3t15 -10q4 -7 12 -19q5 -11 6 -20q3 -10 3 -11q5 -10 6 -11q5 -4 12 -17q4 -4 3 -8q0 -5 3 -8q1 0 1 -2z" />
    <glyph glyph-name="Eacute" unicode="&#xc9;" horiz-adv-x="421" 
d="M116 360q-11 7 -23 23q-26 42 -17 80q10 40 36 62q33 30 79 46q73 22 140 15q13 -1 35 -9q15 -8 20 -32l5 -21t4 -17q0 -1 5 -18q3 -19 -11 -33q-23 -25 -51 -19q-17 4 -37 4q-7 15 -89 -9q-81 -23 -88 -43q-5 -15 48 -18q39 -5 71 -1q16 4 38 -1q8 -3 11 -13v-2
q-13 -6 -24 -21q-8 -9 -22 -16q-54 -25 -128 -84t-89 -106q-3 -7 -1 -22t8 -21q10 -9 31 -13q27 -4 65 -2q10 1 40 4.5t46 6.5q7 1 19.5 2t22.5 2t18 2q28 5 50 18q9 7 14 -2q12 -15 16 -34q-7 -1 -13 -6q-16 -18 -30 -25q-37 -20 -58 -26q-11 -3 -32 -5q-35 -5 -38 -5
q-7 -1 -19 -2t-19 -2q-2 0 -7.5 -2t-8.5 0q-6 3 -15 -1q-35 -3 -64 7q-38 14 -61 47q-1 3 -2.5 6l-3 6t-2.5 4q-31 53 -9 118q18 55 60 89q3 3 56 35q59 36 32 50q-3 2 -8 4zM231 613q0 2 1 2q3 3 3 8q-1 4 3 8q8 13 12 17q1 1 6 11q0 1 3 11q1 9 6 20q8 12 12 19q5 8 15 10
t18 -3q2 -1 6 -5q1 -1 2 -1q1 -2 3.5 -4.5l3.5 -3.5q2 -1 1 -5q-5 -4 -10 -12q-19 -22 -35 -37q-24 -22 -46 -34q-2 0 -4 -1z" />
    <glyph glyph-name="Ecircumflex" unicode="&#xca;" horiz-adv-x="421" 
d="M116 360q-11 7 -23 23q-26 42 -17 80q10 40 36 62q33 30 79 46q73 22 140 15q13 -1 35 -9q15 -8 20 -32l5 -21t4 -17q0 -1 5 -18q3 -19 -11 -33q-23 -25 -51 -19q-17 4 -37 4q-7 15 -89 -9q-81 -23 -88 -43q-5 -15 48 -18q39 -5 71 -1q16 4 38 -1q8 -3 11 -13v-2
q-13 -6 -24 -21q-8 -9 -22 -16q-54 -25 -128 -84t-89 -106q-3 -7 -1 -22t8 -21q10 -9 31 -13q27 -4 65 -2q10 1 40 4.5t46 6.5q7 1 19.5 2t22.5 2t18 2q28 5 50 18q9 7 14 -2q12 -15 16 -34q-7 -1 -13 -6q-16 -18 -30 -25q-37 -20 -58 -26q-11 -3 -32 -5q-35 -5 -38 -5
q-7 -1 -19 -2t-19 -2q-2 0 -7.5 -2t-8.5 0q-6 3 -15 -1q-35 -3 -64 7q-38 14 -61 47q-1 3 -2.5 6l-3 6t-2.5 4q-31 53 -9 118q18 55 60 89q3 3 56 35q59 36 32 50q-3 2 -8 4zM351 616q-4 0 -9 5l-11 22q-2 4 -4 12l-3 12q0 3 -2 7q-2 -3 -8 -7q-17 -16 -35 -29l-18 -9
q-18 -4 -27 -12l-6 3l-6 3q-4 3 -3 7q3 10 7 16q5 7 13 17q43 46 50 52h1q1 1 2.5 3t2.5 3t2 1q3 1 7 0t5 -1t3 -2q13 -1 22 -16q9 -13 14 -35q6 -20 10 -30q0 -1 2 -9q0 -1 -2 -5q-2 -1 -4 -4t-3 -4z" />
    <glyph glyph-name="Edieresis" unicode="&#xcb;" horiz-adv-x="421" 
d="M116 360q-11 7 -23 23q-26 42 -17 80q10 40 36 62q33 30 79 46q73 22 140 15q13 -1 35 -9q15 -8 20 -32l5 -21t4 -17q0 -1 5 -18q3 -19 -11 -33q-23 -25 -51 -19q-17 4 -37 4q-7 15 -89 -9q-81 -23 -88 -43q-5 -15 48 -18q39 -5 71 -1q16 4 38 -1q8 -3 11 -13v-2
q-13 -6 -24 -21q-8 -9 -22 -16q-54 -25 -128 -84t-89 -106q-3 -7 -1 -22t8 -21q10 -9 31 -13q27 -4 65 -2q10 1 40 4.5t46 6.5q7 1 19.5 2t22.5 2t18 2q28 5 50 18q9 7 14 -2q12 -15 16 -34q-7 -1 -13 -6q-16 -18 -30 -25q-37 -20 -58 -26q-11 -3 -32 -5q-35 -5 -38 -5
q-7 -1 -19 -2t-19 -2q-2 0 -7.5 -2t-8.5 0q-6 3 -15 -1q-35 -3 -64 7q-38 14 -61 47q-1 3 -2.5 6l-3 6t-2.5 4q-31 53 -9 118q18 55 60 89q3 3 56 35q59 36 32 50q-3 2 -8 4zM257 679q0 -3 -1 -5l-5.5 -17t-8.5 -20q-3 -5 -7 -5q-14 -4 -20 0l-1 1q-8 0 -14 9q-5 8 -5 19
q1 20 16 40q3 3 4 1q26 -4 37 -14q5 -5 5 -9zM363 679q0 -3 -1 -5l-5.5 -17t-8.5 -20q-3 -5 -7 -5q-14 -4 -20 0l-1 1q-8 0 -14 9q-5 8 -5 19q1 20 16 40q3 3 4 1q26 -4 37 -14q5 -5 5 -9z" />
    <glyph glyph-name="Igrave" unicode="&#xcc;" 
d="M111 514q3 4 -4 5q-7 2 -7 4q2 1 3.5 3.5t2.5 3.5q12 8 14 20q9 8 48 18q24 8 90 25q32 8 52 1q30 -7 24 -37q-2 -12 4 -16q6 -2 -2 -29q-9 -3 -32.5 -6.5t-38.5 -10.5t-21 -21q-3 -11 -6.5 -22.5l-6.5 -21.5l-28 -111q-1 -4 -3.5 -17t-4.5 -20l-22 -67q-2 -4 -5 -12
t-5.5 -14t-5.5 -14.5t-4 -14t-2 -13t0.5 -11.5t4.5 -8t9.5 -4t15.5 1t36 -2v-4q-1 -11 7 -9q-4 -8 -3 -11q2 -5 -6 -31q-1 -2 -2.5 -6.5t-2.5 -6.5q-12 -15 -9 -25q3 -6 -7 -11q-15 -6 -18 -1q-7 8 -27 5l-64 -9l-78 -12q-12 -2 -34 -3t-29 -2q-8 0 -16 5q-18 8 -4 32
q14 21 17 25q4 7 9 9q17 9 40 18q4 2 38 12q7 2 17 9q4 4 6 8l16 50q6 33 18 63q1 1 2.5 4t3.5 5q13 18 21 54q9 33 13 40q2 5 3.5 14.5t1.5 11.5q1 4 1.5 14t2.5 16q2 9 3.5 16.5t4.5 17.5q5 20 6 30.5t-4 15t-11 5.5t-19.5 2.5t-25.5 4.5q-1 0 -1 5.5t0.5 10.5t-0.5 6
q1 0 2 1t4.5 2.5t6 3t5.5 3.5t5 3h1zM-29 10q1 0 1 -1l2 -1q5 0 14.5 -0.5t14.5 -0.5l53 6q22 2 31 4q2 1 12.5 3.5t16.5 5.5l23 3q21 7 24 9q-4 0 -9.5 0.5t-7.5 0.5q-5 1 -17 -1h-15q12 2 27 3q-3 5 -15 3q-3 -1 -37 -6q-7 -2 -8 -3q-7 -4 -27 -8q-13 -1 -36 -4l-31 -4
q-11 -2 -16 -9zM284 521q-3 1 -8 2.5t-7.5 2t-7.5 -0.5t-10 -5q-2 -3 -2 -4.5t2 -2t5 -0.5q4 1 13.5 4t14.5 4zM144 499v2q-3 0 -5 -1q-4 0 -6 -1q0 -1 -1 -2q2 1 6 1.5t6 0.5zM253 623q-2 1 -4 1q-22 12 -46 34q-16 15 -35 37q-5 8 -10 12q-1 4 1 5l3.5 3.5t3.5 4.5
q1 0 2 1q4 4 6 5q8 5 18 3t15 -10q4 -7 12 -19q5 -11 6 -20q3 -10 3 -11q5 -10 6 -11q5 -4 12 -17q4 -4 3 -8q0 -5 3 -8q1 0 1 -2z" />
    <glyph glyph-name="Iacute" unicode="&#xcd;" 
d="M111 514q3 4 -4 5q-7 2 -7 4q2 1 3.5 3.5t2.5 3.5q12 8 14 20q9 8 48 18q24 8 90 25q32 8 52 1q30 -7 24 -37q-2 -12 4 -16q6 -2 -2 -29q-9 -3 -32.5 -6.5t-38.5 -10.5t-21 -21q-3 -11 -6.5 -22.5l-6.5 -21.5l-28 -111q-1 -4 -3.5 -17t-4.5 -20l-22 -67q-2 -4 -5 -12
t-5.5 -14t-5.5 -14.5t-4 -14t-2 -13t0.5 -11.5t4.5 -8t9.5 -4t15.5 1t36 -2v-4q-1 -11 7 -9q-4 -8 -3 -11q2 -5 -6 -31q-1 -2 -2.5 -6.5t-2.5 -6.5q-12 -15 -9 -25q3 -6 -7 -11q-15 -6 -18 -1q-7 8 -27 5l-64 -9l-78 -12q-12 -2 -34 -3t-29 -2q-8 0 -16 5q-18 8 -4 32
q14 21 17 25q4 7 9 9q17 9 40 18q4 2 38 12q7 2 17 9q4 4 6 8l16 50q6 33 18 63q1 1 2.5 4t3.5 5q13 18 21 54q9 33 13 40q2 5 3.5 14.5t1.5 11.5q1 4 1.5 14t2.5 16q2 9 3.5 16.5t4.5 17.5q5 20 6 30.5t-4 15t-11 5.5t-19.5 2.5t-25.5 4.5q-1 0 -1 5.5t0.5 10.5t-0.5 6
q1 0 2 1t4.5 2.5t6 3t5.5 3.5t5 3h1zM-29 10q1 0 1 -1l2 -1q5 0 14.5 -0.5t14.5 -0.5l53 6q22 2 31 4q2 1 12.5 3.5t16.5 5.5l23 3q21 7 24 9q-4 0 -9.5 0.5t-7.5 0.5q-5 1 -17 -1h-15q12 2 27 3q-3 5 -15 3q-3 -1 -37 -6q-7 -2 -8 -3q-7 -4 -27 -8q-13 -1 -36 -4l-31 -4
q-11 -2 -16 -9zM284 521q-3 1 -8 2.5t-7.5 2t-7.5 -0.5t-10 -5q-2 -3 -2 -4.5t2 -2t5 -0.5q4 1 13.5 4t14.5 4zM144 499v2q-3 0 -5 -1q-4 0 -6 -1q0 -1 -1 -2q2 1 6 1.5t6 0.5zM214 634q0 2 1 2q3 3 3 8q-1 4 3 8q7 12 12 17q1 1 6 11q0 1 3 11q1 9 6 20q8 12 12 19
q5 8 15 10t18 -3q2 -1 6 -5q1 0 2 -1q1 -2 3.5 -4.5l3.5 -3.5q2 -1 1 -5q-5 -4 -10 -12q-19 -22 -35 -37q-24 -22 -46 -34q-2 0 -4 -1z" />
    <glyph glyph-name="Icircumflex" unicode="&#xce;" 
d="M111 514q3 4 -4 5q-7 2 -7 4q2 1 3.5 3.5t2.5 3.5q12 8 14 20q9 8 48 18q24 8 90 25q32 8 52 1q30 -7 24 -37q-2 -12 4 -16q6 -2 -2 -29q-9 -3 -32.5 -6.5t-38.5 -10.5t-21 -21q-3 -11 -6.5 -22.5l-6.5 -21.5l-28 -111q-1 -4 -3.5 -17t-4.5 -20l-22 -67q-2 -4 -5 -12
t-5.5 -14t-5.5 -14.5t-4 -14t-2 -13t0.5 -11.5t4.5 -8t9.5 -4t15.5 1t36 -2v-4q-1 -11 7 -9q-4 -8 -3 -11q2 -5 -6 -31q-1 -2 -2.5 -6.5t-2.5 -6.5q-12 -15 -9 -25q3 -6 -7 -11q-15 -6 -18 -1q-7 8 -27 5l-64 -9l-78 -12q-12 -2 -34 -3t-29 -2q-8 0 -16 5q-18 8 -4 32
q14 21 17 25q4 7 9 9q17 9 40 18q4 2 38 12q7 2 17 9q4 4 6 8l16 50q6 33 18 63q1 1 2.5 4t3.5 5q13 18 21 54q9 33 13 40q2 5 3.5 14.5t1.5 11.5q1 4 1.5 14t2.5 16q2 9 3.5 16.5t4.5 17.5q5 20 6 30.5t-4 15t-11 5.5t-19.5 2.5t-25.5 4.5q-1 0 -1 5.5t0.5 10.5t-0.5 6
q1 0 2 1t4.5 2.5t6 3t5.5 3.5t5 3h1zM-29 10q1 0 1 -1l2 -1q5 0 14.5 -0.5t14.5 -0.5l53 6q22 2 31 4q2 1 12.5 3.5t16.5 5.5l23 3q21 7 24 9q-4 0 -9.5 0.5t-7.5 0.5q-5 1 -17 -1h-15q12 2 27 3q-3 5 -15 3q-3 -1 -37 -6q-7 -2 -8 -3q-7 -4 -27 -8q-13 -1 -36 -4l-31 -4
q-11 -2 -16 -9zM284 521q-3 1 -8 2.5t-7.5 2t-7.5 -0.5t-10 -5q-2 -3 -2 -4.5t2 -2t5 -0.5q4 1 13.5 4t14.5 4zM144 499v2q-3 0 -5 -1q-4 0 -6 -1q0 -1 -1 -2q2 1 6 1.5t6 0.5zM296 634q-4 0 -9 5l-5 9q-4 8 -6 13q-2 4 -4 12l-3 12q0 3 -2 7q-3 -3 -8 -7q-17 -16 -35 -29
q-3 -2 -6 -3.5t-6.5 -3t-5.5 -2.5q-18 -4 -27 -12l-6 3l-6 3q-4 3 -3 7q3 10 7 16q5 7 13 17q43 46 50 52h1q1 1 2.5 3t2.5 3t2 1q3 1 7 0t5 -1t3 -2q13 -1 22 -16q9 -13 14 -35q6 -20 10 -30q0 -1 2 -9q0 -1 -2 -5q-2 -1 -4 -4t-3 -4z" />
    <glyph glyph-name="Idieresis" unicode="&#xcf;" 
d="M111 514q3 4 -4 5q-7 2 -7 4q2 1 3.5 3.5t2.5 3.5q12 8 14 20q9 8 48 18q24 8 90 25q32 8 52 1q30 -7 24 -37q-2 -12 4 -16q6 -2 -2 -29q-9 -3 -32.5 -6.5t-38.5 -10.5t-21 -21q-3 -11 -6.5 -22.5l-6.5 -21.5l-28 -111q-1 -4 -3.5 -17t-4.5 -20l-22 -67q-2 -4 -5 -12
t-5.5 -14t-5.5 -14.5t-4 -14t-2 -13t0.5 -11.5t4.5 -8t9.5 -4t15.5 1t36 -2v-4q-1 -11 7 -9q-4 -8 -3 -11q2 -5 -6 -31q-1 -2 -2.5 -6.5t-2.5 -6.5q-12 -15 -9 -25q3 -6 -7 -11q-15 -6 -18 -1q-7 8 -27 5l-64 -9l-78 -12q-12 -2 -34 -3t-29 -2q-8 0 -16 5q-18 8 -4 32
q14 21 17 25q4 7 9 9q17 9 40 18q4 2 38 12q7 2 17 9q4 4 6 8l16 50q6 33 18 63q1 1 2.5 4t3.5 5q13 18 21 54q9 33 13 40q2 5 3.5 14.5t1.5 11.5q1 4 1.5 14t2.5 16q2 9 3.5 16.5t4.5 17.5q5 20 6 30.5t-4 15t-11 5.5t-19.5 2.5t-25.5 4.5q-1 0 -1 5.5t0.5 10.5t-0.5 6
q1 0 2 1t4.5 2.5t6 3t5.5 3.5t5 3h1zM-29 10q1 0 1 -1l2 -1q5 0 14.5 -0.5t14.5 -0.5l53 6q22 2 31 4q2 1 12.5 3.5t16.5 5.5l23 3q21 7 24 9q-4 0 -9.5 0.5t-7.5 0.5q-5 1 -17 -1h-15q12 2 27 3q-3 5 -15 3q-3 -1 -37 -6q-7 -2 -8 -3q-7 -4 -27 -8q-13 -1 -36 -4l-31 -4
q-11 -2 -16 -9zM284 521q-3 1 -8 2.5t-7.5 2t-7.5 -0.5t-10 -5q-2 -3 -2 -4.5t2 -2t5 -0.5q4 1 13.5 4t14.5 4zM144 499v2q-3 0 -5 -1q-4 0 -6 -1q0 -1 -1 -2q2 1 6 1.5t6 0.5zM156 672l-7 -4q0 1 -1 1q-4 2 -6 6q-3 12 5 20q9 8 21 13q13 0 20 1q3 0 5 -1q5 0 13 -2h2.5
t2.5 -1q2 0 4 -1q4 0 10 -2q3 -2 8 -3t6 -2l2 -1q1 -1 3.5 -1.5t3.5 -0.5t4 -1t5 -1q14 -5 17 -6q1 0 5 -1t5 -2h1q3 2 9.5 2.5t8.5 1.5l2 1q7 2 7 4q2 6 2 10l-1 2h5q0 -1 3 -4t2 -6l-1 -8q-5 -8 -9 -9l-11 -7q-5 -3 -23 -5q-15 -3 -32 0q-6 1 -39 11q-5 1 -14 3.5t-13 3.5
q-10 2 -15 2q-1 0 -3 -1t-3.5 -1.5t-2.5 -0.5q-4 -6 -2 -8zM298 671q0 1 -1 1l-4 -1l-12 -3q-4 0 -14 -2q-4 -2 -5 1l-1 1l-25 4q-1 -1 -2 0v-2l4 -1q14 -2 21 -4h16q6 1 16 3q4 0 7 3z" />
    <glyph glyph-name="Eth" unicode="&#xd0;" horiz-adv-x="549" 
d="M136 -10l24 6q-20 -19 -38 -15q-18 -4 -27 -19q-8 -8 -14 -5q-3 2 -20 -1q-6 -2 -9.5 -3t-5 -1.5t-2 -1.5t-1 -1t-2 -0.5t-5 -1t-9.5 -1.5q-43 -5 -46 -6q-5 3 -7 1q-14 -5 -38 6q-6 2 -8 13q2 14 -2 23q-6 0 -2 7q12 33 14 37q6 11 15 13q22 13 34 15q9 3 54 16l9 4h-2
q-5 -1 0 1q2 1 5 2q12 3 16 15l13 37l41 122q2 4 4.5 13t3.5 13q-13 -1 -21 -1.5t-10 -0.5t-5 -0.5t-8.5 -0.5h-18.5q-7 0 -9.5 3.5t-4.5 10t-6 11.5l-13 12q-7 5 -3 12l19 -2q8 -2 14 -1q7 1 37 2q33 1 43 1l27 80q1 4 10 32q-10 -2 -12 -2q-29 -11 -49 -14q-12 0 -19 2
q-17 3 -17 28v20q-2 11 3 54q1 7 11 29q3 9 11 9q6 -1 14 0.5t18 5.5t14 5l33 6q10 3 34 6.5t36 7.5q54 11 120 8q64 -5 101 -22q32 -15 49 -45q16 -27 7 -83q-2 -19 -22 -74q-4 -8 -16.5 -37t-21.5 -45q-2 -4 -6.5 -10.5l-8 -12l-6.5 -10.5q-33 -48 -48 -64
q-23 -28 -42 -46q-39 -40 -72 -66q-66 -47 -129 -79l-27 -14q0 -2 -1 -3zM272 307l1 -3q-2 -17 -25 -21q-55 -6 -59 -6h-4q-3 -11 -11 -33q-1 -3 -4.5 -21t-7.5 -29q-43 -92 -1 -90q31 2 92 54q52 35 92 76q53 55 80 99q29 54 33 90q4 11 -5 13q-24 7 -41 11q-75 13 -152 -5
q-11 -3 -15 -5q-2 0 -3.5 -2.5t-0.5 -3.5q-8 -11 -13 -25q-8 -29 -28 -85l-1 -1l54 -7q2 -1 9 -3t10 -3z" />
    <glyph glyph-name="Ntilde" unicode="&#xd1;" horiz-adv-x="586" 
d="M23 315q1 1 1 4v5l49 135q5 15 17 45q5 13 17 12q6 -2 24.5 -0.5t24.5 1.5q49 -4 63 -31q5 -8 11 -28q2 -7 -1 -12q-5 -8 -15 -54q-3 -14 -9 -39q-12 -47 -7 -48q6 -1 32 29q58 83 61 88q82 106 128 135q3 2 11 8q12 10 23 9q2 0 14 3q55 7 65 6q23 -4 28 -27
q5 -35 -10 -88q-4 -13 -28.5 -62t-29.5 -63q-11 -29 -14 -35q-2 -4 -3 -12t-2 -12q-2 -5 -13 -50q-1 -5 -3.5 -14t-3.5 -12q-2 -8 -1 -11q5 -15 -1 -31q-13 -39 -9 -45q2 -4 2 -6q1 -2 3 -6.5t3 -7.5q13 8 29.5 26.5t24.5 24.5q0 -15 5 -21q3 -1 0 -7q-5 -9 -17 -27l-24 -33
q-9 -12 -21 -18q-30 -16 -45 -22q-24 -11 -48 -5.5t-29 29.5q-3 15 -10 54q0 4 2 14q1 4 5 17t5.5 20.5t-0.5 15.5q-5 11 2 27q4 10 6 22q1 2 -2 5q-2 2 -3 4q7 7 10.5 21.5t6.5 19.5q4 8 5.5 21t4.5 20q-1 -1 -4 -1q-5 -19 -14 -43h-2q7 21 19 65q2 11 31 89q23 63 4 63h-4
l-83 -119q-10 -15 -19 -21q-19 -18 -31 -40q-10 -21 -29 -41q-16 -17 -29 -42q-16 -33 -40 -60q-13 -14 -24 -40l-6 -15l-7.5 -18t-7.5 -15q-10 -20 -18 -50q-5 -24 -19 -36q-4 -6 -7 -6q-5 -1 -22 -13q-21 -13 -39 -17q-26 -3 -41 -1q-4 1 -8.5 8t-3.5 12q5 21 7 78
q4 89 49 207l40 102q4 14 5 21q-7 -9 -12 -19t-10.5 -23t-8.5 -19zM251 630l-7 -4q0 1 -1 1q-4 2 -6 6q-3 12 5 20q9 8 21 13q13 0 20 1q3 0 5 -1q5 0 13 -2h2.5t2.5 -1q2 0 4 -1q4 0 10 -2q3 -2 8 -3t6 -2l2 -1q1 -1 3.5 -1.5t3.5 -0.5t4 -1t5 -1q14 -5 17 -6q1 0 4.5 -1
t5.5 -2h1q3 2 9.5 2.5t8.5 1.5l2 1q7 2 7 4q2 6 2 10l-1 2h5l3 -4q3 -3 2 -6l-1 -8q-5 -8 -9 -9l-11 -7q-5 -3 -23 -5q-15 -3 -32 0q-6 1 -39 11q-4 1 -13 3.5t-14 3.5q-10 2 -15 2l-9 -3q-4 -6 -2 -8zM393 629q0 1 -1 1l-4 -1l-12 -3q-4 0 -14 -2q-4 -2 -5 1l-1 1l-25 4
q-1 -1 -2 0v-2l4 -1q14 -2 21 -4h16q6 1 16 3q4 0 7 3z" />
    <glyph glyph-name="Ograve" unicode="&#xd2;" horiz-adv-x="468" 
d="M-12 178q-5 54 23 131l51 132q9 24 15 31q12 26 24 48q10 22 35 51q13 13 35 11q10 -4 15 5q24 17 32 24q37 28 98 30q25 -2 36 -13q25 -25 37 -40q14 -19 28 -67q10 -29 8 -78q-3 -33 -17 -61q-1 -2 -1.5 -6.5t-1.5 -5.5q0 -6 -0.5 -17t-0.5 -16q-1 -9 -6 -32.5
t-6 -35.5q-1 -13 -19 -80q-1 -8 -4 -16t-7.5 -18t-6.5 -16q-2 -8 -6 -16.5t-7.5 -14.5t-9.5 -15.5l-9 -14.5q0 -2 -2 -5t-4.5 -6t-3.5 -5q-5 -6 -22.5 -24t-28.5 -28q-29 -29 -65 -37l-18 -6q-15 -8 -30 -3l-21 3q-25 1 -46 16q-51 33 -74 86q-19 41 -19 100q-1 1 -1 4v5z
M83 295q-2 -7 -2 -18q-4 -12 -6 -37q0 -5 -2 -16t-2 -17q1 -4 4.5 -21.5t4.5 -26.5q12 -49 17 -80q5 -30 23 -42q12 -8 20 -2q30 14 38 21q65 58 98 120q41 76 58 168q10 62 13 117q1 24 -14 39q-13 15 -33 9q-1 -1 -8.5 -3.5t-11.5 -5.5q-7 -2 -13 -11l-15 -25t-16 -26
l-21 -36q-5 -17 -15 -38q-4 -3 -4 -7q-4 -10 -14.5 -33t-15.5 -35q0 -9 -11 -9q-19 0 -22 2q-8 5 -50 13zM321 667q-2 1 -4 1q-22 12 -46 34q-16 15 -35 37q-5 8 -10 12q-1 4 1 5l3.5 3.5t3.5 4.5q1 0 2 1q4 4 6 5q8 5 18 3t15 -10q4 -7 12 -19q5 -11 6 -20q3 -10 3 -11
q5 -10 6 -11q4 -5 12 -17q4 -4 3 -8q0 -5 3 -8q1 0 1 -2z" />
    <glyph glyph-name="Oacute" unicode="&#xd3;" horiz-adv-x="468" 
d="M-12 178q-5 54 23 131l51 132q9 24 15 31q12 26 24 48q10 22 35 51q13 13 35 11q10 -4 15 5q24 17 32 24q37 28 98 30q25 -2 36 -13q25 -25 37 -40q14 -19 28 -67q10 -29 8 -78q-3 -33 -17 -61q-1 -2 -1.5 -6.5t-1.5 -5.5q0 -6 -0.5 -17t-0.5 -16q-1 -9 -6 -32.5
t-6 -35.5q-1 -13 -19 -80q-1 -8 -4 -16t-7.5 -18t-6.5 -16q-2 -8 -6 -16.5t-7.5 -14.5t-9.5 -15.5l-9 -14.5q0 -2 -2 -5t-4.5 -6t-3.5 -5q-5 -6 -22.5 -24t-28.5 -28q-29 -29 -65 -37l-18 -6q-15 -8 -30 -3l-21 3q-25 1 -46 16q-51 33 -74 86q-19 41 -19 100q-1 1 -1 4v5z
M83 295q-2 -7 -2 -18q-4 -12 -6 -37q0 -5 -2 -16t-2 -17q1 -4 4.5 -21.5t4.5 -26.5q12 -49 17 -80q5 -30 23 -42q12 -8 20 -2q30 14 38 21q65 58 98 120q41 76 58 168q10 62 13 117q1 24 -14 39q-13 15 -33 9q-1 -1 -8.5 -3.5t-11.5 -5.5q-7 -2 -13 -11l-15 -25t-16 -26
l-21 -36q-5 -17 -15 -38q-4 -3 -4 -7q-4 -10 -14.5 -33t-15.5 -35q0 -9 -11 -9q-19 0 -22 2q-8 5 -50 13zM274 667q0 2 1 2q3 3 3 8q-1 4 3 8q7 12 12 17q1 1 6 11q0 1 3 11q1 9 6 20q8 12 12 19q5 8 15 10t18 -3q2 -1 6 -5q1 -1 2 -1q1 -2 3.5 -4.5l3.5 -3.5q2 -1 1 -5
q-5 -4 -10 -12q-19 -22 -35 -37q-24 -22 -46 -34q-2 0 -4 -1z" />
    <glyph glyph-name="Ocircumflex" unicode="&#xd4;" horiz-adv-x="468" 
d="M-12 178q-5 54 23 131l51 132q9 24 15 31q12 26 24 48q10 22 35 51q13 13 35 11q10 -4 15 5q24 17 32 24q37 28 98 30q25 -2 36 -13q25 -25 37 -40q14 -19 28 -67q10 -29 8 -78q-3 -33 -17 -61q-1 -2 -1.5 -6.5t-1.5 -5.5q0 -6 -0.5 -17t-0.5 -16q-1 -9 -6 -32.5
t-6 -35.5q-1 -13 -19 -80q-1 -8 -4 -16t-7.5 -18t-6.5 -16q-2 -8 -6 -16.5t-7.5 -14.5t-9.5 -15.5l-9 -14.5q0 -2 -2 -5t-4.5 -6t-3.5 -5q-5 -6 -22.5 -24t-28.5 -28q-29 -29 -65 -37l-18 -6q-15 -8 -30 -3l-21 3q-25 1 -46 16q-51 33 -74 86q-19 41 -19 100q-1 1 -1 4v5z
M83 295q-2 -7 -2 -18q-4 -12 -6 -37q0 -5 -2 -16t-2 -17q1 -4 4.5 -21.5t4.5 -26.5q12 -49 17 -80q5 -30 23 -42q12 -8 20 -2q30 14 38 21q65 58 98 120q41 76 58 168q10 62 13 117q1 24 -14 39q-13 15 -33 9q-1 -1 -8.5 -3.5t-11.5 -5.5q-7 -2 -13 -11l-15 -25t-16 -26
l-21 -36q-5 -17 -15 -38q-4 -3 -4 -7q-4 -10 -14.5 -33t-15.5 -35q0 -9 -11 -9q-19 0 -22 2q-8 5 -50 13zM359 675q-4 0 -9 5l-4 8q-5 9 -7 14q-2 4 -4 12l-3 12q0 3 -2 7q-3 -3 -8 -7q-17 -16 -35 -29q-3 -2 -6 -3.5t-6.5 -3t-5.5 -2.5q-18 -4 -27 -12l-6 3l-6 3q-4 3 -3 7
q3 10 7 16q5 7 13 17q43 46 50 52h1q1 1 2.5 3t2.5 3t2 1q3 1 7 0t5 -1t3 -2q13 -1 22 -16q9 -13 14 -35q6 -20 10 -30q0 -1 2 -9q0 -1 -2 -5q-2 -1 -4 -4t-3 -4z" />
    <glyph glyph-name="Otilde" unicode="&#xd5;" horiz-adv-x="468" 
d="M-12 178q-5 54 23 131l51 132q9 24 15 31q12 26 24 48q10 22 35 51q13 13 35 11q10 -4 15 5q24 17 32 24q37 28 98 30q25 -2 36 -13q25 -25 37 -40q14 -19 28 -67q10 -29 8 -78q-3 -33 -17 -61q-1 -2 -1.5 -6.5t-1.5 -5.5q0 -6 -0.5 -17t-0.5 -16q-1 -9 -6 -32.5
t-6 -35.5q-1 -13 -19 -80q-1 -8 -4 -16t-7.5 -18t-6.5 -16q-2 -8 -6 -16.5t-7.5 -14.5t-9.5 -15.5l-9 -14.5q0 -2 -2 -5t-4.5 -6t-3.5 -5q-5 -6 -22.5 -24t-28.5 -28q-29 -29 -65 -37l-18 -6q-15 -8 -30 -3l-21 3q-25 1 -46 16q-51 33 -74 86q-19 41 -19 100q-1 1 -1 4v5z
M83 295q-2 -7 -2 -18q-4 -12 -6 -37q0 -5 -2 -16t-2 -17q1 -4 4.5 -21.5t4.5 -26.5q12 -49 17 -80q5 -30 23 -42q12 -8 20 -2q30 14 38 21q65 58 98 120q41 76 58 168q10 62 13 117q1 24 -14 39q-13 15 -33 9q-1 -1 -8.5 -3.5t-11.5 -5.5q-7 -2 -13 -11l-15 -25t-16 -26
l-21 -36q-5 -17 -15 -38q-4 -3 -4 -7q-4 -10 -14.5 -33t-15.5 -35q0 -9 -11 -9q-19 0 -22 2q-8 5 -50 13zM229 703l-7 -4q0 1 -1 1q-4 2 -6 6q-3 12 5 20q9 8 21 13q13 0 20 1q3 0 5 -1q5 0 13 -2h2.5t2.5 -1q2 0 4 -1q4 0 10 -2q3 -2 8 -3t6 -2l2 -1q1 -1 3.5 -1.5
t3.5 -0.5t4 -1t5 -1q14 -5 17 -6q2 -1 5 -2t5 -1h1q3 2 9.5 2.5t8.5 1.5l2 1q7 2 7 4q2 6 2 10l-1 2h5q0 -1 3 -4t2 -6l-1 -8q-5 -8 -9 -9l-11 -7q-5 -3 -23 -5q-15 -3 -32 0q-6 1 -39 11q-5 1 -14 3.5t-13 3.5q-10 2 -15 2q-1 0 -3 -1t-3.5 -1.5t-2.5 -0.5q-4 -5 -2 -8z
M371 702q0 1 -1 1l-4 -1l-12 -3q-4 0 -14 -2q-4 -2 -5 1l-1 1l-25 4q-1 -1 -2 0v-2l4 -1q14 -2 21 -4h5.5h5.5h5q6 1 16 3q4 0 7 3z" />
    <glyph glyph-name="Odieresis" unicode="&#xd6;" horiz-adv-x="468" 
d="M-12 178q-5 54 23 131l51 132q9 24 15 31q12 26 24 48q10 22 35 51q13 13 35 11q10 -4 15 5q24 17 32 24q37 28 98 30q25 -2 36 -13q25 -25 37 -40q14 -19 28 -67q10 -29 8 -78q-3 -33 -17 -61q-1 -2 -1.5 -6.5t-1.5 -5.5q0 -6 -0.5 -17t-0.5 -16q-1 -9 -6 -32.5
t-6 -35.5q-1 -13 -19 -80q-1 -8 -4 -16t-7.5 -18t-6.5 -16q-2 -8 -6 -16.5t-7.5 -14.5t-9.5 -15.5l-9 -14.5q0 -2 -2 -5t-4.5 -6t-3.5 -5q-5 -6 -22.5 -24t-28.5 -28q-29 -29 -65 -37l-18 -6q-15 -8 -30 -3l-21 3q-25 1 -46 16q-51 33 -74 86q-19 41 -19 100q-1 1 -1 4v5z
M83 295q-2 -7 -2 -18q-4 -12 -6 -37q0 -5 -2 -16t-2 -17q1 -4 4.5 -21.5t4.5 -26.5q12 -49 17 -80q5 -30 23 -42q12 -8 20 -2q30 14 38 21q65 58 98 120q41 76 58 168q10 62 13 117q1 24 -14 39q-13 15 -33 9q-1 -1 -8.5 -3.5t-11.5 -5.5q-7 -2 -13 -11l-15 -25t-16 -26
l-21 -36q-5 -17 -15 -38q-4 -3 -4 -7q-4 -10 -14.5 -33t-15.5 -35q0 -9 -11 -9q-19 0 -22 2q-8 5 -50 13zM286 731q0 -3 -1 -5l-5.5 -17t-8.5 -20q-3 -5 -7 -5q-14 -4 -20 0l-1 1q-8 0 -14 9q-5 8 -5 19q1 20 16 40q2 3 4 1q26 -4 37 -14q5 -5 5 -9zM392 731q0 -3 -1 -5
l-5.5 -17t-8.5 -20q-3 -5 -7 -5q-14 -4 -20 0l-1 1q-8 0 -14 9q-5 8 -5 19q1 20 16 40q2 3 4 1q26 -4 37 -14q5 -5 5 -9z" />
    <glyph glyph-name="multiply" unicode="&#xd7;" horiz-adv-x="411" 
d="M200 312q1 2 3 3l2 1q6 4 37 28q3 2 20 12t23 19q3 -3 7 -6.5t6 -5.5q2 -1 3.5 -4t2.5 -4q1 -2 2.5 -6.5t2.5 -6.5q0 -2 -0.5 -6t-0.5 -5q-1 -2 -1.5 -4t-0.5 -3.5t-1 -3t-2 -2.5q-7 -5 -9 -9q-33 -35 -48 -46q-3 -3 -3 -5q6 -6 18 -20q1 -1 26 -29q19 -24 14 -49l-3 -5
q-1 0 -4 -9q0 -1 -1 -3t-1 -3q-13 5 -18 9q-9 7 -27 11q-13 2 -29 15q-7 7 -30 37q-6 8 -8.5 8.5t-10.5 -3.5q-2 0 -6 -4q-4 -3 -14 -9q-18 -16 -26 -22q-4 -3 -15.5 -13.5t-18.5 -15.5q-9 -6 -21 -9q-11 -4 -13 -6q-1 -1 -3.5 -2t-4.5 -3l-1 1q1 1 2 3.5t2 3.5q14 16 21 25
l51 65q19 22 23 27t0 11q-32 36 -38 45q-12 17 -8 30q3 10 13 30l3 3q41 -16 85 -65z" />
    <glyph glyph-name="Oslash" unicode="&#xd8;" horiz-adv-x="468" 
d="M-12 178q-5 54 23 131l51 132q9 24 15 31l24 48q10 22 35 51q13 13 35 11q10 -4 15 5q24 17 32 24q37 28 98 30q25 -2 36 -13q25 -25 37 -40l9 -14l5 5q10 8 46 35q3 4 11 6q12 5 12 -9q1 -9 0 -17q-13 -44 -28 -64l-22 -28q3 -19 3 -59q-3 -33 -17 -61q-1 -2 -1.5 -6.5
t-1.5 -5.5q0 -6 -0.5 -17t-0.5 -16q-1 -9 -6 -32.5t-6 -35.5q-1 -13 -19 -80q-1 -8 -4 -16t-7.5 -18t-6.5 -16q-2 -8 -6 -16.5t-7.5 -14.5t-9.5 -15.5l-9 -14.5q0 -2 -2 -5t-4.5 -6t-3.5 -5q-5 -6 -22.5 -24t-28.5 -28q-29 -29 -65 -37l-18 -6q-15 -8 -30 -3l-21 3
q-25 1 -46 16q-14 9 -24 18q-4 -4 -21 -36q-6 -9 -11 -22q-9 -13 -16 0q-8 11 -13 15q-9 4 -6 14q8 22 10 26q-3 -7 -5 -21q3 1 3 3q13 37 26 57q-12 20 -17 32q-19 41 -19 100q-1 1 -1 4v5zM120 37q12 -8 20 -2q30 14 38 21q65 58 98 120q41 76 58 168l6 44
q-4 -7 -13.5 -18.5t-12.5 -15.5q-29 -37 -39 -53q-2 -2 -7.5 -9t-7.5 -11q-36 -54 -46 -66q-13 -15 -29 -42q-4 -6 -14 -17t-14 -15q-3 -4 -8.5 -12l-7.5 -11q-20 -26 -40 -58q6 -15 19 -23zM83 295q-2 -7 -2 -18q-4 -12 -6 -37q0 -5 -2 -16t-2 -17q1 -4 4.5 -21.5
t4.5 -26.5l7 -28q6 9 13 13q5 2 5 8q-2 9 7 12q2 9 4 11q11 20 25 38h-1q6 8 16 24q7 3 7 11q0 1 1 1q12 9 19 27q1 2 8 9l28 44q6 10 8 15l4 -1q1 1 3.5 6.5t4.5 7.5q5 3 11.5 11t9.5 10l-5 5l6 6q10 10 9 15h-2q-2 -1 -3 -1l4 8q3 4 26 36.5l36 49.5l2 3q-13 15 -33 9
q-1 -1 -8.5 -3.5t-11.5 -5.5q-7 -2 -13 -11l-15 -25t-16 -26l-21 -36q-5 -17 -15 -38q-4 -3 -4 -7q-4 -10 -14.5 -33t-15.5 -35q0 -9 -11 -9q-19 0 -22 2q-8 5 -50 13zM265 402v1v-1z" />
    <glyph glyph-name="Ugrave" unicode="&#xd9;" horiz-adv-x="520" 
d="M278 195q7 7 18.5 21t16.5 19q4 4 14.5 27.5l22 51t14.5 32.5q2 5 6 13.5t7 15.5t5 13q32 82 56 127q1 3 15 23.5t15 24.5q2 0 7.5 1t7.5 0q34 -2 53 -4q3 -3 0.5 -9t-8.5 -18t-7 -15l-20 -60q-6 -26 -28 -59q-10 -17 -14 -30q-6 -21 -28.5 -78t-27.5 -88q-1 -8 -6.5 -25
l-10.5 -32t-8 -29.5t-0.5 -23.5t12.5 -9q12 -15 13 -21q2 -23 -33 -49q-3 -2 -9.5 -5.5t-9.5 -5.5q-25 -13 -48 -8l-21 3q-21 2 -22 15q-3 22 -1 39q6 23 6.5 36t-4 17t-14 0t-18.5 -10t-23 -17q-31 -26 -66 -46q-58 -33 -113 -22q-37 6 -51 49q-11 42 5 100q4 16 10.5 47.5
t10.5 47.5l14 52t16 55t19 52q5 12 12 32.5t9 25.5q5 19 10 36q4 5 15 7q4 1 9.5 2t12.5 2t11 2q24 2 38 -3q7 -3 23 -8t23 -9q36 -17 21 -67q-6 -16 -14 -33t-14 -36q-3 -9 -7.5 -24.5t-6.5 -20.5l-13 -41.5t-13 -43.5q-5 -16 -8 -28q-2 -12 -27 -80q-32 -94 64 -10l77 74z
M349 535q-2 1 -4 1q-22 12 -46 34q-16 15 -35 37q-5 8 -10 12q-1 4 1 5l3.5 3.5t3.5 4.5q1 0 2 1q4 4 6 5q8 5 18 3t15 -10q4 -7 12 -19q5 -11 6 -20q3 -10 3 -11q5 -10 6 -11q5 -4 12 -17q4 -4 3 -8q0 -5 3 -8q1 0 1 -2z" />
    <glyph glyph-name="Uacute" unicode="&#xda;" horiz-adv-x="520" 
d="M278 195q7 7 18.5 21t16.5 19q4 4 14.5 27.5l22 51t14.5 32.5q2 5 6 13.5t7 15.5t5 13q32 82 56 127q1 3 15 23.5t15 24.5q2 0 7.5 1t7.5 0q34 -2 53 -4q3 -3 0.5 -9t-8.5 -18t-7 -15l-20 -60q-6 -26 -28 -59q-10 -17 -14 -30q-6 -21 -28.5 -78t-27.5 -88q-1 -8 -6.5 -25
l-10.5 -32t-8 -29.5t-0.5 -23.5t12.5 -9q12 -15 13 -21q2 -23 -33 -49q-3 -2 -9.5 -5.5t-9.5 -5.5q-25 -13 -48 -8l-21 3q-21 2 -22 15q-3 22 -1 39q6 23 6.5 36t-4 17t-14 0t-18.5 -10t-23 -17q-31 -26 -66 -46q-58 -33 -113 -22q-37 6 -51 49q-11 42 5 100q4 16 10.5 47.5
t10.5 47.5l14 52t16 55t19 52q5 12 12 32.5t9 25.5q5 19 10 36q4 5 15 7q4 1 9.5 2t12.5 2t11 2q24 2 38 -3q7 -3 23 -8t23 -9q36 -17 21 -67q-6 -16 -14 -33t-14 -36q-3 -9 -7.5 -24.5t-6.5 -20.5l-13 -41.5t-13 -43.5q-5 -16 -8 -28q-2 -12 -27 -80q-32 -94 64 -10l77 74z
M299 559q0 2 1 2q3 3 3 8q-1 4 3 8q8 13 12 17q1 1 6 11q0 1 3 11q1 9 6 20q8 12 12 19q5 8 15 10t18 -3q2 -1 6 -5q1 -1 2 -1q1 -2 3.5 -4.5l3.5 -3.5q2 -1 1 -5q-5 -4 -10 -12q-19 -22 -35 -37q-24 -22 -46 -34q-2 0 -4 -1z" />
    <glyph glyph-name="Ucircumflex" unicode="&#xdb;" horiz-adv-x="520" 
d="M278 195q7 7 18.5 21t16.5 19q4 4 14.5 27.5l22 51t14.5 32.5q2 5 6 13.5t7 15.5t5 13q32 82 56 127q1 3 15 23.5t15 24.5q2 0 7.5 1t7.5 0q34 -2 53 -4q3 -3 0.5 -9t-8.5 -18t-7 -15l-20 -60q-6 -26 -28 -59q-10 -17 -14 -30q-6 -21 -28.5 -78t-27.5 -88q-1 -8 -6.5 -25
l-10.5 -32t-8 -29.5t-0.5 -23.5t12.5 -9q12 -15 13 -21q2 -23 -33 -49q-3 -2 -9.5 -5.5t-9.5 -5.5q-25 -13 -48 -8l-21 3q-21 2 -22 15q-3 22 -1 39q6 23 6.5 36t-4 17t-14 0t-18.5 -10t-23 -17q-31 -26 -66 -46q-58 -33 -113 -22q-37 6 -51 49q-11 42 5 100q4 16 10.5 47.5
t10.5 47.5l14 52t16 55t19 52q5 12 12 32.5t9 25.5q5 19 10 36q4 5 15 7q4 1 9.5 2t12.5 2t11 2q24 2 38 -3q7 -3 23 -8t23 -9q36 -17 21 -67q-6 -16 -14 -33t-14 -36q-3 -9 -7.5 -24.5t-6.5 -20.5l-13 -41.5t-13 -43.5q-5 -16 -8 -28q-2 -12 -27 -80q-32 -94 64 -10l77 74z
M382 570q-4 0 -9 5l-11 22q-2 4 -4 12l-3 12q0 3 -2 7q-2 -3 -8 -7q-17 -16 -35 -29q-3 -2 -6 -3.5t-6.5 -3t-5.5 -2.5q-18 -4 -27 -12l-6 3l-6 3q-4 3 -3 7q3 10 7 16q5 7 13 17q43 46 50 52h1q1 1 2.5 3t2.5 3t2 1q3 1 7 0t5 -1t3 -2q13 -1 22 -16q9 -13 14 -35
q6 -20 10 -30q0 -1 2 -9q0 -1 -2 -5q-2 -1 -4 -4t-3 -4z" />
    <glyph glyph-name="Udieresis" unicode="&#xdc;" horiz-adv-x="520" 
d="M278 195q7 7 18.5 21t16.5 19q4 4 14.5 27.5l22 51t14.5 32.5q2 5 6 13.5t7 15.5t5 13q32 82 56 127q1 3 15 23.5t15 24.5q2 0 7.5 1t7.5 0q34 -2 53 -4q3 -3 0.5 -9t-8.5 -18t-7 -15l-20 -60q-6 -26 -28 -59q-10 -17 -14 -30q-6 -21 -28.5 -78t-27.5 -88q-1 -8 -6.5 -25
l-10.5 -32t-8 -29.5t-0.5 -23.5t12.5 -9q12 -15 13 -21q2 -23 -33 -49q-3 -2 -9.5 -5.5t-9.5 -5.5q-25 -13 -48 -8l-21 3q-21 2 -22 15q-3 22 -1 39q6 23 6.5 36t-4 17t-14 0t-18.5 -10t-23 -17q-31 -26 -66 -46q-58 -33 -113 -22q-37 6 -51 49q-11 42 5 100q4 16 10.5 47.5
t10.5 47.5l14 52t16 55t19 52q5 12 12 32.5t9 25.5q5 19 10 36q4 5 15 7q4 1 9.5 2t12.5 2t11 2q24 2 38 -3q7 -3 23 -8t23 -9q36 -17 21 -67q-6 -16 -14 -33t-14 -36q-3 -9 -7.5 -24.5t-6.5 -20.5l-13 -41.5t-13 -43.5q-5 -16 -8 -28q-2 -12 -27 -80q-32 -94 64 -10l77 74z
M323 642q0 -3 -1 -5l-5.5 -17t-8.5 -20q-3 -5 -7 -5q-14 -4 -20 0l-1 1q-8 0 -14 9q-5 8 -5 19q1 20 16 40q3 2 4 1q26 -4 37 -14q5 -5 5 -9zM429 642q0 -3 -1 -5l-5.5 -17t-8.5 -20q-3 -5 -7 -5q-14 -4 -20 0l-1 1q-8 0 -14 9q-5 8 -5 19q1 20 16 40q3 2 4 1q26 -4 37 -14
q5 -5 5 -9z" />
    <glyph glyph-name="Yacute" unicode="&#xdd;" horiz-adv-x="521" 
d="M427 390q1 0 3 -0.5t3 -0.5q-6 -48 -8 -52q-7 -19 -6 -23t-6 -22h4.5t4.5 -1q0 -2 -8 -28q-6 -16 -5 -23q0 -4 -6 -12t-7 -10q-3 -4 -7.5 -12t-6.5 -12q-2 -5 -4 -14q5 -2 5.5 -15.5t-2.5 -20.5q16 1 52 -9l-29 -19q-23 -15 -26 -18q-9 -8 -13 -23q-1 -1 -1 -4v-4
q-6 -6 -8 -18t-7 -18q-1 -1 -1 -4q-2 -16 -3 -27l8 -2q-5 -3 -13 -9q-6 -12 -8 -18q-2 -7 -21 -36l-6 -6q-26 -17 -44 -20q-5 -1 -27 -11q-44 -16 -59 -23q-6 -3 -31 -13q-18 -5 -37 -4q1 1 2.5 2t3.5 3.5t3 3.5q-3 0 -8 -0.5t-8 -1.5q-22 -6 -40 -5q-9 1 -24.5 1.5
t-20.5 0.5q-1 0 -19 3q-1 0 -3.5 1.5t-4.5 1.5q-15 -1 -30 18q-11 15 -26 39q-2 3 0.5 10.5t8.5 12.5q17 15 33 19q26 8 38 9q24 4 77 27l118 51q11 5 14 8.5t5 13.5q2 13 8 41v2q0 13 6.5 29.5t8.5 25.5l12 71q0 3 -2 4q-1 -3 -2.5 -10t-1.5 -10q-1 12 11 54q-2 0 -2 1
q-7 -10 -8 -12q-4 -11 -16 -22.5t-17 -18.5q-12 -19 -7 -31q2 -2 0 -7q-3 -5 -11 -15q-12 -21 -55 -37q-9 -3 -27 -7q-72 -18 -93 35q-5 11 -11.5 17.5t-8.5 12.5t0 23q3 20 4.5 38t4 30t10.5 39q1 2 2 6q4 11 5.5 16.5l3.5 13t0.5 10t-4.5 4t-10.5 -2t-18.5 -10.5
q-6 -2 -24 -17q-5 -6 -11 -11q-2 -1 -8 -1q-2 2 1 7q6 7 13 21.5l9 18.5q37 60 53 78q3 3 9 11.5t9 11.5t9 8t9 8q8 6 12 13q8 9 18 12q71 16 110 -27q19 -21 7 -67q-4 -12 -9 -35t-6 -26l-2.5 -10.5t-3 -12t-3.5 -10.5q-8 -18 -5.5 -20t-2.5 -21q-26 -87 4 -63
q40 33 137 199q29 50 37 69q6 17 15 34l25 51q11 22 12 25q3 6 11 8q11 0 12.5 3t9.5 -4q7 -3 8.5 -5t2 -5.5t4.5 -8.5q5 -11 1.5 -20.5t-13.5 -27.5t-12 -27q-10 -51 -12 -70q-1 -9 -2.5 -31.5t-3.5 -33.5zM266 209q-12 -27 -5 -40q1 5 2.5 18.5t2.5 20.5q9 37 16 61l15 60
q-4 -1 -4 -4l-27 -99q-2 -15 0 -17zM45 -109q16 -8 45 5q14 6 40 22q35 14 60 56q21 35 2 38q-15 2 -53 -25q-55 -25 -94 -31q-3 -1 -9 -2.5t-9 -2.5q-19 -5 -13 -19l15 -26q4 -7 11 -6q2 0 4.5 -1t5.5 -2l6 -2q-3 -1 -6.5 -2.5t-4.5 -1.5zM259 158q-17 -80 -17 -87
q1 5 6 21t6.5 24t3.5 20t1 22zM219 17h-2q-2 -6 -4 -10q2 2 3.5 5.5t2.5 4.5zM268 600q0 2 1 2q3 3 3 8q-1 4 3 8q7 12 12 17q1 1 6 11q0 1 3 11q1 9 6 20q8 12 12 19q5 8 15 10t18 -3q2 -1 6 -5q1 0 2 -1q1 -2 3.5 -4.5l3.5 -3.5q2 -1 1 -5q-5 -4 -10 -12q-19 -22 -35 -37
q-24 -22 -46 -34q-2 0 -4 -1z" />
    <glyph glyph-name="Thorn" unicode="&#xde;" horiz-adv-x="556" 
d="M508 287q7 -49 -15 -86q-17 -33 -53 -52q-62 -30 -83 -32q-12 -2 -45.5 -1.5t-46.5 2.5h-9q-45 -3 -88 14q-13 4 -26 14q-1 -2 -1 -4q-3 -11 -4 -15.5t-0.5 -8t-5 -29t-17.5 -71.5q-6 -61 -64 -96l-5 -4l1 1q5 1 2 -1q-1 -1 -4 -3q-27 -15 -32 -17q-10 -4 -32 -10
q-2 0 -3 1q-16 11 -20 14q-3 2 -7 13q0 3 -2 9t-3 10v17q2 14 1 18q-2 11 10 13q13 10 17.5 15.5t11 22t14.5 51.5l13.5 49.5t15.5 54.5q29 99 43 140q9 26 31 103.5t31 103.5l16 39q7 12 17 12q6 0 22 15.5t22 15.5q27 -3 32 -30q3 -11 -1 -29q-2 -16 -33 -143l1 1h2
q11 5 14 4q33 6 63 6q48 0 62 -4q1 0 4.5 0.5t6.5 0.5q4 0 12 -0.5t13 -0.5q32 -8 37 -11q27 -11 36 -17q2 -3 5.5 -5t4.5 -4q17 -11 27 -40q2 -6 12 -46zM181 259q13 -8 25 -8q5 -4 17 -4l36 -6q3 0 34.5 -1.5t36.5 -2.5q45 -2 70 11q6 4 17 8.5t14 6.5q13 5 22 21
q15 27 16 36q-1 16 -7 20q-14 10 -27 15q-28 12 -44 13h-14t-14 1q-42 7 -71 5q-41 0 -65 -6l-29 -6l-24 -101q1 0 3 -1t4 -1z" />
    <glyph glyph-name="germandbls" unicode="&#xdf;" horiz-adv-x="526" 
d="M127 339q33 59 79 110q42 47 67 64q67 45 163 31q42 -12 54.5 -25.5t5.5 -54.5q-3 -20 -21 -43l-11 -18q-13 -20 -30 -30l-13 -8l-23 -14l-48 -24q-8 -2 -12 -4l-16 -6q0 -2 -1 -3h7t6 -1q-2 0 -7 -1.5t-7 -1.5l-1 -1l5 -3q-2 -2 -8 -4q1 -2 1 -3q2 -1 8.5 -2t10.5 -3
q7 -2 23 -6t24 -7q1 -1 4 -3t4 -2q3 -1 8.5 -1.5t7.5 -1.5l6 -12q3 -5 12.5 -19t13.5 -22q14 -34 5 -60q-1 -3 -9 -19q-11 -20 -12 -22q-13 -15 -16 -28q-1 -2 -6 -7q-5 -8 -39 -34h-4q-5 -3 -20 -8q4 -3 3 -5l-1 -1l-7 -4q-10 -12 -32 -17q-7 -3 -26.5 -8.5t-30.5 -10.5
q-5 -2 -15 -3t-13 -2q-4 0 -12 -2q-7 -2 -27 -7q-5 -2 -11 -4l-2 -2h2q2 -1 3 -1h-1q-7 -5 -11 -1q-3 5 -11 5l-24 15v7q1 7 5 18.5t12.5 24t29 25t49.5 20.5q24 1 61 13l90 24q19 7 16 21q-2 28 -10 34q0 1 -1 3q-1 13 -22 30q0 1 -2 1t-4.5 -0.5t-5.5 0.5h-7q-24 -2 -41 1
q-30 5 -44 19t-13.5 32t2.5 38q20 7 34.5 15.5t32.5 15.5q59 26 135 78q12 8 15 18t-5 14q-1 1 -2 2.5t-2 2.5q-18 10 -24 11q-18 7 -51 0q-2 0 -4 -0.5t-3 -0.5q-11 8 -32 -1q-2 -3 -4 -1q-1 1 -12 -6.5l-23 -16.5t-13 -10q-9 -5 -23 -21.5l-28.5 -34.5t-17.5 -22
q-13 -14 -36.5 -56t-28.5 -50l-22 -49q-5 -12 -11 -23.5l-14 -26l-14 -25.5q-3 -9 -11.5 -38.5t-15.5 -45.5l-20 -60q-2 -6 -9 -15.5t-9 -14.5v-6q-4 -7 -11.5 -12.5t-13.5 -4.5q-1 0 -6.5 1t-9.5 0q-16 3 -16 8v5.5t1 11.5q2 12 8 31t11 31.5t4 12.5l41 110t41.5 96
t58.5 111zM73 115l52 107l-10 -8l-39 -85l-4 -14h1zM395 192q-6 -9 0 -34l3 -3q3 -2 4 -3q3 10 1 22t-8 18zM209 2q-8 0 -20 -6q12 -3 20 6zM239 1q8 -2 16 5q-13 -4 -16 -5zM255 14q-1 -1 -1 -3l5 1q5 1 7 2q1 1 1 3zM298 516q-2 -1 -5 -1q3 0 5 1z" />
    <glyph glyph-name="agrave" unicode="&#xe0;" 
d="M358 235q8 -1 17 -10q-1 -6 -6.5 -19t-9.5 -16q-2 -1 -3.5 -3t-2.5 -2q-8 -10 -11 -13q-6 -5 -6 -7q-3 -7 -12 -12q-4 -2 -5 -4q-3 -4 -10.5 -10.5t-9.5 -8.5q-8 -7 -19 -10q-2 -1 -11 -2t-14 -3q-4 -2 -12.5 -3t-10.5 -2h-9q-28 9 -34 14q-1 1 -5 3q-17 7 -24 17
q-14 -7 -21 -13q-5 -3 -11 -7l-2 -1q-4 -5 -22 -12q-23 -7 -41 3q-5 3 -15 7q-43 18 -48 65q-3 23 8 45q14 26 24 37q0 1 2 3q12 19 44 57q17 18 38 31q4 2 9 2q12 2 19 2h3q3 -2 11 -3t10 -2q4 -2 6 -2q9 -2 11 -5l2 -1q3 0 7 -2.5t7 -2.5t5 -2q16 -16 17 -18q1 -1 2 -4
t1 -4q3 -13 -9 -20q-9 -4 -25 -16v-1q-31 -31 -33 -34q-4 -5 -12 -13q-4 -4 -24 -32q-2 -3 -10 -14q-2 -2 -4 -6q-9 -17 -12 -33v-4q2 1 4 3q17 17 33 29q10 8 15 17q2 3 8 9q12 14 17 22q14 22 21 34q15 2 22 -7l6 -6q7 -9 9 -29q0 -1 -2 -5q-6 -14 -14 -28q-4 -11 -3 -21
q3 -14 9 -25q3 -5 9 -5q14 2 21 5q16 8 19 10q14 8 22 13q3 3 8.5 7.5t7.5 6.5q7 6 23 29t23 30l1 1q2 0 2 1zM233 398q-2 1 -4 1q-22 12 -46 34q-16 15 -35 37q-5 8 -10 12q-1 4 1 5l3.5 3.5t3.5 4.5q1 1 2 1q4 4 6 5q8 5 18 3t15 -10q4 -7 12 -19q5 -11 6 -20q3 -10 3 -11
q5 -10 6 -11q4 -5 12 -17q4 -4 3 -8q0 -5 3 -8q1 0 1 -2z" />
    <glyph glyph-name="aacute" unicode="&#xe1;" 
d="M358 235q8 -1 17 -10q-1 -6 -6.5 -19t-9.5 -16q-2 -1 -3.5 -3t-2.5 -2q-8 -10 -11 -13q-6 -5 -6 -7q-3 -7 -12 -12q-4 -2 -5 -4q-3 -4 -10.5 -10.5t-9.5 -8.5q-8 -7 -19 -10q-2 -1 -11 -2t-14 -3q-4 -2 -12.5 -3t-10.5 -2h-9q-28 9 -34 14q-1 1 -5 3q-17 7 -24 17
q-14 -7 -21 -13q-5 -3 -11 -7l-2 -1q-4 -5 -22 -12q-23 -7 -41 3q-5 3 -15 7q-43 18 -48 65q-3 23 8 45q14 26 24 37q0 1 2 3q12 19 44 57q17 18 38 31q4 2 9 2q12 2 19 2h3q3 -2 11 -3t10 -2q4 -2 6 -2q9 -2 11 -5l2 -1q3 0 7 -2.5t7 -2.5t5 -2q16 -16 17 -18q1 -1 2 -4
t1 -4q3 -13 -9 -20q-9 -4 -25 -16v-1q-31 -31 -33 -34q-4 -5 -12 -13q-4 -4 -24 -32q-2 -3 -10 -14q-2 -2 -4 -6q-9 -17 -12 -33v-4q2 1 4 3q17 17 33 29q10 8 15 17q2 3 8 9q12 14 17 22q14 22 21 34q15 2 22 -7l6 -6q7 -9 9 -29q0 -1 -2 -5q-6 -14 -14 -28q-4 -11 -3 -21
q3 -14 9 -25q3 -5 9 -5q14 2 21 5q16 8 19 10q14 8 22 13q3 3 8.5 7.5t7.5 6.5q7 6 23 29t23 30l1 1q2 0 2 1zM169 398q0 2 1 2q3 3 3 8q-1 4 3 8q7 12 12 17q1 1 6 11q0 1 3 11q1 9 6 20q8 12 12 19q5 8 15 10t18 -3q2 -1 6 -5q1 0 2 -1q1 -2 3.5 -4.5l3.5 -3.5q2 -1 1 -5
q-5 -4 -10 -12q-19 -22 -35 -37q-24 -22 -46 -34q-2 0 -4 -1z" />
    <glyph glyph-name="acircumflex" unicode="&#xe2;" 
d="M358 235q8 -1 17 -10q-1 -6 -6.5 -19t-9.5 -16q-2 -1 -3.5 -3t-2.5 -2q-8 -10 -11 -13q-6 -5 -6 -7q-3 -7 -12 -12q-4 -2 -5 -4q-3 -4 -10.5 -10.5t-9.5 -8.5q-8 -7 -19 -10q-2 -1 -11 -2t-14 -3q-4 -2 -12.5 -3t-10.5 -2h-9q-28 9 -34 14q-1 1 -5 3q-17 7 -24 17
q-14 -7 -21 -13q-5 -3 -11 -7l-2 -1q-4 -5 -22 -12q-23 -7 -41 3q-5 3 -15 7q-43 18 -48 65q-3 23 8 45q14 26 24 37q0 1 2 3q12 19 44 57q17 18 38 31q4 2 9 2q12 2 19 2h3q3 -2 11 -3t10 -2q4 -2 6 -2q9 -2 11 -5l2 -1q3 0 7 -2.5t7 -2.5t5 -2q16 -16 17 -18q1 -1 2 -4
t1 -4q3 -13 -9 -20q-9 -4 -25 -16v-1q-31 -31 -33 -34q-4 -5 -12 -13q-4 -4 -24 -32q-2 -3 -10 -14q-2 -2 -4 -6q-9 -17 -12 -33v-4q2 1 4 3q17 17 33 29q10 8 15 17q2 3 8 9q12 14 17 22q14 22 21 34q15 2 22 -7l6 -6q7 -9 9 -29q0 -1 -2 -5q-6 -14 -14 -28q-4 -11 -3 -21
q3 -14 9 -25q3 -5 9 -5q14 2 21 5q16 8 19 10q14 8 22 13q3 3 8.5 7.5t7.5 6.5q7 6 23 29t23 30l1 1q2 0 2 1zM250 426q-4 0 -9 5l-11 22q-2 4 -4 12l-3 12q0 3 -2 7q-2 -3 -8 -7q-17 -16 -35 -29q-3 -2 -6 -3.5t-6.5 -3t-5.5 -2.5q-18 -4 -27 -12l-6 3l-6 3q-4 3 -3 7
q3 10 7 16q5 7 13 17q43 46 50 52h1q1 1 2.5 3t2.5 3t2 1q3 1 7 0t5 -1t3 -2q13 -1 22 -16q9 -13 14 -35q6 -20 10 -30q0 -1 2 -9q0 -1 -2 -5q-2 -1 -4 -4t-3 -4z" />
    <glyph glyph-name="atilde" unicode="&#xe3;" 
d="M358 235q8 -1 17 -10q-1 -6 -6.5 -19t-9.5 -16q-2 -1 -3.5 -3t-2.5 -2q-8 -10 -11 -13q-6 -5 -6 -7q-3 -7 -12 -12q-4 -2 -5 -4q-3 -4 -10.5 -10.5t-9.5 -8.5q-8 -7 -19 -10q-2 -1 -11 -2t-14 -3q-4 -2 -12.5 -3t-10.5 -2h-9q-28 9 -34 14q-1 1 -5 3q-17 7 -24 17
q-14 -7 -21 -13q-5 -3 -11 -7l-2 -1q-4 -5 -22 -12q-23 -7 -41 3q-5 3 -15 7q-43 18 -48 65q-3 23 8 45q14 26 24 37q0 1 2 3q12 19 44 57q17 18 38 31q4 2 9 2q12 2 19 2h3q3 -2 11 -3t10 -2q4 -2 6 -2q9 -2 11 -5l2 -1q3 0 7 -2.5t7 -2.5t5 -2q16 -16 17 -18q1 -1 2 -4
t1 -4q3 -13 -9 -20q-9 -4 -25 -16v-1q-31 -31 -33 -34q-4 -5 -12 -13q-4 -4 -24 -32q-2 -3 -10 -14q-2 -2 -4 -6q-9 -17 -12 -33v-4q2 1 4 3q17 17 33 29q10 8 15 17q2 3 8 9q12 14 17 22q14 22 21 34q15 2 22 -7l6 -6q7 -9 9 -29q0 -1 -2 -5q-6 -14 -14 -28q-4 -11 -3 -21
q3 -14 9 -25q3 -5 9 -5q14 2 21 5q16 8 19 10q14 8 22 13q3 3 8.5 7.5t7.5 6.5q7 6 23 29t23 30l1 1q2 0 2 1zM100 456l-7 -4q0 1 -1 1q-4 2 -6 6q-3 12 5 20q9 8 21 13q13 0 20 1q3 0 5 -1q5 0 13 -2h2.5t2.5 -1q2 0 4 -1q4 0 10 -2q3 -2 8 -3t6 -2l2 -1q1 -1 3.5 -1.5
t3.5 -0.5t4 -1t5 -1q14 -5 17 -6q2 0 5 -1t5 -2h1q3 2 9.5 2.5t8.5 1.5l2 1q7 2 7 4q2 6 2 10l-1 2h5l3 -4q3 -3 2 -6l-1 -8q-5 -8 -9 -9l-11 -7q-5 -3 -23 -5q-15 -3 -32 0q-6 1 -39 11q-4 1 -13 3.5t-14 3.5q-10 2 -15 2q-1 0 -3 -1t-3.5 -1.5t-2.5 -0.5q-4 -6 -2 -8z
M242 455q0 1 -1 1l-4 -1l-12 -3q-4 0 -14 -2q-4 -2 -5 1l-1 1l-25 4q-1 -1 -2 0v-2l4 -1q14 -2 21 -4h16q6 1 16 3q4 0 7 3z" />
    <glyph glyph-name="adieresis" unicode="&#xe4;" 
d="M358 235q8 -1 17 -10q-1 -6 -6.5 -19t-9.5 -16q-2 -1 -3.5 -3t-2.5 -2q-8 -10 -11 -13q-6 -5 -6 -7q-3 -7 -12 -12q-4 -2 -5 -4q-3 -4 -10.5 -10.5t-9.5 -8.5q-8 -7 -19 -10q-2 -1 -11 -2t-14 -3q-4 -2 -12.5 -3t-10.5 -2h-9q-28 9 -34 14q-1 1 -5 3q-17 7 -24 17
q-14 -7 -21 -13q-5 -3 -11 -7l-2 -1q-4 -5 -22 -12q-23 -7 -41 3q-5 3 -15 7q-43 18 -48 65q-3 23 8 45q14 26 24 37q0 1 2 3q12 19 44 57q17 18 38 31q4 2 9 2q12 2 19 2h3q3 -2 11 -3t10 -2q4 -2 6 -2q9 -2 11 -5l2 -1q3 0 7 -2.5t7 -2.5t5 -2q16 -16 17 -18q1 -1 2 -4
t1 -4q3 -13 -9 -20q-9 -4 -25 -16v-1q-31 -31 -33 -34q-4 -5 -12 -13q-4 -4 -24 -32q-2 -3 -10 -14q-2 -2 -4 -6q-9 -17 -12 -33v-4q2 1 4 3q17 17 33 29q10 8 15 17q2 3 8 9q12 14 17 22q14 22 21 34q15 2 22 -7l6 -6q7 -9 9 -29q0 -1 -2 -5q-6 -14 -14 -28q-4 -11 -3 -21
q3 -14 9 -25q3 -5 9 -5q14 2 21 5q16 8 19 10q14 8 22 13q3 3 8.5 7.5t7.5 6.5q7 6 23 29t23 30l1 1q2 0 2 1zM167 491q0 -3 -1 -5l-5.5 -17t-8.5 -20q-3 -5 -7 -5q-14 -4 -20 0l-1 1q-8 0 -14 9q-5 8 -5 19q1 20 16 40q3 3 4 1q26 -4 37 -14q5 -5 5 -9zM273 491q0 -3 -1 -5
l-5.5 -17t-8.5 -20q-3 -5 -7 -5q-14 -4 -20 0l-1 1q-8 0 -14 9q-5 8 -5 19q1 20 16 40q3 3 4 1q26 -4 37 -14q5 -5 5 -9z" />
    <glyph glyph-name="aring" unicode="&#xe5;" 
d="M358 235q8 -1 17 -10q-1 -6 -6.5 -19t-9.5 -16q-2 -1 -3.5 -3t-2.5 -2q-8 -10 -11 -13q-6 -5 -6 -7q-3 -7 -12 -12q-4 -2 -5 -4q-3 -4 -10.5 -10.5t-9.5 -8.5q-8 -7 -19 -10q-2 -1 -11 -2t-14 -3q-4 -2 -12.5 -3t-10.5 -2h-9q-28 9 -34 14q-1 1 -5 3q-17 7 -24 17
q-14 -7 -21 -13q-5 -3 -11 -7l-2 -1q-4 -5 -22 -12q-23 -7 -41 3q-5 3 -15 7q-43 18 -48 65q-3 23 8 45q14 26 24 37q0 1 2 3q12 19 44 57q17 18 38 31q4 2 9 2q12 2 19 2h3q3 -2 11 -3t10 -2q4 -2 6 -2q9 -2 11 -5l2 -1q3 0 7 -2.5t7 -2.5t5 -2q16 -16 17 -18q1 -1 2 -4
t1 -4q3 -13 -9 -20q-9 -4 -25 -16v-1q-31 -31 -33 -34q-4 -5 -12 -13q-4 -4 -24 -32q-2 -3 -10 -14q-2 -2 -4 -6q-9 -17 -12 -33v-4q2 1 4 3q17 17 33 29q10 8 15 17q2 3 8 9q12 14 17 22q14 22 21 34q15 2 22 -7l6 -6q7 -9 9 -29q0 -1 -2 -5q-6 -14 -14 -28q-4 -11 -3 -21
q3 -14 9 -25q3 -5 9 -5q14 2 21 5q16 8 19 10q14 8 22 13q3 3 8.5 7.5t7.5 6.5q7 6 23 29t23 30l1 1q2 0 2 1zM154 465q-2 -2 -2 -6q5 -11 21 -24q1 0 4 -1q18 10 24 22q5 12 5 13q-2 10 -8 12q-2 5 -14 7q-1 2 -5 0q-5 -3 -12 -9.5t-12 -9.5q0 -1 -1 -4zM247 494
q0 -4 -2 -8q-1 -2 -9.5 -29.5t-16.5 -38.5q-7 -10 -12 -10q-1 0 -8.5 -2t-10.5 -2.5t-8.5 0.5t-10.5 4l-1 2q-14 0 -25 17q-10 15 -10 35q2 36 29 74q6 2 7 1q50 -8 68 -26q10 -10 10 -17z" />
    <glyph glyph-name="ae" unicode="&#xe6;" horiz-adv-x="522" 
d="M201 165l-38 -32l-22 -11l-11 -7l-2 -1q-5 -5 -23 -11q-3 -1 -12.5 -3.5t-11.5 -2t-13 1.5q-4 2 -16 4q-46 12 -58 57q-6 21 1 46q13 33 18 40q0 1 2 3q8 20 34 63q14 22 33 37q1 2 8 4l19 4l3 1q4 -2 11.5 -2h9.5h7q10 -2 11 -3l2 -2q2 0 7 -1.5t7 -0.5q5 0 6 -1l20 -15
l4 -8q4 -13 -6 -21q-1 -1 -23 -20l1 -1l-27 -39l-9 -14q-9 -12 -20 -36l-7 -15q-1 -1 -4 -7q-6 -18 -6 -34l1 -5l3 4q9 13 38 29q12 10 16 17l9 7l18 22l21 28q0 4 7 20q13 29 28 51q16 25 37 46q22 24 45 38l10 5q10 4 13 -2q2 -2 5 -2.5t4 -1.5q2 -1 3.5 -4t2.5 -4
q5 -3 12.5 -10.5t11.5 -10.5q3 -2 7 -10q12 -22 16 -25q2 -1 4 -9q3 -21 0 -36q-3 -18 -15 -39q-9 -16 -11 -21q-1 -5 -10 -20q-6 -11 -18 -15q-9 -5 -19 -3q-7 2 -8 4l-1 1q-5 -1 -11.5 5t-7.5 6q-2 2 -2 5q1 2 -1 9q-10 21 -13 25q-2 6 -7 1q0 -2 -2.5 -7t-2.5 -8t-4 -5
q-3 -3 -3 -5q-1 -5 -5 -6q-2 -1 -3 -8q3 0 4 -1v-1h-7q1 3 1 8h-2l-3 -21l4 -2q1 -7 1 -20q0 -8 4 -18q2 -2 7 -15t7 -15q32 -32 47 -33q7 -1 39 5q34 10 69 37q10 7 27.5 22.5t22.5 19.5l3 3l18 20q19 19 30 35q6 10 12 12q-4 -16 -8 -25q-2 -5 -5 -8q-11 -13 -15 -21
l-10 -12l-4 -6l8 3q-1 -3 -4 -6.5t-3 -5.5l3 -3q-3 -5 -10 -12q-9 -8 -17 -17q-9 -10 -29 -26q-13 -10 -14 -11l-12 -8q-12 -6 -18 -10q-17 -10 -32 -13l-9 -3q-16 -5 -36 -7q-10 -1 -66 20q-16 6 -23 12.5t-12 14t-10 12.5q-9 7 -14 21q-5 11 -7 36zM338 314q-4 -3 -28 -32
l-7 -11q-6 -10 2 -15t9 -7q6 -7 22 -5q8 2 16 16q3 7 8.5 17.5t8.5 19.5q8 19 2.5 24t-15.5 2.5t-18 -9.5zM219 139l-2 -1l3 -8q0 -1 1 -4.5t0 -4.5l-2 2q-5 10 -9 36v3v11l-5 -4q0 -29 10 -46q1 -1 8 -11q3 -2 7 -4h3q-7 12 -8 14q-1 3 -2.5 8.5t-3.5 8.5zM215 244l7 16
q3 6 2 15q-8 -5 -10 -11q-8 -18 -9 -20h10zM215 156l2 -2l2 27l-6 -5q0 -8 2 -20z" />
    <glyph glyph-name="ccedilla" unicode="&#xe7;" horiz-adv-x="319" 
d="M13 -86q8 0 14 0.5t8.5 0t4 0t2.5 0.5q18 1 36 12q4 2 7 4l6.5 4.5l6.5 4.5q1 0 2 1.5t2 1.5l5 6l7 5q0 1 3 4q1 6 -4 7q-1 1 -6 0l-5 -1q-2 0 -7 1t-7 0q-3 0 -8.5 -0.5t-8.5 -0.5l-6 -1q-3 1 -9 1q-4 0 -8.5 4.5t-5.5 8.5l-2 9v17q3 15 9 35l2 7l-2 1q-23 10 -39 22
q-28 22 -32 65q-3 25 0 51q2 15 6 30l8 21q3 10 29 59l8 12q15 22 26 31q4 3 11 9.5t13 11.5t12 9q10 7 21 7q3 0 9 2q13 6 23 5q1 -1 1 0q17 1 33 -10l1 -1h2q2 0 3 1q5 3 8 1q5 -5 4 -11q-2 -6 1 -13q1 0 1 -2v-2l-6 -9q2 -12 4 -18q3 -13 3 -28q0 -10 -1 -15
q-5 -25 -17 -51q-5 -11 -13 -12q-1 0 -3 -0.5t-3 -0.5q-4 0 -6 2q-4 4 -18 11l-3 2q-5 4 -4 10l3 14q13 45 19 58q0 3 1 6l-4 -3q-1 -3 -24 -34q-12 -16 -21 -36l-24 -50q-8 -15 -18 -49q-1 -1 -3 -16q-2 -11 3 -21l9 -20q2 -4 8 -12q5 -2 10 -1.5t15 3.5t12 3q17 2 45.5 15
t42.5 25l17.5 14l22.5 18.5t16 15.5l15 18q4 6 22.5 22t23.5 23q2 4 13 12t13 11q1 2 2 -2q1 -9 3 -9q-4 -19 -22 -40l-18 -25q-11 -16 -18 -31q0 -3 -1 -3q-18 -26 -20 -28l-32 -34q-16 -14 -34 -25q-40 -23 -51 -23q-3 0 -25.5 1t-25.5 -1q-7 -2 -29 4v-1q-2 -4 -4 -8.5
t-3.5 -7t-2.5 -5.5t-2 -4.5t-1 -3t0.5 -2.5t2 -2t4 -1.5t5.5 -1.5l14 -2q13 -3 24.5 -6t12.5 -4q4 -6 5 -9q4 -5 2 -10q0 -11 -3 -22q-4 -10 -8 -13q-1 -1 -1 -2t-2 -2q0 -4 -4 -4l-6 -3l-5 -5q-2 -2 -4 -6q-3 -5 -6 -6q-1 0 -2 -1q-2 -2 -3 -2l-9 -6q-1 -1 -4 -2.5t-4 -2.5
l-4 -2q-3 -1 -9 -3.5t-9 -4.5q-1 0 -3.5 -0.5t-4.5 -0.5q-4 -1 -15.5 8.5t-13.5 14.5q-1 3 -1 12z" />
    <glyph glyph-name="egrave" unicode="&#xe8;" horiz-adv-x="310" 
d="M72 243q0 -2 -2.5 -7t-2.5 -8t-4 -5q-3 -3 -3 -5q-1 -5 -5 -6q-2 -1 -3 -8q3 0 4 -1v-1h-7q1 3 1 8h-2l-3 -21l4 -2q1 -7 1 -20q0 -8 4 -18q2 -2 7 -15t7 -15q32 -32 47 -33q7 -1 39 5q34 10 69 37q10 7 27.5 22.5t22.5 19.5l3 3l18 20q19 19 30 35q6 10 12 12
q-4 -16 -8 -25q-2 -5 -5 -8q-11 -13 -15 -21q-2 -2 -5.5 -6t-4.5 -6q-1 -1 -2 -3t-2 -3q2 0 4 1l4 2q-1 -3 -4 -6.5t-3 -5.5l3 -3q-3 -5 -10 -12q-9 -8 -17 -17q-9 -10 -29 -26q-13 -10 -14 -11q-2 -1 -6 -3.5t-6 -4.5q-12 -6 -18 -10q-17 -10 -32 -13l-9 -3q-16 -5 -36 -7
q-10 -1 -66 20q-16 6 -23 12.5t-12 14t-10 12.5q-9 7 -14 21q-5 13 -7 42q0 44 21 89q3 6 2 15q-8 -5 -10 -11q-4 -11 -12 -26q0 6 7 22q13 29 28 51q16 25 37 46q22 24 45 38l10 5q10 4 13 -2q2 -2 5 -2.5t4 -1.5q2 -1 3.5 -4t2.5 -4q5 -3 12.5 -10.5t11.5 -10.5
q3 -2 7 -10q12 -22 16 -25q2 -1 4 -9q3 -21 0 -36q-3 -18 -15 -39q-9 -16 -11 -21q-1 -5 -10 -20q-6 -11 -18 -15q-9 -5 -19 -3q-7 2 -8 4l-1 1q-5 -1 -11.5 5t-7.5 6q-2 2 -2 5q1 2 -1 9q-10 21 -13 25q-2 6 -7 1zM126 314q-4 -3 -28 -32q-6 -9 -7 -11q-6 -10 2 -15t9 -7
q6 -7 22 -5q8 2 16 16q3 7 8.5 17.5t8.5 19.5q8 19 2.5 24t-15.5 2.5t-18 -9.5zM7 139l-2 -1q1 -1 2 -3.5t1 -4.5q0 -1 1 -4.5t0 -4.5l-2 2q-5 10 -9 36v3q0 29 4 44q2 6 2 9v7q-5 -10 -6 -14q0 -3 -1 -7t-2 -7q-7 -43 8 -71q0 -1 8 -11q3 -2 7 -4h3q-7 12 -8 14
q-1 3 -2.5 8.5t-3.5 8.5zM7 205q-2 -2 -2 -3q-6 -18 -2 -46l2 -2q1 11 3 31q2 14 -1 20zM43 175v2v-2zM210 414q-2 1 -4 1q-22 12 -46 34q-16 15 -35 37q-5 8 -10 12q-1 4 1 5l3.5 3.5t3.5 4.5q1 1 2 1q4 4 6 5q8 5 18 3t15 -10q4 -7 12 -19q5 -11 6 -20q3 -10 3 -11
q5 -10 6 -11q4 -5 12 -17q4 -4 3 -8q0 -5 3 -8q1 0 1 -2z" />
    <glyph glyph-name="eacute" unicode="&#xe9;" horiz-adv-x="310" 
d="M72 243q0 -2 -2.5 -7t-2.5 -8t-4 -5q-3 -3 -3 -5q-1 -5 -5 -6q-2 -1 -3 -8q3 0 4 -1v-1h-7q1 3 1 8h-2l-3 -21l4 -2q1 -7 1 -20q0 -8 4 -18q2 -2 7 -15t7 -15q32 -32 47 -33q7 -1 39 5q34 10 69 37q10 7 27.5 22.5t22.5 19.5l3 3l18 20q19 19 30 35q6 10 12 12
q-4 -16 -8 -25q-2 -5 -5 -8q-11 -13 -15 -21q-2 -2 -5.5 -6t-4.5 -6q-1 -1 -2 -3t-2 -3q2 0 4 1l4 2q-1 -3 -4 -6.5t-3 -5.5l3 -3q-3 -5 -10 -12q-9 -8 -17 -17q-9 -10 -29 -26q-13 -10 -14 -11q-2 -1 -6 -3.5t-6 -4.5q-12 -6 -18 -10q-17 -10 -32 -13l-9 -3q-16 -5 -36 -7
q-10 -1 -66 20q-16 6 -23 12.5t-12 14t-10 12.5q-9 7 -14 21q-5 13 -7 42q0 44 21 89q3 6 2 15q-8 -5 -10 -11q-4 -11 -12 -26q0 6 7 22q13 29 28 51q16 25 37 46q22 24 45 38l10 5q10 4 13 -2q2 -2 5 -2.5t4 -1.5q2 -1 3.5 -4t2.5 -4q5 -3 12.5 -10.5t11.5 -10.5
q3 -2 7 -10q12 -22 16 -25q2 -1 4 -9q3 -21 0 -36q-3 -18 -15 -39q-9 -16 -11 -21q-1 -5 -10 -20q-6 -11 -18 -15q-9 -5 -19 -3q-7 2 -8 4l-1 1q-5 -1 -11.5 5t-7.5 6q-2 2 -2 5q1 2 -1 9q-10 21 -13 25q-2 6 -7 1zM126 314q-4 -3 -28 -32q-6 -9 -7 -11q-6 -10 2 -15t9 -7
q6 -7 22 -5q8 2 16 16q3 7 8.5 17.5t8.5 19.5q8 19 2.5 24t-15.5 2.5t-18 -9.5zM7 139l-2 -1q1 -1 2 -3.5t1 -4.5q0 -1 1 -4.5t0 -4.5l-2 2q-5 10 -9 36v3q0 29 4 44q2 6 2 9v7q-5 -10 -6 -14q0 -3 -1 -7t-2 -7q-7 -43 8 -71q0 -1 8 -11q3 -2 7 -4h3q-7 12 -8 14
q-1 3 -2.5 8.5t-3.5 8.5zM7 205q-2 -2 -2 -3q-6 -18 -2 -46l2 -2q1 11 3 31q2 14 -1 20zM43 175v2v-2zM169 398q0 2 1 2q3 3 3 8q-1 4 3 8q7 12 12 17q1 1 6 11q0 1 3 11q1 9 6 20q8 12 12 19q5 8 15 10t18 -3q2 -1 6 -5q1 0 2 -1q1 -2 3.5 -4.5l3.5 -3.5q2 -1 1 -5
q-5 -4 -10 -12q-19 -22 -35 -37q-24 -22 -46 -34q-2 0 -4 -1z" />
    <glyph glyph-name="ecircumflex" unicode="&#xea;" horiz-adv-x="310" 
d="M72 243q0 -2 -2.5 -7t-2.5 -8t-4 -5q-3 -3 -3 -5q-1 -5 -5 -6q-2 -1 -3 -8q3 0 4 -1v-1h-7q1 3 1 8h-2l-3 -21l4 -2q1 -7 1 -20q0 -8 4 -18q2 -2 7 -15t7 -15q32 -32 47 -33q7 -1 39 5q34 10 69 37q10 7 27.5 22.5t22.5 19.5l3 3l18 20q19 19 30 35q6 10 12 12
q-4 -16 -8 -25q-2 -5 -5 -8q-11 -13 -15 -21q-2 -2 -5.5 -6t-4.5 -6q-1 -1 -2 -3t-2 -3q2 0 4 1l4 2q-1 -3 -4 -6.5t-3 -5.5l3 -3q-3 -5 -10 -12q-9 -8 -17 -17q-9 -10 -29 -26q-13 -10 -14 -11q-2 -1 -6 -3.5t-6 -4.5q-12 -6 -18 -10q-17 -10 -32 -13l-9 -3q-16 -5 -36 -7
q-10 -1 -66 20q-16 6 -23 12.5t-12 14t-10 12.5q-9 7 -14 21q-5 13 -7 42q0 44 21 89q3 6 2 15q-8 -5 -10 -11q-4 -11 -12 -26q0 6 7 22q13 29 28 51q16 25 37 46q22 24 45 38l10 5q10 4 13 -2q2 -2 5 -2.5t4 -1.5q2 -1 3.5 -4t2.5 -4q5 -3 12.5 -10.5t11.5 -10.5
q3 -2 7 -10q12 -22 16 -25q2 -1 4 -9q3 -21 0 -36q-3 -18 -15 -39q-9 -16 -11 -21q-1 -5 -10 -20q-6 -11 -18 -15q-9 -5 -19 -3q-7 2 -8 4l-1 1q-5 -1 -11.5 5t-7.5 6q-2 2 -2 5q1 2 -1 9q-10 21 -13 25q-2 6 -7 1zM126 314q-4 -3 -28 -32q-6 -9 -7 -11q-6 -10 2 -15t9 -7
q6 -7 22 -5q8 2 16 16q3 7 8.5 17.5t8.5 19.5q8 19 2.5 24t-15.5 2.5t-18 -9.5zM7 139l-2 -1q1 -1 2 -3.5t1 -4.5q0 -1 1 -4.5t0 -4.5l-2 2q-5 10 -9 36v3q0 29 4 44q2 6 2 9v7q-5 -10 -6 -14q0 -3 -1 -7t-2 -7q-7 -43 8 -71q0 -1 8 -11q3 -2 7 -4h3q-7 12 -8 14
q-1 3 -2.5 8.5t-3.5 8.5zM7 205q-2 -2 -2 -3q-6 -18 -2 -46l2 -2q1 11 3 31q2 14 -1 20zM43 175v2v-2zM226 435q-4 0 -9 5l-11 22q-2 4 -4 12l-3 12q0 3 -2 7q-2 -3 -8 -7q-17 -16 -35 -29q-3 -2 -6 -3.5t-6.5 -3t-5.5 -2.5q-18 -4 -27 -12l-6 3l-6 3q-4 3 -3 7q3 10 7 16
q5 7 13 17q43 46 50 52h1q1 1 2.5 3t2.5 3t2 1q3 1 7 0t5 -1t3 -2q13 -1 22 -16q9 -13 14 -35q6 -20 10 -30q0 -1 2 -9q0 -1 -2 -5q-2 -1 -4 -4t-3 -4z" />
    <glyph glyph-name="edieresis" unicode="&#xeb;" horiz-adv-x="310" 
d="M72 243q0 -2 -2.5 -7t-2.5 -8t-4 -5q-3 -3 -3 -5q-1 -5 -5 -6q-2 -1 -3 -8q3 0 4 -1v-1h-7q1 3 1 8h-2l-3 -21l4 -2q1 -7 1 -20q0 -8 4 -18q2 -2 7 -15t7 -15q32 -32 47 -33q7 -1 39 5q34 10 69 37q10 7 27.5 22.5t22.5 19.5l3 3l18 20q19 19 30 35q6 10 12 12
q-4 -16 -8 -25q-2 -5 -5 -8q-11 -13 -15 -21q-2 -2 -5.5 -6t-4.5 -6q-1 -1 -2 -3t-2 -3q2 0 4 1l4 2q-1 -3 -4 -6.5t-3 -5.5l3 -3q-3 -5 -10 -12q-9 -8 -17 -17q-9 -10 -29 -26q-13 -10 -14 -11q-2 -1 -6 -3.5t-6 -4.5q-12 -6 -18 -10q-17 -10 -32 -13l-9 -3q-16 -5 -36 -7
q-10 -1 -66 20q-16 6 -23 12.5t-12 14t-10 12.5q-9 7 -14 21q-5 13 -7 42q0 44 21 89q3 6 2 15q-8 -5 -10 -11q-4 -11 -12 -26q0 6 7 22q13 29 28 51q16 25 37 46q22 24 45 38l10 5q10 4 13 -2q2 -2 5 -2.5t4 -1.5q2 -1 3.5 -4t2.5 -4q5 -3 12.5 -10.5t11.5 -10.5
q3 -2 7 -10q12 -22 16 -25q2 -1 4 -9q3 -21 0 -36q-3 -18 -15 -39q-9 -16 -11 -21q-1 -5 -10 -20q-6 -11 -18 -15q-9 -5 -19 -3q-7 2 -8 4l-1 1q-5 -1 -11.5 5t-7.5 6q-2 2 -2 5q1 2 -1 9q-10 21 -13 25q-2 6 -7 1zM126 314q-4 -3 -28 -32q-6 -9 -7 -11q-6 -10 2 -15t9 -7
q6 -7 22 -5q8 2 16 16q3 7 8.5 17.5t8.5 19.5q8 19 2.5 24t-15.5 2.5t-18 -9.5zM7 139l-2 -1q1 -1 2 -3.5t1 -4.5q0 -1 1 -4.5t0 -4.5l-2 2q-5 10 -9 36v3q0 29 4 44q2 6 2 9v7q-5 -10 -6 -14q0 -3 -1 -7t-2 -7q-7 -43 8 -71q0 -1 8 -11q3 -2 7 -4h3q-7 12 -8 14
q-1 3 -2.5 8.5t-3.5 8.5zM7 205q-2 -2 -2 -3q-6 -18 -2 -46l2 -2q1 11 3 31q2 14 -1 20zM43 175v2v-2zM122 504q0 -3 -1 -5l-5.5 -17t-8.5 -20q-3 -5 -7 -5q-14 -4 -20 0l-1 1q-8 0 -14 9q-5 8 -5 19q1 20 16 40q2 2 4 1q26 -4 37 -14q5 -5 5 -9zM228 504q0 -3 -1 -5
l-5.5 -17t-8.5 -20q-3 -5 -7 -5q-14 -4 -20 0l-1 1q-8 0 -14 9q-5 8 -5 19q1 20 16 40q2 2 4 1q26 -4 37 -14q5 -5 5 -9z" />
    <glyph glyph-name="igrave" unicode="&#xec;" horiz-adv-x="244" 
d="M46 316q4 -2 6 -1l1 1q3 3 8 7q4 1 14 6t19 8t13 0q2 -2 8.5 -6.5t8.5 -6.5q6 -8 2 -22q-3 -7 -10.5 -21l-10.5 -20q-1 -2 -2 -5.5t-2 -5.5t-1 -4q-1 -1 -5.5 -13t-7.5 -17q-2 -5 1 0l3 6l8 11v-1q0 -2 -3 -8q-8 -21 -9 -34q0 -3 -2 -34t-1 -36t8 -15q1 0 6 -3.5t9 -4.5
q4 -3 16 -1q38 14 50.5 24t23 30t27.5 38q22 32 25 41q0 1 3 6q1 -4 1 -8t-0.5 -8t1 -7t6.5 -4q-5 -10 -18 -39t-25 -47t-27 -27q-14 -18 -54 -42.5t-68 -13.5q-6 -2 -13 0t-15.5 7.5t-13.5 7.5q-14 6 -29 22q-10 26 -10 40q-2 6 -2 18q1 5 2 22t3 21q3 15 3 16l1 3q2 3 6 4
q1 0 2 3l1 2q3 4 5.5 10.5t5.5 9.5l-12 -10q-2 0 3 9q4 11 16.5 30.5t15.5 25.5l2 5q6 11 4 17q-1 5 3 14zM145 394q-2 1 -4 1q-22 12 -46 34q-16 15 -35 37q-5 8 -10 12q-1 4 1 5l3.5 3.5t3.5 4.5q1 1 2 1q4 4 6 5q8 5 18 3t15 -10q4 -7 12 -19q5 -11 6 -20q3 -10 3 -11
q5 -10 6 -11q5 -5 12 -17q4 -4 3 -8q0 -5 3 -8q1 0 1 -2z" />
    <glyph glyph-name="iacute" unicode="&#xed;" horiz-adv-x="244" 
d="M46 316q4 -2 6 -1l1 1q3 3 8 7q4 1 14 6t19 8t13 0q2 -2 8.5 -6.5t8.5 -6.5q6 -8 2 -22q-3 -7 -10.5 -21l-10.5 -20q-1 -2 -2 -5.5t-2 -5.5t-1 -4q-1 -1 -5.5 -13t-7.5 -17q-2 -5 1 0l3 6l8 11v-1q0 -2 -3 -8q-8 -21 -9 -34q0 -3 -2 -34t-1 -36t8 -15q1 0 6 -3.5t9 -4.5
q4 -3 16 -1q38 14 50.5 24t23 30t27.5 38q22 32 25 41q0 1 3 6q1 -4 1 -8t-0.5 -8t1 -7t6.5 -4q-5 -10 -18 -39t-25 -47t-27 -27q-14 -18 -54 -42.5t-68 -13.5q-6 -2 -13 0t-15.5 7.5t-13.5 7.5q-14 6 -29 22q-10 26 -10 40q-2 6 -2 18q1 5 2 22t3 21q3 15 3 16l1 3q2 3 6 4
q1 0 2 3l1 2q3 4 5.5 10.5t5.5 9.5l-12 -10q-2 0 3 9q4 11 16.5 30.5t15.5 25.5l2 5q6 11 4 17q-1 5 3 14zM112 398q0 2 1 2q3 3 3 8q-1 4 3 8q7 12 12 17q1 1 6 11q0 1 3 11q1 9 6 20q8 12 12 19q5 8 15 10t18 -3q2 -1 6 -5q1 0 2 -1q1 -2 3.5 -4.5l3.5 -3.5q2 -1 1 -5
q-5 -4 -10 -12q-19 -22 -35 -37q-24 -22 -46 -34q-2 0 -4 -1z" />
    <glyph glyph-name="icircumflex" unicode="&#xee;" horiz-adv-x="244" 
d="M46 316q4 -2 6 -1l1 1q3 3 8 7q4 1 14 6t19 8t13 0q2 -2 8.5 -6.5t8.5 -6.5q6 -8 2 -22q-3 -7 -10.5 -21l-10.5 -20q-1 -2 -2 -5.5t-2 -5.5t-1 -4q-1 -1 -5.5 -13t-7.5 -17q-2 -5 1 0l3 6l8 11v-1q0 -2 -3 -8q-8 -21 -9 -34q0 -3 -2 -34t-1 -36t8 -15q1 0 6 -3.5t9 -4.5
q4 -3 16 -1q38 14 50.5 24t23 30t27.5 38q22 32 25 41q0 1 3 6q1 -4 1 -8t-0.5 -8t1 -7t6.5 -4q-5 -10 -18 -39t-25 -47t-27 -27q-14 -18 -54 -42.5t-68 -13.5q-6 -2 -13 0t-15.5 7.5t-13.5 7.5q-14 6 -29 22q-10 26 -10 40q-2 6 -2 18q1 5 2 22t3 21q3 15 3 16l1 3q2 3 6 4
q1 0 2 3l1 2q3 4 5.5 10.5t5.5 9.5l-12 -10q-2 0 3 9q4 11 16.5 30.5t15.5 25.5l2 5q6 11 4 17q-1 5 3 14zM182 415q-4 0 -9 5q0 1 -4.5 9t-6.5 13q-2 4 -4 12l-3 12q0 3 -2 7q-3 -3 -8 -7q-17 -16 -35 -29q-3 -2 -6 -3.5t-6.5 -3t-5.5 -2.5q-18 -4 -27 -12l-6 3l-6 3
q-4 3 -3 7q3 10 7 16q5 7 13 17q43 46 50 52h1q1 1 2.5 3t2.5 3t2 1q3 1 7 0t5 -1t3 -2q13 -1 22 -16q9 -13 14 -35q6 -20 10 -30q0 -1 2 -9q0 -1 -2 -5q-2 -1 -4 -4t-3 -4z" />
    <glyph glyph-name="idieresis" unicode="&#xef;" horiz-adv-x="244" 
d="M46 316q4 -2 6 -1l1 1q3 3 8 7q4 1 14 6t19 8t13 0q2 -2 8.5 -6.5t8.5 -6.5q6 -8 2 -22q-3 -7 -10.5 -21l-10.5 -20q-1 -2 -2 -5.5t-2 -5.5t-1 -4q-1 -1 -5.5 -13t-7.5 -17q-2 -5 1 0l3 6l8 11v-1q0 -2 -3 -8q-8 -21 -9 -34q0 -3 -2 -34t-1 -36t8 -15q1 0 6 -3.5t9 -4.5
q4 -3 16 -1q38 14 50.5 24t23 30t27.5 38q22 32 25 41q0 1 3 6q1 -4 1 -8t-0.5 -8t1 -7t6.5 -4q-5 -10 -18 -39t-25 -47t-27 -27q-14 -18 -54 -42.5t-68 -13.5q-6 -2 -13 0t-15.5 7.5t-13.5 7.5q-14 6 -29 22q-10 26 -10 40q-2 6 -2 18q1 5 2 22t3 21q3 15 3 16l1 3q2 3 6 4
q1 0 2 3l1 2q3 4 5.5 10.5t5.5 9.5l-12 -10q-2 0 3 9q4 11 16.5 30.5t15.5 25.5l2 5q6 11 4 17q-1 5 3 14zM100 473q0 -3 -1 -5l-5.5 -17t-8.5 -20q-3 -5 -7 -5q-14 -4 -20 0l-1 1q-8 0 -14 9q-5 8 -5 19q1 20 16 40q2 3 4 1q26 -4 37 -14q5 -5 5 -9zM206 473q0 -3 -1 -5
l-5.5 -17t-8.5 -20q-3 -5 -7 -5q-14 -4 -20 0l-1 1q-8 0 -14 9q-5 8 -5 19q1 20 16 40q2 3 4 1q26 -4 37 -14q5 -5 5 -9z" />
    <glyph glyph-name="eth" unicode="&#xf0;" horiz-adv-x="380" 
d="M216 284l-6 -4t-7 -4t-7 -3q-5 -5 -6 -7q-3 -6 -8 -11q-4 -4 -11 -13t-11 -13l-5.5 -8t-5.5 -7q-18 -31 -26 -48q-9 -25 -16 -39q-7 -20 -9 -54q2 -10 4 -13q14 -24 36 -30q8 -3 10 3q3 1 5 5q6 7 21 34q2 2 14 27q0 2 3 9.5t4 12.5q8 23 8 26q6 20 7 23q5 19 7 45
q2 17 2 50q1 9 -3 19zM289 639l3 -2q8 -13 -7 -32q-6 -5 -20 -19.5t-22 -21.5l-14 -12l2 -3l17 -17q1 -2 3.5 -4.5l3.5 -3.5l3 -4q3 -4 4 -6q3 -2 3 -4q2 -4 9 -16t10.5 -21t5.5 -18q1 -4 4.5 -14t4.5 -15q3 -7 5 -16q6 -32 9 -40q3 -17 0 -34l-6 -24q-2 -14 -4 -19
q-1 -3 -3 -13l-3 -15l-6 -24t-7 -24q0 -4 -1 -5q-2 -4 -7 -23q-10 -28 -13 -42q-7 -13 -16 -54q-2 -8 -10 -20q-3 -4 -8.5 -12.5l-10 -15t-8.5 -11.5q-9 -6 -17 -14q-2 0 -10 -6q-8 -9 -43 -28q-57 -17 -94 0q-8 4 -18 12q-31 29 -41 59q-9 29 -9 46q-1 32 5 67q1 5 14 45
q11 30 33 64q16 24 37 47q7 9 20 16q13 8 17 9q2 1 7 1q5 -2 30 -5q3 -1 13 -2t16 -3l20 -2q12 -2 18 -5h5q0 2 0.5 4t0.5 3q-2 23 -6 34q-21 57 -23 62l-16 40l-9 17l-36 -32q-1 -1 -6.5 -4.5t-7.5 -5.5q-15 -11 -46 -5q-12 0 -17 1q-9 0 -10 7l16 11q6 2 11 8l57 54
q2 2 7.5 6t6.5 5l-12 15q-2 3 -19 20q-8 5 -12 5q-11 0 -15 -1q-1 1 -3 -1l-3 -1q-14 -6 -26 -16q-7 -9 -16 -9q-2 0 -10 -1t-13 0q-4 0 -9 -4h-6q-4 3 -2 8q9 26 13 31q1 1 6 13l6 11q9 12 23 15q38 7 52 10q11 2 16 -2q2 -1 8 -3.5t9 -4.5l4 -3q18 -5 28 -12
q18 -11 23 -15l9 -6t8 -5q40 27 76 48q3 1 9.5 3t9.5 4z" />
    <glyph glyph-name="ntilde" unicode="&#xf1;" horiz-adv-x="487" 
d="M217 253q-2 -4 -5.5 -7.5t-7.5 -8t-6 -6.5l-19 -20t-22 -26q-12 -16 -31 -35q-10 -10 -17 -23q-10 -16 -14 -20q-6 -5 -8 -10q-5 -5 -17 -42.5t-16 -41.5q-6 -6 -13 -6q-4 0 -14 -5q-7 -6 -16 -3l-33 3q-4 1 -11.5 2t-8.5 1q-26 9 -20 42q17 74 30 110q13 34 23 55
q15 38 33 75q3 6 35 61q14 24 19 36q8 15 11 27q0 1 0.5 3t0.5 4q8 5 12 -1q10 -13 27 -18q3 0 5 -5q5 -6 15 -20q6 -9 4 -29q-1 -49 -31 -112q-12 -26 -15 -30q-13 -21 -2 -28q5 -2 11 1q17 16 41 44q13 16 31 33.5t25 25.5q13 13 19 20q7 12 21 15h10q6 -1 18.5 -1.5
t18.5 -1.5q11 -2 18 -15q4 -7 4 -15q4 -27 0 -41l-11 -49q-11 -38 -6 -83q1 -16 19.5 -17t25.5 5l7 3.5t8 3.5q16 10 40.5 30.5t34.5 32.5q1 2 18.5 15.5t19.5 16.5q4 6 8 15t8 15q1 1 1.5 2.5t1.5 3t3 3.5q0 -4 1 -5q1 -3 0 -8t0 -8q0 -1 -2 -6q-4 -5 -4 -13q-1 -7 -6 -15
q-3 -4 -13 -21t-15 -23q-43 -49 -56 -60q-2 -2 -4.5 -3.5t-5.5 -3l-5 -2.5q-1 0 -3 -1t-4.5 -1.5t-4.5 -1.5q-11 -5 -41 -5.5t-43 3.5q-64 21 -65 106q2 26 2 38q9 49 -3 52q-4 1 -11 -6zM179 484l-7 -4q0 1 -1 1q-4 2 -6 6q-3 12 5 20q9 8 21 13q13 0 20 1q3 0 5 -1
q5 0 13 -2h2.5t2.5 -1q2 0 4 -1q4 0 10 -2q3 -2 8 -3t6 -2l2 -1q1 -1 3.5 -1.5t3.5 -0.5t4 -1t5 -1q14 -5 17 -6q1 0 4.5 -1t5.5 -2h1q3 2 9.5 2.5t8.5 1.5l2 1q7 2 7 4q2 6 2 10l-1 2h5l3 -4q3 -3 2 -6l-1 -8q-5 -8 -9 -9l-11 -7q-5 -3 -23 -5q-15 -3 -32 0q-6 1 -39 11
q-4 1 -13 3.5t-14 3.5q-10 2 -15 2l-9 -3q-4 -5 -2 -8zM321 483q0 1 -1 1l-4 -1l-12 -3q-4 0 -14 -2q-4 -2 -5 1l-1 1l-25 4q-1 -1 -2 0v-2l4 -1q14 -2 21 -4h16q6 1 16 3q4 0 7 3z" />
    <glyph glyph-name="ograve" unicode="&#xf2;" horiz-adv-x="314" 
d="M28 256q0 2 -1 3q-14 22 -19 63q-4 22 11 49q2 4 7 5q9 8 30 20q13 8 32 5q5 0 35 -24q16 -13 19 -15q13 -11 20 -30q7 -18 9 -22q1 -1 6 -29q2 -22 3 -24q1 -1 1 -3q-1 7 0 -1v-9q0 -4 0.5 -17.5t-1.5 -16.5q-2 -4 1.5 -8.5t9.5 -4.5q27 2 66.5 16.5t60.5 17.5l4 2
t3.5 1.5t4 2t4.5 2.5q1 1 3.5 2t3.5 2q3 -4 0 -9q-1 -2 2 -5.5t1 -5.5q-21 -22 -79.5 -41.5t-89.5 -19.5h-3q-6 0 -6 -3q0 -1 -2 -5q-1 -7 -19 -50q-5 -12 -19 -30q-9 -14 -14 -17q-1 -1 -3.5 -2.5t-3.5 -2.5q-5 -2 -6 -6q-13 -15 -28 -19q-4 0 -10 -4q-17 -5 -41 -1
q-23 3 -40 32l-9 27q-3 31 -1 55q3 27 17 55q12 29 37 59q2 1 4 6zM147 275q3 14 -1 24q-3 16 -7 32q-5 16 -14 24q-11 11 -13 12q-10 9 -18 13q-13 10 -41 -18q-14 -18 -11.5 -41t12 -42t23.5 -34q22 -43 50.5 -31.5t19.5 61.5zM76 147q-9 -13 -19 -43q-1 -5 -1 -16
q-1 -1 1 -5q4 -9 11 -12q1 0 2 1t4 3q21 22 39 64l4 8t3.5 9t2.5 7q-18 6 -27 2t-20 -18z" />
    <glyph glyph-name="oacute" unicode="&#xf3;" horiz-adv-x="314" 
d="M28 256q0 2 -1 3q-14 22 -19 63q-4 22 11 49q2 4 7 5q9 8 30 20q13 8 32 5q5 0 35 -24q16 -13 19 -15q13 -11 20 -30q7 -18 9 -22q1 -1 6 -29q2 -22 3 -24q1 -1 1 -3q-1 7 0 -1v-9q0 -4 0.5 -17.5t-1.5 -16.5q-2 -4 1.5 -8.5t9.5 -4.5q27 2 66.5 16.5t60.5 17.5l4 2
t3.5 1.5t4 2t4.5 2.5q1 1 3.5 2t3.5 2q3 -4 0 -9q-1 -2 2 -5.5t1 -5.5q-21 -22 -79.5 -41.5t-89.5 -19.5h-3q-6 0 -6 -3q0 -1 -2 -5q-1 -7 -19 -50q-5 -12 -19 -30q-9 -14 -14 -17q-1 -1 -3.5 -2.5t-3.5 -2.5q-5 -2 -6 -6q-13 -15 -28 -19q-4 0 -10 -4q-17 -5 -41 -1
q-23 3 -40 32l-9 27q-3 31 -1 55q3 27 17 55q12 29 37 59q2 1 4 6zM147 275q3 14 -1 24q-3 16 -7 32q-5 16 -14 24q-11 11 -13 12q-10 9 -18 13q-13 10 -41 -18q-14 -18 -11.5 -41t12 -42t23.5 -34q22 -43 50.5 -31.5t19.5 61.5zM76 147q-9 -13 -19 -43q-1 -5 -1 -16
q-1 -1 1 -5q4 -9 11 -12q1 0 2 1t4 3q21 22 39 64l4 8t3.5 9t2.5 7q-18 6 -27 2t-20 -18zM94 440q0 2 1 2q3 3 3 8q-1 4 3 8q7 12 12 17q1 1 6 11q0 1 3 11q1 9 6 20q8 12 12 19q5 8 15 10t18 -3q2 -1 6 -5q1 0 2 -1q1 -2 3.5 -4.5l3.5 -3.5q2 -1 1 -5q-5 -4 -10 -12
q-19 -22 -35 -37q-24 -22 -46 -34q-2 0 -4 -1z" />
    <glyph glyph-name="ocircumflex" unicode="&#xf4;" horiz-adv-x="314" 
d="M28 256q0 2 -1 3q-14 22 -19 63q-4 22 11 49q2 4 7 5q9 8 30 20q13 8 32 5q5 0 35 -24q16 -13 19 -15q13 -11 20 -30q7 -18 9 -22q1 -1 6 -29q2 -22 3 -24q1 -1 1 -3q-1 7 0 -1v-9q0 -4 0.5 -17.5t-1.5 -16.5q-2 -4 1.5 -8.5t9.5 -4.5q27 2 66.5 16.5t60.5 17.5l4 2
t3.5 1.5t4 2t4.5 2.5q1 1 3.5 2t3.5 2q3 -4 0 -9q-1 -2 2 -5.5t1 -5.5q-21 -22 -79.5 -41.5t-89.5 -19.5h-3q-6 0 -6 -3q0 -1 -2 -5q-1 -7 -19 -50q-5 -12 -19 -30q-9 -14 -14 -17q-1 -1 -3.5 -2.5t-3.5 -2.5q-5 -2 -6 -6q-13 -15 -28 -19q-4 0 -10 -4q-17 -5 -41 -1
q-23 3 -40 32l-9 27q-3 31 -1 55q3 27 17 55q12 29 37 59q2 1 4 6zM147 275q3 14 -1 24q-3 16 -7 32q-5 16 -14 24q-11 11 -13 12q-10 9 -18 13q-13 10 -41 -18q-14 -18 -11.5 -41t12 -42t23.5 -34q22 -43 50.5 -31.5t19.5 61.5zM76 147q-9 -13 -19 -43q-1 -5 -1 -16
q-1 -1 1 -5q4 -9 11 -12q1 0 2 1t4 3q21 22 39 64l4 8t3.5 9t2.5 7q-18 6 -27 2t-20 -18zM162 441q-4 0 -9 5l-11 22q-2 4 -4 12l-3 12q0 3 -2 7q-3 -3 -8 -7q-17 -16 -35 -29l-18 -9q-18 -4 -27 -12l-6 3l-6 3q-4 3 -3 7q3 10 7 16q5 7 13 17q43 46 50 52h1q1 1 2.5 3
t2.5 3t2 1q3 1 7 0t5 -1t3 -2q13 -1 22 -16q9 -13 14 -35q6 -20 10 -30q0 -1 2 -9q0 -1 -2 -5q-2 -1 -4 -4t-3 -4z" />
    <glyph glyph-name="otilde" unicode="&#xf5;" horiz-adv-x="314" 
d="M28 256q0 2 -1 3q-14 22 -19 63q-4 22 11 49q2 4 7 5q9 8 30 20q13 8 32 5q5 0 35 -24q16 -13 19 -15q13 -11 20 -30q7 -18 9 -22q1 -1 6 -29q2 -22 3 -24q1 -1 1 -3q-1 7 0 -1v-9q0 -4 0.5 -17.5t-1.5 -16.5q-2 -4 1.5 -8.5t9.5 -4.5q27 2 66.5 16.5t60.5 17.5l4 2
t3.5 1.5t4 2t4.5 2.5q1 1 3.5 2t3.5 2q3 -4 0 -9q-1 -2 2 -5.5t1 -5.5q-21 -22 -79.5 -41.5t-89.5 -19.5h-3q-6 0 -6 -3q0 -1 -2 -5q-1 -7 -19 -50q-5 -12 -19 -30q-9 -14 -14 -17q-1 -1 -3.5 -2.5t-3.5 -2.5q-5 -2 -6 -6q-13 -15 -28 -19q-4 0 -10 -4q-17 -5 -41 -1
q-23 3 -40 32l-9 27q-3 31 -1 55q3 27 17 55q12 29 37 59q2 1 4 6zM147 275q3 14 -1 24q-3 16 -7 32q-5 16 -14 24q-11 11 -13 12q-10 9 -18 13q-13 10 -41 -18q-14 -18 -11.5 -41t12 -42t23.5 -34q22 -43 50.5 -31.5t19.5 61.5zM76 147q-9 -13 -19 -43q-1 -5 -1 -16
q-1 -1 1 -5q4 -9 11 -12q1 0 2 1t4 3q21 22 39 64l4 8t3.5 9t2.5 7q-18 6 -27 2t-20 -18zM23 465l-7 -4q0 1 -1 1q-4 2 -6 6q-3 12 5 20q9 8 21 13q13 0 20 1q3 0 5 -1q5 0 13 -2h2.5t2.5 -1q2 0 4 -1q4 0 10 -2q3 -2 8 -3t6 -2l2 -1q1 -1 3.5 -1.5t3.5 -0.5t4 -1t5 -1
q14 -5 17 -6q1 -1 4.5 -2t5.5 -1h1q3 2 9.5 2.5t8.5 1.5l2 1q7 2 7 4q2 6 2 10l-1 2h5q0 -1 3 -4t2 -6l-1 -8q-5 -8 -9 -9l-11 -7q-5 -3 -23 -5q-15 -3 -32 0q-6 1 -39 11q-4 1 -13 3.5t-14 3.5q-10 2 -15 2l-9 -3q-4 -5 -2 -8zM165 464q0 1 -1 1l-4 -1l-12 -3q-4 0 -14 -2
q-4 -2 -5 1l-1 1l-25 4q-1 -1 -2 0v-2l4 -1q14 -2 21 -4h16q6 1 16 3q4 0 7 3z" />
    <glyph glyph-name="odieresis" unicode="&#xf6;" horiz-adv-x="314" 
d="M28 256q0 2 -1 3q-14 22 -19 63q-4 22 11 49q2 4 7 5q9 8 30 20q13 8 32 5q5 0 35 -24q16 -13 19 -15q13 -11 20 -30q7 -18 9 -22q1 -1 6 -29q2 -22 3 -24q1 -1 1 -3q-1 7 0 -1v-9q0 -4 0.5 -17.5t-1.5 -16.5q-2 -4 1.5 -8.5t9.5 -4.5q27 2 66.5 16.5t60.5 17.5l4 2
t3.5 1.5t4 2t4.5 2.5q1 1 3.5 2t3.5 2q3 -4 0 -9q-1 -2 2 -5.5t1 -5.5q-21 -22 -79.5 -41.5t-89.5 -19.5h-3q-6 0 -6 -3q0 -1 -2 -5q-1 -7 -19 -50q-5 -12 -19 -30q-9 -14 -14 -17q-1 -1 -3.5 -2.5t-3.5 -2.5q-5 -2 -6 -6q-13 -15 -28 -19q-4 0 -10 -4q-17 -5 -41 -1
q-23 3 -40 32l-9 27q-3 31 -1 55q3 27 17 55q12 29 37 59q2 1 4 6zM147 275q3 14 -1 24q-3 16 -7 32q-5 16 -14 24q-11 11 -13 12q-10 9 -18 13q-13 10 -41 -18q-14 -18 -11.5 -41t12 -42t23.5 -34q22 -43 50.5 -31.5t19.5 61.5zM76 147q-9 -13 -19 -43q-1 -5 -1 -16
q-1 -1 1 -5q4 -9 11 -12q1 0 2 1t4 3q21 22 39 64l4 8t3.5 9t2.5 7q-18 6 -27 2t-20 -18zM76 506q0 -3 -1 -5l-5.5 -17t-8.5 -20q-3 -5 -7 -5q-14 -4 -20 0l-1 1q-8 0 -14 9q-5 8 -5 19q1 20 16 40q2 2 4 1q26 -4 37 -14q5 -5 5 -9zM182 506q0 -3 -1 -5l-5.5 -17t-8.5 -20
q-3 -5 -7 -5q-14 -4 -20 0l-1 1q-8 0 -14 9q-5 8 -5 19q1 20 16 40q2 2 4 1q26 -4 37 -14q5 -5 5 -9z" />
    <glyph glyph-name="divide" unicode="&#xf7;" horiz-adv-x="472" 
d="M365 262l1 -3q-2 -17 -25 -21q-55 -6 -59 -6q-15 0 -43 -1t-43 -1q-10 0 -21.5 -0.5t-26 -1.5t-22.5 -1q-2 0 -8 0.5t-9 0.5q-18 1 -39 24q-2 2 -6.5 6t-6.5 6q-7 5 -3 12q3 -1 9.5 -1.5t9.5 -0.5q8 -2 14 -1q52 6 78 7q83 3 181 -12q2 -1 9 -3t10 -3zM238 356
q0 -3 -1 -5l-5.5 -17t-8.5 -20q-3 -5 -7 -5q-14 -4 -20 0l-1 1q-8 0 -14 9q-5 8 -5 19q1 20 16 40q2 2 4 1q26 -4 37 -14q5 -5 5 -9zM225 169q0 -3 -1 -5l-5.5 -17t-8.5 -20q-3 -5 -7 -5q-14 -4 -20 0l-1 1q-8 0 -14 9q-5 8 -5 19q1 20 16 40q3 3 4 1q26 -4 37 -14
q5 -5 5 -9z" />
    <glyph glyph-name="oslash" unicode="&#xf8;" horiz-adv-x="314" 
d="M28 256q0 2 -1 3q-14 22 -19 63q-4 22 11 49q2 4 7 5q9 8 30 20q13 8 32 5q5 0 35 -24q16 -13 19 -15l6 -7q20 24 31 33q10 9 30 23q3 3 7 3q7 4 7 -5q1 -5 0 -11q-7 -26 -18 -41l-27 -36l-7 -11q1 -1 6 -29q2 -22 3 -24v-7l1 -6q0 -4 0.5 -17.5t-1.5 -16.5
q-2 -4 1.5 -8.5t9.5 -4.5q27 2 66.5 16.5t60.5 17.5l16 8l7 4q3 -4 0 -9q-1 -2 2 -5.5t1 -5.5q-21 -22 -79.5 -41.5t-89.5 -19.5h-3q-6 0 -6 -3q0 -1 -2 -5q-1 -7 -19 -50q-5 -12 -19 -30q-9 -14 -14 -17l-7 -5q-5 -2 -6 -6q-13 -15 -28 -19q-4 0 -10 -4q-17 -5 -41 -1
q-22 3 -37 27q-12 -18 -20 -25q-3 -3 -16 -26q-6 -8 -7 -14q-6 -8 -11 0q-3 7 -8 9q-6 3 -4 9l7 16l-4 -13l2 2q13 35 28 49q0 3 1 3q7 10 19 30q-2 23 0 47q3 27 17 55q12 29 37 59q2 1 4 6zM92 276q2 4 2 5q4 6 18 25.5t22 29.5q0 1 2 3q-5 10 -11 16q-11 11 -13 12
q-10 9 -18 13q-13 10 -41 -18q-17 -32 -8.5 -61.5t30.5 -53.5q3 2 7 7t6 6l-3 4l4 3q7 7 6 10q-1 0 -3 -1zM76 147q-9 -13 -19 -43q-1 -5 -1 -16q-1 -1 1 -5q4 -9 11 -12q1 0 2 1l4 3q21 22 39 64l4 8t3.5 9t2.5 7q-18 6 -27 2t-20 -18zM147 275q0 1 1 3l-6 -7l-19 -26
l-22 -29q21 -13 36.5 4.5t9.5 54.5zM180 257l-1 2l1 -3v1zM181 255q-1 0 -1 1z" />
    </font>
</defs>
</svg>
